<?xml version="1.0" encoding="UTF-8" standalone="no"?>
<!-- Created with Inkscape (http://www.inkscape.org/) -->

<svg
   xmlns:dc="http://purl.org/dc/elements/1.1/"
   xmlns:cc="http://creativecommons.org/ns#"
   xmlns:rdf="http://www.w3.org/1999/02/22-rdf-syntax-ns#"
   xmlns:svg="http://www.w3.org/2000/svg"
   xmlns="http://www.w3.org/2000/svg"
   xmlns:sodipodi="http://sodipodi.sourceforge.net/DTD/sodipodi-0.dtd"
   xmlns:inkscape="http://www.inkscape.org/namespaces/inkscape"
   version="1.1"
   id="svg2"
   xml:space="preserve"
   width="582.10669"
   height="532.25336"
   viewBox="0 0 582.10669 532.25336"
   sodipodi:docname="3775343.svg"
   inkscape:version="0.92.5 (2060ec1f9f, 2020-04-08)"><metadata
     id="metadata8"><rdf:RDF><cc:Work
         rdf:about=""><dc:format>image/svg+xml</dc:format><dc:type
           rdf:resource="http://purl.org/dc/dcmitype/StillImage" /><dc:title></dc:title></cc:Work></rdf:RDF></metadata><defs
     id="defs6"><clipPath
       clipPathUnits="userSpaceOnUse"
       id="clipPath28"><path
         d="m 2004.83,942.34 h 2360.98 v 3049.6 H 2004.83 Z"
         id="path26"
         inkscape:connector-curvature="0" /></clipPath></defs><sodipodi:namedview
     pagecolor="#ffffff"
     bordercolor="#666666"
     borderopacity="1"
     objecttolerance="10"
     gridtolerance="10"
     guidetolerance="10"
     inkscape:pageopacity="0"
     inkscape:pageshadow="2"
     inkscape:window-width="1366"
     inkscape:window-height="704"
     id="namedview4"
     showgrid="false"
     inkscape:zoom="0.44339786"
     inkscape:cx="295.56397"
     inkscape:cy="254.85012"
     inkscape:window-x="0"
     inkscape:window-y="27"
     inkscape:window-maximized="1"
     inkscape:current-layer="g12" /><g
     id="g10"
     inkscape:groupmode="layer"
     inkscape:label="ink_ext_XXXXXX"
     transform="matrix(1.3333333,0,0,-1.3333333,0,532.25333)"><g
       id="g12"
       transform="scale(0.1)"><path
         d="m 3894.07,737.801 c 0,-55 -45,-100 -100,-100 H 2478.21 c -55,0 -100,45 -100,100 V 3599.8 c 0,55 45,100 100,100 h 1315.86 c 55,0 100,-45 100,-100 V 737.801"
         style="fill:#ffffff;fill-opacity:1;fill-rule:nonzero;stroke:none"
         id="path14"
         inkscape:connector-curvature="0" /><path
         d="m 3894.07,737.801 h -5 c 0,-26.121 -10.68,-49.84 -27.91,-67.082 -17.25,-17.239 -40.97,-27.91 -67.09,-27.918 l -1315.86,0.008 c -26.12,0 -49.85,10.671 -67.09,27.91 -17.24,17.242 -27.91,40.961 -27.91,67.082 V 3599.8 c 0,26.12 10.67,49.84 27.91,67.09 17.24,17.23 40.97,27.91 67.09,27.91 h 1315.86 c 26.12,0 49.84,-10.68 67.09,-27.91 17.23,-17.25 27.91,-40.97 27.91,-67.09 V 737.801 h 5 5 V 3599.8 c -0.02,57.78 -47.22,104.98 -105,105 H 2478.21 c -57.79,-0.02 -104.98,-47.22 -105,-105 V 737.801 c 0.02,-57.781 47.21,-104.981 105,-105 h 1315.86 c 57.78,0.019 104.98,47.219 105,105 h -5"
         style="fill:#193351;fill-opacity:1;fill-rule:nonzero;stroke:none"
         id="path16"
         inkscape:connector-curvature="0" /><path
         d="M 2434.11,945.07 H 3838.17 V 3571.61 H 2434.11 Z"
         style="fill:#c6e8ef;fill-opacity:1;fill-rule:nonzero;stroke:none"
         id="path18"
         inkscape:connector-curvature="0" /><path
         d="m 3216.56,786.43 h -5 c -0.01,-20.84 -8.44,-39.668 -22.09,-53.34 -13.67,-13.66 -32.49,-22.09 -53.33,-22.09 -20.84,0 -39.67,8.43 -53.33,22.09 -13.66,13.672 -22.09,32.5 -22.09,53.34 0,20.84 8.43,39.66 22.09,53.332 13.66,13.648 32.49,22.078 53.33,22.09 20.84,-0.012 39.66,-8.442 53.33,-22.09 13.65,-13.672 22.08,-32.492 22.09,-53.332 h 5 5 c -0.01,47.179 -38.25,85.41 -85.42,85.422 -47.18,-0.012 -85.42,-38.243 -85.42,-85.422 0,-47.18 38.24,-85.43 85.42,-85.43 47.18,0 85.41,38.25 85.42,85.43 h -5"
         style="fill:#193351;fill-opacity:1;fill-rule:nonzero;stroke:none"
         id="path20"
         inkscape:connector-curvature="0" /><g
         id="g22"><g
           id="g24"
           clip-path="url(#clipPath28)"><path
             d="m 3112.31,3699.38 c 137.55,102.91 257.81,-0.83 283.72,-22.58 102.53,-86.06 144.39,-255.89 41.49,-409.6 -41.99,-62.73 -140.02,-142.79 -52.46,-209.32 98.87,-75.13 145.28,-193.87 65.29,-385.56 -78.2,-187.43 -338.04,159.4 -338.04,159.4 0,0 0,865.47 0,867.66"
             style="fill:#f2546b;fill-opacity:1;fill-rule:nonzero;stroke:none"
             id="path30"
             inkscape:connector-curvature="0" /><path
             d="m 2987.54,2873.34 268.28,15.38 316.06,-135.08 8.06,-709.4 c -22.73,-322.87 -116.62,-500.37 -37.94,-835.59 15.12,-64.37 41.76,-102.23 16.7,-205.94 -17.12,-70.831 -812.05,-137.14 -800.55,-57.64 -32.14,12.629 -72.32,126.81 -9.38,223.3 11.23,140.67 21.88,340.18 32.5,481.15 34.28,454.06 74.11,311 51.5,842.54 -0.58,13.67 0,327.51 0,327.51 0,0 65.64,30.88 154.77,53.77"
             style="fill:#b6dae7;fill-opacity:1;fill-rule:nonzero;stroke:none"
             id="path32"
             inkscape:connector-curvature="0" /><path
             d="m 3193.36,3713.51 c -46.41,58.51 -254.79,134.95 -404.96,-18.17 -168.21,-171.51 -168.76,-645.84 232.12,-706.3 l 172.84,724.47"
             style="fill:#f2546b;fill-opacity:1;fill-rule:nonzero;stroke:none"
             id="path34"
             inkscape:connector-curvature="0" /><path
             d="m 3320.37,3245 c -21.3,-134.79 -79.58,-260.83 -38.93,-359.02 l 62.89,-30.94 c 2.25,-30.19 -14.2,-78.09 -47.06,-108.29 -39.02,-35.85 -83.27,-57.19 -126.69,-65.11 -19.52,-3.56 -33.13,-152.34 -51.78,-150.57 -16.02,1.52 -37.28,152.9 -51.92,158.21 -64.85,23.56 -112.66,83.77 -113.24,175.17 l 33.9,8.89 c 0,0 4.72,19.55 -4.68,105.03 -10.18,92.29 68.81,309.01 68.81,309.01 l 268.7,-42.38"
             style="fill:#f7918d;fill-opacity:1;fill-rule:nonzero;stroke:none"
             id="path36"
             inkscape:connector-curvature="0" /><path
             d="m 2982.86,2978.37 c 49.71,-0.36 215.2,118.18 224.93,149.89 9.73,31.7 33.66,95.5 33.66,95.5 0,0 7.55,-149.96 -53.49,-225.44 -65.62,-81.24 -199.27,-108.28 -199.27,-108.28 0,0 -4.11,70.8 -5.83,88.33"
             style="fill:#f57e7b;fill-opacity:1;fill-rule:nonzero;stroke:none"
             id="path38"
             inkscape:connector-curvature="0" /><path
             d="m 3369.38,3410.14 c -9.24,-154.78 -142.21,-272.75 -296.94,-263.48 -154.8,9.24 -275.72,157.42 -266.54,312.22 2,33.37 2.59,87.69 15.1,116.74 75.68,176.24 354.55,208.94 498.35,44.92 50.22,-57.27 54.15,-140.72 50.03,-210.4"
             style="fill:#f7918d;fill-opacity:1;fill-rule:nonzero;stroke:none"
             id="path40"
             inkscape:connector-curvature="0" /><path
             d="m 2810.2,3395.25 c -0.09,-148.27 66.41,-399.06 197.18,-429.08 61.35,-14.07 216.79,83.98 230.7,186.77 14.02,102.74 28.5,215 28.5,215"
             style="fill:#f7918d;fill-opacity:1;fill-rule:nonzero;stroke:none"
             id="path42"
             inkscape:connector-curvature="0" /><path
             d="m 3041.02,3301.99 c 0.99,-20.53 14.31,-36.62 29.61,-35.84 15.34,0.8 26.87,18.13 25.86,38.7 -1.1,20.62 -14.34,36.67 -29.66,35.88 -15.25,-0.78 -26.86,-18.09 -25.81,-38.74"
             style="fill:#122235;fill-opacity:1;fill-rule:nonzero;stroke:none"
             id="path44"
             inkscape:connector-curvature="0" /><path
             d="m 2833.88,3290.27 c 1.03,-20.55 14.31,-36.64 29.61,-35.88 15.35,0.8 26.83,18.16 25.77,38.72 -1.01,20.66 -14.25,36.69 -29.56,35.89 -15.21,-0.79 -26.87,-18.07 -25.82,-38.73"
             style="fill:#122235;fill-opacity:1;fill-rule:nonzero;stroke:none"
             id="path46"
             inkscape:connector-curvature="0" /><path
             d="m 2908.84,3154.36 c 5.13,-2.43 32.74,-12.12 41.65,-10.48 8.87,1.56 46.3,16.5 48.28,21 2,4.48 -99.65,-5.92 -89.93,-10.52"
             style="fill:#f57e7b;fill-opacity:1;fill-rule:nonzero;stroke:none"
             id="path48"
             inkscape:connector-curvature="0" /><path
             d="m 3018.74,3412.47 c -0.12,-0.11 1.94,1.56 5.47,3.55 3.52,2.11 8.7,4.56 15.16,6.93 6.49,2.19 14.27,4.43 22.9,5.41 4.29,0.66 8.82,0.7 13.39,0.93 4.61,-0.16 9.28,-0.25 13.96,-0.8 4.7,-0.61 9.39,-1.01 13.93,-2.36 4.54,-1.1 9.02,-2.15 13.18,-3.95 4.21,-1.52 8.18,-3.23 11.78,-5.27 3.6,-2 6.99,-3.81 9.82,-6.06 2.82,-2.18 5.4,-4.17 7.68,-5.94 2,-2.07 3.75,-3.88 5.19,-5.37 2.7,-3.05 4.25,-4.79 4.25,-4.79 2.97,-3.34 2.67,-8.45 -0.67,-11.42 -2.47,-2.19 -5.91,-2.6 -8.73,-1.31 l -1.2,0.55 c 0,0 -1.82,0.84 -5,2.29 -1.52,0.77 -3.34,1.69 -5.44,2.76 -2.18,0.84 -4.63,1.8 -7.31,2.84 -2.51,1.25 -5.52,2.01 -8.62,2.89 -2.98,1.13 -6.27,1.92 -9.73,2.54 -3.36,0.85 -6.93,1.47 -10.58,1.92 -3.59,0.65 -7.41,0.71 -11.12,1.17 -3.74,0.35 -7.58,0.17 -11.3,0.34 -3.77,-0.19 -7.47,0.04 -11.1,-0.21 -7.22,-0.19 -14.11,-0.48 -20.07,-0.83 -6.04,-0.32 -11.07,-0.57 -14.59,-0.75 -3.57,-0.17 -5.44,-0.09 -5.57,-0.17 -4.18,-1.57 -8.83,0.54 -10.4,4.71 -1.56,4.18 0.55,8.83 4.72,10.4"
             style="fill:#122235;fill-opacity:1;fill-rule:nonzero;stroke:none"
             id="path50"
             inkscape:connector-curvature="0" /><path
             d="m 2880.12,3387.47 -0.93,-0.14 -2.35,-0.45 c -1.42,-0.44 -4.43,-0.97 -7.68,-1.71 -6.62,-1.41 -15.29,-3.49 -22.99,-6.06 -1.8,-0.77 -3.78,-1.42 -5.44,-2.18 -1.8,-0.66 -3.38,-1.51 -4.89,-2.23 -1.68,-0.59 -2.82,-1.57 -4.25,-2.19 -1.45,-0.62 -2.33,-1.56 -3.63,-2.13 -1.17,-0.65 -1.92,-1.49 -2.96,-2.05 -1.03,-0.56 -1.62,-1.3 -2.32,-1.8 -1.29,-1.07 -2.26,-1.69 -2.26,-1.69 l -2.9,-1.86 c -4.52,-2.89 -10.53,-1.57 -13.42,2.95 -1.25,1.95 -1.72,4.19 -1.48,6.33 0,0 0.18,1.62 0.9,4.45 0.55,2.93 2.31,6.77 5.02,11.1 2.88,4.15 6.99,8.55 12.03,11.9 2.47,1.83 5.22,3.19 7.98,4.5 2.74,1.53 5.67,2.17 8.53,3.24 2.88,0.71 5.76,1.68 8.6,2.01 2.85,0.47 5.62,0.86 8.3,1.02 5.38,0.33 10.33,0.13 14.58,-0.41 4.29,-0.54 7.58,-1.32 10.54,-2.12 1.48,-0.37 2.11,-0.77 2.71,-1 l 0.87,-0.37 c 5.08,-2.17 7.43,-8.06 5.26,-13.13 -1.41,-3.32 -4.4,-5.47 -7.72,-5.97 l -0.1,-0.01"
             style="fill:#122235;fill-opacity:1;fill-rule:nonzero;stroke:none"
             id="path52"
             inkscape:connector-curvature="0" /><path
             d="m 2905.87,3100.07 c 4.07,8.08 139,13.67 148.47,9.76 9.48,-3.9 -39.96,-50.84 -70.33,-53.13 -23.59,-1.78 -82.96,33.76 -78.14,43.37"
             style="fill:#ffffff;fill-opacity:1;fill-rule:nonzero;stroke:none"
             id="path54"
             inkscape:connector-curvature="0" /><path
             d="m 2901.03,2846.85 c 0.01,0.12 0.02,0.18 0.02,0.18 0,-0.06 -0.01,-0.12 -0.01,-0.18 h -0.01"
             style="fill:#b6e2ec;fill-opacity:1;fill-rule:nonzero;stroke:none"
             id="path56"
             inkscape:connector-curvature="0" /><path
             d="m 3057.43,1173.34 -36.91,867.56 c 0,0 -86.73,169.88 -111.31,411.75 -24.07,237.02 -8.8,388.24 -8.18,394.2 h 0.01 c -2.24,-35.35 0.07,-572.08 162.08,-807.97 -0.92,-2.18 41.45,-853.7 41.45,-853.7 l -47.14,-11.84"
             style="fill:#a2cfe2;fill-opacity:1;fill-rule:nonzero;stroke:none"
             id="path58"
             inkscape:connector-curvature="0" /><path
             d="m 3253.83,1517 h -47.74 l -27.2,517.68 c 90.44,175.56 210.87,485.22 226.71,790.02 0,0 24,-218.98 -45.84,-445.22 -53.56,-173.5 -135.16,-352.86 -135.16,-352.86 L 3253.83,1517"
             style="fill:#a2cfe2;fill-opacity:1;fill-rule:nonzero;stroke:none"
             id="path60"
             inkscape:connector-curvature="0" /><path
             d="M 3389.1,818.609 H 2896.75 V 1281.47 H 3389.1 V 818.609"
             style="fill:#80b3c4;fill-opacity:1;fill-rule:nonzero;stroke:none"
             id="path62"
             inkscape:connector-curvature="0" /><path
             d="m 2452.83,2075.04 c 76.14,58.12 312.09,234.07 312.09,234.07 26.7,80.28 50.56,505.61 -3.35,476.81 -106.97,-57.11 -590.29,-640.76 -590.29,-640.76 -62.83,-88.95 -54.75,-162.72 23.27,-237.52 78.02,-74.82 673.52,-408.79 673.52,-408.79 l 113.57,176.28 -528.81,399.91"
             style="fill:#122235;fill-opacity:1;fill-rule:nonzero;stroke:none"
             id="path64"
             inkscape:connector-curvature="0" /><path
             d="m 2901.05,2847.03 c 0,0 -43.36,-487.36 119.47,-806.13 l 52.7,-1245.162 c 0,0 -254.24,-9.679 -357.63,111.391 -41.22,48.262 -9.07,255.401 -4.48,476.471 9.56,459.47 8.06,1074.83 8.06,1074.83 l 42.4,327.49 c 0,0 86.89,43.69 139.48,61.11"
             style="fill:#122235;fill-opacity:1;fill-rule:nonzero;stroke:none"
             id="path66"
             inkscape:connector-curvature="0" /><path
             d="m 3405.6,2824.7 c 24,-467.16 -173.84,-733.57 -179.88,-806.21 -6.06,-72.64 14.78,-1232.818 14.78,-1232.818 0,0 226.04,-44 328.85,121.457 88.79,142.861 0.61,444.401 13.25,901.731 7.21,260.67 -10.72,944.78 -10.72,944.78 l -166.28,71.06"
             style="fill:#122235;fill-opacity:1;fill-rule:nonzero;stroke:none"
             id="path68"
             inkscape:connector-curvature="0" /><path
             d="m 3164.07,1937.43 c 10.77,2.22 21.42,-4.78 23.67,-15.55 l 140.14,-672.05 c 2.24,-10.78 -4.74,-21.39 -15.51,-23.61 l -458.35,-94.09 c -10.77,-2.22 -21.43,4.79 -23.67,15.56 l -140.11,672.03 c -2.25,10.77 4.74,21.39 15.51,23.6 l 458.32,94.11"
             style="fill:#e9eae7;fill-opacity:1;fill-rule:nonzero;stroke:none"
             id="path70"
             inkscape:connector-curvature="0" /><path
             d="m 3154.42,1934.87 c 10.77,2.22 21.42,-4.78 23.67,-15.55 l 140.15,-672.04 c 2.24,-10.77 -4.74,-21.39 -15.51,-23.61 l -458.38,-94.04 c -10.77,-2.22 -21.43,4.79 -23.67,15.56 l -140.14,672.04 c -2.24,10.77 4.74,21.38 15.51,23.6 l 458.37,94.04"
             style="fill:#ffffff;fill-opacity:1;fill-rule:nonzero;stroke:none"
             id="path72"
             inkscape:connector-curvature="0" /><path
             d="m 2738.63,1825.95 126.26,25.95 c 2.7,0.56 4.45,3.2 3.89,5.91 -0.56,2.7 -3.2,4.44 -5.9,3.89 l -126.26,-25.95 c -2.71,-0.56 -4.45,-3.2 -3.9,-5.91 0.56,-2.7 3.2,-4.44 5.91,-3.89"
             style="fill:#e9eae7;fill-opacity:1;fill-rule:nonzero;stroke:none"
             id="path74"
             inkscape:connector-curvature="0" /><path
             d="m 2993.98,1876.8 126.28,25.94 c 2.7,0.56 4.45,3.2 3.89,5.9 -0.56,2.71 -3.2,4.45 -5.9,3.9 l -126.28,-25.94 c -2.71,-0.56 -4.45,-3.2 -3.89,-5.91 0.55,-2.7 3.19,-4.44 5.9,-3.89"
             style="fill:#e9eae7;fill-opacity:1;fill-rule:nonzero;stroke:none"
             id="path76"
             inkscape:connector-curvature="0" /><path
             d="m 2733.79,1689.8 106.95,-532.68 443.59,87.64 -56.32,277.63 c 0,0 -225.24,-77.16 -494.22,167.41"
             style="fill:#c6e8ef;fill-opacity:1;fill-rule:nonzero;stroke:none"
             id="path78"
             inkscape:connector-curvature="0" /><path
             d="m 3277.27,1495.75 c 0,0 -18.5,-10.98 -51.52,-19.4 -42.07,-10.73 -119.5,4.35 -168.55,-0.69 -52.2,-5.38 -1.72,-162.12 64.47,-189.47 120.93,-22.62 234.95,42.8 286.13,52.93 33.97,6.77 121.6,30.5 121.6,30.5 l 75.52,217.36 c 0,0 -158.14,-64.04 -173.04,-54.38 -65.3,45.17 -129.92,30.86 -168.7,30.86"
             style="fill:#f7918d;fill-opacity:1;fill-rule:nonzero;stroke:none"
             id="path80"
             inkscape:connector-curvature="0" /><path
             d="m 3571.88,2753.64 c 83.32,-57.18 749.01,-737.53 708.35,-852.85 -31.5,-89.33 -154.16,-198.44 -455.29,-406.88 -129.84,-89.87 -296.77,-164.18 -315.47,-165.7 -54.87,-4.54 -64.73,208.92 -22.48,241.52 46.86,36.19 398.95,309.93 472.47,369.17 -54.79,33.43 -462.56,405.18 -462.56,405.18"
             style="fill:#122235;fill-opacity:1;fill-rule:nonzero;stroke:none"
             id="path82"
             inkscape:connector-curvature="0" /><path
             d="m 3456.4,1534.75 c 0,0 -40,-25.63 -22.26,-189.15 l 44.04,10.89 c 0,0 -28.57,105.73 -15.51,179.86 l -6.27,-1.6"
             style="fill:#f57e7b;fill-opacity:1;fill-rule:nonzero;stroke:none"
             id="path84"
             inkscape:connector-curvature="0" /><path
             d="m 3037.87,1416.91 c 56.57,-19.94 175.93,-14.25 215.96,0.45"
             style="fill:#f57e7b;fill-opacity:1;fill-rule:nonzero;stroke:none"
             id="path86"
             inkscape:connector-curvature="0" /><path
             d="m 3057.43,1358.77 c 0,0 86.86,-19.48 183.07,5.51"
             style="fill:#f57e7b;fill-opacity:1;fill-rule:nonzero;stroke:none"
             id="path88"
             inkscape:connector-curvature="0" /><path
             d="m 3087.08,1312.92 c 48.07,-12.13 142.88,-2.47 167.47,8.49"
             style="fill:#f57e7b;fill-opacity:1;fill-rule:nonzero;stroke:none"
             id="path90"
             inkscape:connector-curvature="0" /><path
             d="m 2980.83,2759.92 c 20.34,-33.87 50.61,-57.77 86.05,-70.64 14.63,-5.31 35.86,-156.46 51.88,-158.2 l 8.9,10.12 v 0.01 l -41.24,153.3 c 0,0 -64.23,19.11 -105.59,65.41"
             style="fill:#f57e7b;fill-opacity:1;fill-rule:nonzero;stroke:none"
             id="path92"
             inkscape:connector-curvature="0" /><path
             d="m 2934.22,3269.96 -4.99,-0.31 c 0.18,-2.76 0.26,-5.51 0.26,-8.22 0.01,-24.55 -7.05,-46.81 -18.51,-63 -11.49,-16.21 -27.1,-26.24 -44.65,-27.35 -1.07,-0.07 -2.14,-0.1 -3.21,-0.1 -17.83,0 -34.76,9.4 -47.88,25.54 -13.08,16.1 -22.08,38.82 -23.69,64.45 -0.18,2.76 -0.26,5.49 -0.26,8.19 -0.01,24.56 7.05,46.82 18.52,63.02 11.49,16.21 27.11,26.25 44.66,27.36 1.07,0.07 2.14,0.1 3.2,0.1 17.82,0 34.76,-9.4 47.88,-25.53 13.08,-16.11 22.08,-38.83 23.68,-64.46 l 4.99,0.31 4.99,0.32 c -1.74,27.58 -11.36,52.2 -25.9,70.13 -14.5,17.89 -34.17,29.22 -55.64,29.23 -1.27,0 -2.55,-0.04 -3.83,-0.12 -21.11,-1.33 -39.43,-13.47 -52.2,-31.57 -12.81,-18.13 -20.34,-42.32 -20.35,-68.79 0,-2.91 0.09,-5.86 0.28,-8.82 1.75,-27.58 11.37,-52.2 25.91,-70.13 14.5,-17.9 34.17,-29.23 55.64,-29.23 1.28,0 2.56,0.04 3.84,0.12 21.11,1.33 39.42,13.46 52.19,31.56 12.8,18.13 20.33,42.32 20.34,68.77 0,2.93 -0.09,5.87 -0.28,8.85 l -4.99,-0.32"
             style="fill:#122235;fill-opacity:1;fill-rule:nonzero;stroke:none"
             id="path94"
             inkscape:connector-curvature="0" /><path
             d="m 3174.94,3285.09 -5,-0.1 0.02,-2.11 c -0.01,-51.23 -40.23,-93.18 -90.66,-94.27 l -1.98,-0.02 c -50.21,-0.01 -91.58,40.93 -92.69,92.44 l -0.02,2.1 c 0,51.24 40.25,93.2 90.66,94.27 l 1.99,0.02 c 50.21,0.01 91.57,-40.91 92.68,-92.43 l 5,0.1 5,0.11 c -1.22,56.84 -46.89,102.21 -102.68,102.22 l -2.21,-0.02 c -55.99,-1.22 -100.45,-47.72 -100.44,-104.27 l 0.02,-2.31 c 1.22,-56.84 46.91,-102.21 102.69,-102.23 l 2.2,0.03 c 56,1.23 100.45,47.72 100.44,104.26 l -0.02,2.32 -5,-0.11"
             style="fill:#122235;fill-opacity:1;fill-rule:nonzero;stroke:none"
             id="path96"
             inkscape:connector-curvature="0" /><path
             d="m 2922.58,3318 0.01,0.01 c 0.69,0.48 10.38,7.17 27.92,7.17 9.38,0 21.05,-1.9 34.97,-7.79 l 3.9,9.2 c -15.06,6.39 -28.13,8.59 -38.87,8.59 -21.5,0 -33.39,-8.77 -33.96,-9.2 l 6.03,-7.98"
             style="fill:#122235;fill-opacity:1;fill-rule:nonzero;stroke:none"
             id="path98"
             inkscape:connector-curvature="0" /><path
             d="m 2804.14,3434.04 c 56.41,32.41 95.07,103.51 95.07,103.51 0,0 41.07,-59.98 163.68,-71.56 81.38,-7.69 130.47,1.34 130.47,1.34 l 29.26,-217.92 -13.14,244.98 -195.17,124.27 -167.85,-18.15 -40.56,-141.63 c 0,0 -3.27,-5 -1.76,-24.84"
             style="fill:#f57e7b;fill-opacity:1;fill-rule:nonzero;stroke:none"
             id="path100"
             inkscape:connector-curvature="0" /><path
             d="m 2880.35,3608.57 c 44.5,-102.9 201.45,-134.66 329.13,-114.18 3.39,-73.48 14.15,-163.26 13.14,-244.98 -0.25,-20.16 16.65,-17.15 18.2,1 1.4,16.58 26.24,140.79 76.85,143.76 50.61,2.98 26.87,-115.22 26.87,-115.22 0,0 81.32,180.34 56.66,277.16 -24.67,96.84 -188.94,203.64 -380.68,188.04 -127.33,-10.36 -140.17,-135.58 -140.17,-135.58"
             style="fill:#f2546b;fill-opacity:1;fill-rule:nonzero;stroke:none"
             id="path102"
             inkscape:connector-curvature="0" /><path
             d="m 2924.85,3688.67 -29.84,-71.84 c 0,0 -6.74,-101.07 -89.11,-157.95 0,0 -48.72,231.6 118.95,229.79"
             style="fill:#f2546b;fill-opacity:1;fill-rule:nonzero;stroke:none"
             id="path104"
             inkscape:connector-curvature="0" /><path
             d="m 3368.94,3291.89 c -9.54,-49.51 -52.09,-111.14 -88.03,-89.66 -28.81,17.37 -5.65,166.69 34.51,172.29 43.22,6.04 63.19,-33.14 53.52,-82.63"
             style="fill:#f57e7b;fill-opacity:1;fill-rule:nonzero;stroke:none"
             id="path106"
             inkscape:connector-curvature="0" /><path
             d="m 3268.06,3300.8 c 0,0 28.89,-20.51 27.54,-28.89 -1.35,-8.38 -35.64,-44.03 -35.64,-44.03"
             style="fill:#f7918d;fill-opacity:1;fill-rule:nonzero;stroke:none"
             id="path108"
             inkscape:connector-curvature="0" /></g></g><path
         d="m 1443.02,1137.33 c 30.82,-18.36 96.65,-31.39 113.32,-51.96 16.67,-20.56 16.29,-46.45 2.31,-55.59 0,0 -60.64,67.52 -84.81,71.69"
         style="fill:#f7918d;fill-opacity:1;fill-rule:nonzero;stroke:none"
         id="path110"
         inkscape:connector-curvature="0" /><path
         d="m 1514.68,128.129 c 0,0 35.16,7.492 40.08,8.332 4.92,0.84 4.92,65 4.92,65 0,0 -20,36.668 -19.17,120 0.84,83.328 -131.89,-21.652 -131.89,-21.652 l -9.78,-135.848 -12.12,-35.832 c 0,0 124.62,1 127.96,2.16"
         style="fill:#e9eae7;fill-opacity:1;fill-rule:nonzero;stroke:none"
         id="path112"
         inkscape:connector-curvature="0" /><path
         d="m 1798.01,281.461 72.5,-112.5 14.17,-55.832 c 0,0 117.5,37.859 120,39.762 2.5,1.91 -25.17,100.531 -25.17,100.531 l -59.83,93.039 -121.67,-65"
         style="fill:#e9eae7;fill-opacity:1;fill-rule:nonzero;stroke:none"
         id="path114"
         inkscape:connector-curvature="0" /><path
         d="m 812.164,1151.34 c 0,0 665.846,-10.28 735.846,-84.03 36.49,-38.45 11.94,-662.599 -6.67,-773.341 -3.75,-22.328 -138.75,-25.457 -138.75,1.25 0,101.25 -26.09,478.57 -30.83,532.781 -4.3,49.16 -750.377,10.781 -750.377,10.781 l -101.172,268.509 291.953,44.05"
         style="fill:#0f1a2a;fill-opacity:1;fill-rule:nonzero;stroke:none"
         id="path116"
         inkscape:connector-curvature="0" /><path
         d="m 1925.29,351.461 c 0,0 -259.01,559.07 -370.53,652.509 -111.53,93.45 -742.596,147.36 -742.596,147.36 l -175.051,-26.43 54.407,-279.341 709.82,5.613 c 0,0 350.74,-528.672 388.62,-574.992 36.25,-44.321 156.92,35.148 135.33,75.281"
         style="fill:#0f1a2a;fill-opacity:1;fill-rule:nonzero;stroke:none"
         id="path118"
         inkscape:connector-curvature="0" /><path
         d="m 855.289,1147.87 c 74.305,3.12 -163.293,237.26 5.977,510.25 -18.254,174.78 -111.586,237.52 -211.817,232.1 -33.054,-1.79 -84.23,-6.1 -117.832,-19.13 -59.179,-22.97 -97.89,-64.44 -130.683,-102.71 -127.383,-148.7 -114.329,-544 -50.012,-745.31 32.832,-102.8 187.433,-151.351 291.699,-94.488 8.438,134.908 137.051,229.348 212.668,219.288"
         style="fill:#fab517;fill-opacity:1;fill-rule:nonzero;stroke:none"
         id="path120"
         inkscape:connector-curvature="0" /><path
         d="m 1383.38,768 c 0,67.711 -33.12,129.68 -162.81,127.512 -129.67,-2.153 -441.191,0.047 -514.668,0.047 -73.496,0 -114.558,224.721 -164.265,447.321 -49.707,222.63 -254.942,192.3 -309.063,15.14 -52.16,-170.74 14.356,-357.58 57.403,-456.02 v -66.289 c 0,0 379.128,1.461 463.457,1.461 97.988,0 85.457,-69.172 85.457,-69.172 h 544.489"
         style="fill:#c6e8ef;fill-opacity:1;fill-rule:nonzero;stroke:none"
         id="path122"
         inkscape:connector-curvature="0" /><path
         d="m 1347.38,768 c 0,0 7.19,88.84 -76.38,88.84 -83.56,0 -527.645,0 -527.645,0 l 8.661,-21.129 c 0,0 92.277,8.898 86.875,-67.711 h 508.489"
         style="fill:#649ebd;fill-opacity:1;fill-rule:nonzero;stroke:none"
         id="path124"
         inkscape:connector-curvature="0" /><path
         d="m 1346.64,5.87109 h 36.74 L 1271,856.84 h -73.48 L 1346.64,5.87109"
         style="fill:#c6e8ef;fill-opacity:1;fill-rule:nonzero;stroke:none"
         id="path126"
         inkscape:connector-curvature="0" /><path
         d="M 515.414,5.87109 H 478.676 L 591.051,856.84 h 73.496 L 515.414,5.87109"
         style="fill:#c6e8ef;fill-opacity:1;fill-rule:nonzero;stroke:none"
         id="path128"
         inkscape:connector-curvature="0" /><path
         d="m 1048.37,5.87109 h 36.75 L 972.75,856.84 H 899.262 L 1048.37,5.87109"
         style="fill:#649ebd;fill-opacity:1;fill-rule:nonzero;stroke:none"
         id="path130"
         inkscape:connector-curvature="0" /><path
         d="m 217.164,5.87109 h -36.75 L 292.789,856.84 h 73.496 L 217.164,5.87109"
         style="fill:#649ebd;fill-opacity:1;fill-rule:nonzero;stroke:none"
         id="path132"
         inkscape:connector-curvature="0" /><path
         d="M 289.977,835.711 H 1271 v 30.91 H 289.977 v -30.91"
         style="fill:#c6e8ef;fill-opacity:1;fill-rule:nonzero;stroke:none"
         id="path134"
         inkscape:connector-curvature="0" /><path
         d="m 645.375,896.949 c 0,0 -70.437,29.039 -148.367,110.321 -94.59,98.67 -283.547,115.91 -241.223,-17.34 L 289.977,902 645.375,896.949"
         style="fill:#649ebd;fill-opacity:1;fill-rule:nonzero;stroke:none"
         id="path136"
         inkscape:connector-curvature="0" /><path
         d="m 409.02,2030.91 c 38.503,-41.72 69.574,-192.77 68.5,-213.15 12.054,-8.7 39.625,-16.24 76.843,26.14 31.907,36.34 77.274,44.52 77.274,44.52 0,0 -21.321,51.11 -26.434,105.91 l -196.183,36.58"
         style="fill:#f7918d;fill-opacity:1;fill-rule:nonzero;stroke:none"
         id="path138"
         inkscape:connector-curvature="0" /><path
         d="m 608.168,1975.74 -97.719,33.81 c 0,0 -2.695,-52.21 105.004,-71.42 l -7.285,37.61"
         style="fill:#f57e7b;fill-opacity:1;fill-rule:nonzero;stroke:none"
         id="path140"
         inkscape:connector-curvature="0" /><path
         d="m 626.957,2234.34 c 32.773,-82.02 -7.16,-175.07 -89.207,-207.86 -82.031,-32.77 -175.098,7.16 -207.871,89.21 -32.762,82.02 7.172,175.09 89.215,207.86 82.023,32.77 175.078,-7.15 207.863,-89.21"
         style="fill:#f7918d;fill-opacity:1;fill-rule:nonzero;stroke:none"
         id="path142"
         inkscape:connector-curvature="0" /><path
         d="m 626.957,2234.34 c 40.445,-84.5 67.555,-236.08 18.789,-252.76 -40.258,-13.81 -125.066,-4.33 -159.754,38.32 -34.703,42.68 -98.258,79.14 -98.258,79.14"
         style="fill:#f7918d;fill-opacity:1;fill-rule:nonzero;stroke:none"
         id="path144"
         inkscape:connector-curvature="0" /><path
         d="m 641.461,2170.16 c 0,0 50.164,-60.33 47.301,-69.52 -2.867,-9.15 -33.895,-19.76 -33.895,-19.76"
         style="fill:#f7918d;fill-opacity:1;fill-rule:nonzero;stroke:none"
         id="path146"
         inkscape:connector-curvature="0" /><path
         d="m 620.563,2153.44 c 3.25,-10.43 0.355,-20.63 -6.493,-22.75 -6.847,-2.13 -15.023,4.6 -18.269,15.05 -3.258,10.42 -0.336,20.63 6.5,22.76 6.844,2.13 15.012,-4.62 18.262,-15.06"
         style="fill:#040606;fill-opacity:1;fill-rule:nonzero;stroke:none"
         id="path148"
         inkscape:connector-curvature="0" /><path
         d="m 601.309,2201.17 c 0.062,-0.01 -1.071,-0.19 -2.348,-0.68 -1.309,-0.29 -3.234,-1.13 -5.578,-1.96 -1.18,-0.31 -2.352,-1.03 -3.633,-1.56 -1.25,-0.61 -2.637,-1.05 -3.914,-1.81 -2.492,-1.68 -5.481,-2.76 -7.785,-4.95 -1.227,-0.97 -2.524,-1.84 -3.781,-2.73 -1.141,-1.04 -2.153,-2.21 -3.235,-3.23 -1.039,-1.06 -2.117,-2.04 -3.18,-2.96 -1.113,-0.88 -1.679,-2.15 -2.535,-3.06 -3.101,-3.87 -5.742,-6.44 -5.742,-6.44 l -0.652,-0.64 c -1.625,-1.58 -4.235,-1.55 -5.817,0.08 -1.043,1.08 -1.386,2.58 -1.031,3.93 0,0 1.004,3.78 3.356,9.43 0.664,1.36 1.074,3.03 2.222,4.39 1.032,1.43 2.164,2.93 3.407,4.42 1.261,1.47 2.417,3.16 3.949,4.52 1.644,1.24 3.312,2.51 4.984,3.77 1.723,1.2 3.383,2.48 5.324,3.23 1.899,0.79 3.758,1.58 5.563,2.34 1.777,0.79 3.722,0.92 5.43,1.35 1.738,0.37 3.367,0.7 4.933,0.69 3.055,0.19 5.652,-0.01 7.559,-0.26 1.918,-0.2 2.617,-0.61 2.679,-0.56 l 0.75,-0.35 c 1.836,-0.87 2.629,-3.07 1.758,-4.9 -0.519,-1.12 -1.554,-1.85 -2.683,-2.06"
         style="fill:#040606;fill-opacity:1;fill-rule:nonzero;stroke:none"
         id="path150"
         inkscape:connector-curvature="0" /><path
         d="M 1880.26,113.961 C 1875.55,60.4805 1904.7,5.87109 1904.7,5.87109 L 2293.61,111.82 c 0,0 10.6,34.871 -17.5,58.379 -39.38,32.942 -112.07,21.071 -112.07,21.071 l -188.36,63.441 c 0,0 -12.63,-17.359 4.7,-53.172 14.89,-30.828 -19.72,-54.141 -41.83,-55.187 -41.41,-1.961 -56.17,-8.192 -58.29,-32.391"
         style="fill:#0f1a2a;fill-opacity:1;fill-rule:nonzero;stroke:none"
         id="path152"
         inkscape:connector-curvature="0" /><path
         d="m 2289.8,152.891 c 10.04,-20.289 3.81,-41.071 3.81,-41.071 L 1904.7,5.87109 c 0,0 -8.22,15.48051 -15.23,37.95701 L 2289.8,152.891"
         style="fill:#e9eae7;fill-opacity:1;fill-rule:nonzero;stroke:none"
         id="path154"
         inkscape:connector-curvature="0" /><path
         d="m 2289.8,152.891 -4.48,-2.211 c 4.04,-8.18 5.2,-16.551 5.2,-23.348 0,-4.223 -0.44,-7.82 -0.88,-10.32 -0.22,-1.25 -0.44,-2.231 -0.59,-2.883 l -0.18,-0.707 -0.05,-0.172 4.79,-1.43 -1.32,4.821 -388.91,-105.9496 1.32,-4.82031 4.41,2.34766 -0.33,0.63281 c -1.58,3.08984 -8.52,17.17974 -14.53,36.46874 l -4.78,-1.4922 1.32,-4.8164 400.32,109.0583 -1.31,4.821 -4.48,-2.211 4.48,2.211 -1.31,4.828 -405.33,-110.4299 1.54,-4.9493 c 7.14,-22.9101 15.49,-38.62886 15.58,-38.80855 L 1902.15,0 l 395.45,107.719 0.8,2.66 c 0.09,0.32 2.11,7.121 2.12,16.953 0,7.906 -1.33,17.84 -6.24,27.777 l -1.82,3.692 -3.97,-1.082 1.31,-4.828"
         style="fill:#e9eae7;fill-opacity:1;fill-rule:nonzero;stroke:none"
         id="path156"
         inkscape:connector-curvature="0" /><path
         d="m 1383.53,121.141 c -18.61,-50.3597 -4.84,-110.7113 -4.84,-110.7113 h 403.09 c 0,0 19.39,30.8594 -1.54,60.9219 -29.33,42.1364 -102.59,49.7894 -102.59,49.7894 l -117.24,110.73 c 0,0 -8.28,-12.781 -9.45,-52.531 -1.28,-43.711 -58.78,-58.192 -95.41,-43.352 -38.42,15.563 -63.62,7.942 -72.02,-14.847"
         style="fill:#0f1a2a;fill-opacity:1;fill-rule:nonzero;stroke:none"
         id="path158"
         inkscape:connector-curvature="0" /><path
         d="m 1788.91,51.0586 c 4.35,-22.2188 -7.13,-40.6289 -7.13,-40.6289 h -403.09 c 0,0 -3.86,17.1016 -4.71,40.6289 h 414.93"
         style="fill:#e9eae7;fill-opacity:1;fill-rule:nonzero;stroke:none"
         id="path160"
         inkscape:connector-curvature="0" /><path
         d="M 1788.91,51.0586 1784,50.0898 c 0.63,-3.1992 0.89,-6.3085 0.89,-9.3085 0.01,-7.8907 -1.86,-14.9102 -3.74,-19.9219 -0.94,-2.5078 -1.87,-4.5078 -2.56,-5.8477 l -0.81,-1.5117 -0.2,-0.3516 -0.04,-0.0664 4.24,-2.6523 v 5 h -403.09 v -5 l 4.88,1.1016 -0.15,0.6992 c -0.71,3.3984 -3.71,18.8203 -4.44,39.0078 l -5,-0.1797 v -5 h 414.93 v 5 l -4.91,-0.9688 4.91,0.9688 v 5 H 1368.8 l 0.19,-5.1797 c 0.87,-23.9805 4.78,-41.33984 4.82,-41.54687 l 0.88,-3.90234 h 409.86 l 1.47,2.35937 c 0.23,0.42188 8.82,14.07034 8.87,32.99224 0,3.5898 -0.32,7.3593 -1.08,11.2382 l -0.79,4.0391 h -4.11 v -5"
         style="fill:#e9eae7;fill-opacity:1;fill-rule:nonzero;stroke:none"
         id="path162"
         inkscape:connector-curvature="0" /><path
         d="m 1123.01,1328.96 217.08,-136.24 c 0,0 66.25,-41.39 102.93,-55.39 24.53,-15.76 32.08,-28.34 50.2,-44.35 -11.25,-12.76 -109.84,25.15 -180.19,30.35 -22.58,10.88 -269.5,104.39 -269.5,104.39 l 79.48,101.24"
         style="fill:#f7918d;fill-opacity:1;fill-rule:nonzero;stroke:none"
         id="path164"
         inkscape:connector-curvature="0" /><path
         d="m 851.586,1716.12 c 30.859,-104.74 118.867,-236.27 208.184,-287.98 20.5,-11.88 26.92,-26.84 17.68,-54.53 18.66,1.67 56.42,-27.85 62.97,-40.38 10.9,-20.84 -64.75,-112.5 -84.08,-115.51 -26.03,-4.09 -74.695,25.87 -87.336,41.78 -40.16,-23.03 -78.566,-1.42 -113.91,21.97 -129.18,85.48 -275.004,210.95 -325.508,373.41 l 322,61.24"
         style="fill:#fab517;fill-opacity:1;fill-rule:nonzero;stroke:none"
         id="path166"
         inkscape:connector-curvature="0" /><path
         d="m 624.691,2239.66 c 0,0 -20.621,46.19 -44.336,48.95 -45.976,-41.41 -124.75,-3.95 -146.367,-47.32 -17.765,-35.73 38.606,-46.85 52.227,-116.11 4.738,-10.65 -12.891,-16.94 -18.047,-12.18 -5.133,4.76 -7.516,48.75 -41.164,33 -20.203,-9.45 -14.938,-64.21 32.082,-81.47 12.379,-15.06 -34.809,-36.26 -21.883,-84.39 -17.574,9.17 -52.652,45.87 -91.441,74.48 -65.711,48.49 -94.27,138.86 -57.153,178.6 -24.445,62.05 -4.425,114.58 117.758,146.76 71.367,18.79 136.02,31.73 176.571,87.92 26.554,36.79 99.003,-131.91 41.753,-228.24"
         style="fill:#0f1a2a;fill-opacity:1;fill-rule:nonzero;stroke:none"
         id="path168"
         inkscape:connector-curvature="0" /><path
         d="m 418.695,2092.5 c 10.891,-23.44 36.532,-39.44 56.914,-32.81 17.457,5.68 -5.039,14.99 -15.906,38.44 -10.89,23.44 -0.683,45.69 -22.473,43.02 -23.464,-2.9 -29.398,-25.21 -18.535,-48.65"
         style="fill:#f57e7b;fill-opacity:1;fill-rule:nonzero;stroke:none"
         id="path170"
         inkscape:connector-curvature="0" /><path
         d="m 1049.22,1217.27 c -4.15,0 -8.59,0.85 -13.63,2.42 5.54,-1.49 10.83,-2.35 15.6,-2.35 0.03,0 0.06,0 0.1,0 -0.69,-0.05 -1.37,-0.07 -2.07,-0.07 m -42.53,14.35 c -9.764,4.41 -18.569,10.72 -25.21,16.22 7.016,-5.46 15.836,-11.2 25.21,-16.22 m -129.792,36.23 c -15.98,8.73 -34.011,20.72 -54.89,36.17 11.101,-7.8 22.156,-15.32 33.086,-22.55 7.144,-4.73 14.418,-9.39 21.804,-13.62"
         style="fill:#b7b9b7;fill-opacity:1;fill-rule:nonzero;stroke:none"
         id="path172"
         inkscape:connector-curvature="0" /><path
         d="m 1065.18,1222.14 c 4.63,3.27 10.18,8.15 16.13,14.08 -6.04,-6.39 -11.21,-11.01 -16.13,-14.08 m 28.89,27.68 c 2.57,2.92 5.16,5.94 7.72,9.04 -0.96,-1.46 -4.11,-5.06 -7.72,-9.04"
         style="fill:#f57770;fill-opacity:1;fill-rule:nonzero;stroke:none"
         id="path174"
         inkscape:connector-curvature="0" /><path
         d="m 1051.19,1217.34 c -4.77,0 -10.06,0.86 -15.6,2.35 -7.71,2.41 -16.86,6.5 -28.64,11.82 -0.09,0.03 -0.17,0.07 -0.26,0.11 -9.374,5.02 -18.194,10.76 -25.21,16.22 -7.691,6.37 -12.476,11.66 -12.476,11.66 v 0 0 c -11.274,-6.34 -22.645,-9.63 -35.039,-9.63 -16.488,0 -34.789,5.82 -57.067,17.98 -7.386,4.23 -14.66,8.89 -21.804,13.62 -10.93,7.23 -21.985,14.75 -33.086,22.55 -0.012,0.01 -0.028,0.02 -0.039,0.03 -47.953,37.17 -97.582,79.91 -126.926,105.7 61.211,-48.28 189.43,-126.15 220.988,-131.41 3.653,-0.61 8.446,-1.14 13.891,-1.14 17.23,0 40.922,5.34 55.172,30.52 18.746,33.12 92.496,80.62 96.396,89.78 -0.27,-8.13 -2.12,-17.4 -4.04,-23.89 v 0 0 0 c -46.67,-56.21 -46.81,-124.17 -15.46,-124.17 4.94,0 10.67,1.69 17.12,5.38 -2.44,-3.96 -0.56,-5.66 3.08,-5.66 5.47,0 14.93,3.87 19.63,9.75 -0.01,-0.02 -0.02,-0.03 -0.03,-0.05 -2.56,-3.1 -5.15,-6.12 -7.72,-9.04 -4.7,-5.17 -10.2,-10.99 -12.75,-13.6 h -0.01 c -5.95,-5.93 -11.5,-10.81 -16.13,-14.08 -4.69,-2.93 -9.14,-4.46 -13.89,-4.8 -0.04,0 -0.07,0 -0.1,0"
         style="fill:#f89e19;fill-opacity:1;fill-rule:nonzero;stroke:none"
         id="path176"
         inkscape:connector-curvature="0" /><path
         d="m 673.746,1427.98 c -1.859,1.8 -3.519,3.5 -4.961,5.09 1.653,-1.71 3.297,-3.4 4.961,-5.09"
         style="fill:#f89e19;fill-opacity:1;fill-rule:nonzero;stroke:none"
         id="path178"
         inkscape:connector-curvature="0" /><path
         d="m 695.043,1409.75 c -8.563,6.75 -15.805,12.92 -21.297,18.23 -1.664,1.69 -3.308,3.38 -4.961,5.09 -0.031,0.04 -0.066,0.08 -0.097,0.11 0,0 10.039,-9.1 26.355,-23.43"
         style="fill:#f89e19;fill-opacity:1;fill-rule:nonzero;stroke:none"
         id="path180"
         inkscape:connector-curvature="0" /><path
         d="m 1117.91,1279.86 c -12.24,-16.2 -18.23,-45.89 45.94,-74.23 64.16,-28.34 148.33,-71.42 148.33,-71.42 0,0 50.8,-0.37 134.15,-37.81 0,0 -81.58,21.76 -133.3,26.93 l -249.81,97.73 c 0,0 19.58,9.71 54.69,58.8"
         style="fill:#f57e7b;fill-opacity:1;fill-rule:nonzero;stroke:none"
         id="path182"
         inkscape:connector-curvature="0" /><path
         d="m 0,0.871094 h 2501.67 v 10 H 0 Z"
         style="fill:#193351;fill-opacity:1;fill-rule:nonzero;stroke:none"
         id="path184"
         inkscape:connector-curvature="0" /><path
         d="m 757.559,2517.68 39.957,23.63 23.464,-39.67 -39.96,-23.64 z m -15.914,30.85 c -5.243,8.87 -8.375,17.25 -9.383,25.12 -1.012,7.87 -0.797,14.78 0.644,20.72 1.442,5.93 3.848,12.89 7.207,20.87 3.543,8.09 5.739,14.85 6.559,20.3 0.816,5.43 -0.363,10.85 -3.563,16.26 -8.566,14.48 -22.211,16.18 -40.929,5.11 -11.012,-6.51 -16.914,-13.72 -17.711,-21.62 -0.797,-7.9 0.742,-15.13 4.625,-21.69 1.254,-2.12 2.328,-3.84 3.226,-5.13 0.899,-1.3 1.457,-2.13 1.684,-2.52 l -40.25,-23.8 c -0.535,0.45 -1.52,1.57 -2.949,3.33 -1.426,1.76 -2.836,3.8 -4.2,6.11 -6.511,11.01 -9.671,22.63 -9.476,34.86 0.191,12.23 4.195,24.17 12.027,35.84 7.821,11.67 19.551,22.12 35.192,31.37 21.429,12.67 40.773,18.18 58.035,16.54 17.262,-1.65 30.855,-10.87 40.793,-27.66 5.14,-8.7 8.164,-17.01 9.074,-24.93 0.914,-7.94 0.559,-15.05 -1.062,-21.34 -1.61,-6.31 -4.219,-13.91 -7.813,-22.8 -4.156,-11.06 -6.73,-20.01 -7.762,-26.87 -1.019,-6.86 0.582,-13.87 4.809,-21.01 l 4.793,-8.11 -36.199,-21.4 -7.371,12.45"
         style="fill:#c6e8ef;fill-opacity:1;fill-rule:nonzero;stroke:none"
         id="path186"
         inkscape:connector-curvature="0" /><path
         d="m 892.309,2637.66 56.191,-0.06 -0.055,-55.77 -56.183,0.05 z m 2.48,41.94 c 0.012,12.48 1.922,23.13 5.734,31.94 3.801,8.83 8.282,15.88 13.457,21.18 5.153,5.28 11.942,11.04 20.372,17.28 8.683,6.23 15.136,11.93 19.355,17.08 4.207,5.15 6.316,11.53 6.32,19.13 0.024,20.36 -13.136,30.55 -39.457,30.57 -15.468,0.02 -26.066,-3.83 -31.769,-11.57 -5.711,-7.73 -8.574,-16.21 -8.574,-25.43 0,-3 0.05,-5.44 0.195,-7.34 0.125,-1.9 0.199,-3.12 0.199,-3.66 l -56.598,0.05 c -0.269,0.81 -0.605,2.58 -1.015,5.28 -0.403,2.72 -0.606,5.72 -0.598,8.96 0.016,15.49 3.891,29.53 11.645,42.15 7.742,12.61 19.285,22.57 34.636,29.89 15.336,7.31 34.004,10.96 55.993,10.94 30.136,-0.03 53.675,-6.22 70.625,-18.6 16.951,-12.36 25.421,-30.35 25.401,-53.96 -0.02,-12.22 -1.99,-22.74 -5.93,-31.55 -3.95,-8.83 -8.71,-16.02 -14.28,-21.57 -5.562,-5.56 -12.973,-11.87 -22.203,-18.91 -11.145,-8.95 -19.348,-16.68 -24.66,-23.19 -5.293,-6.51 -7.953,-14.79 -7.961,-24.83 v -11.4 l -50.903,0.05 0.016,17.51"
         style="fill:#c6e8ef;fill-opacity:1;fill-rule:nonzero;stroke:none"
         id="path188"
         inkscape:connector-curvature="0" /><path
         d="m 2365.35,2672.63 c -12,0 -23.08,5.46 -30.42,14.98 l -60.22,77.92 H 1947.7 c -115.45,0 -209.37,93.93 -209.37,209.39 v 201.69 c 0,115.46 93.92,209.39 209.37,209.39 h 444.63 c 115.45,0 209.37,-93.93 209.37,-209.39 v -201.69 c 0,-99.35 -69.86,-184.67 -166.88,-204.85 l -34.34,-74.94 c -6.37,-13.88 -19.84,-22.5 -35.13,-22.5"
         style="fill:#b6dae7;fill-opacity:1;fill-rule:nonzero;stroke:none"
         id="path190"
         inkscape:connector-curvature="0" /><path
         d="M 2392.33,3396 H 1947.7 c -120.96,0 -219.37,-98.41 -219.37,-219.39 v -201.69 c 0,-120.97 98.41,-219.39 219.37,-219.39 h 322.1 l 57.22,-74.04 c 9.24,-11.98 23.22,-18.86 38.33,-18.86 19.24,0 36.19,10.85 44.22,28.31 l 32.26,70.44 c 99.05,22.98 169.87,111.15 169.87,213.54 v 201.69 c 0,120.98 -98.4,219.39 -219.37,219.39 z m 0,-20 c 109.63,0 199.37,-89.72 199.37,-199.39 v -201.69 c 0,-97.54 -70.98,-179.08 -163.83,-196.01 l -36.48,-79.62 c -5.01,-10.9 -15.49,-16.66 -26.04,-16.66 -8.33,0 -16.72,3.59 -22.5,11.09 l -63.23,81.81 H 1947.7 c -109.63,0 -199.37,89.74 -199.37,199.39 v 201.69 c 0,109.67 89.74,199.39 199.37,199.39 h 444.63"
         style="fill:#ffffff;fill-opacity:1;fill-rule:nonzero;stroke:none"
         id="path192"
         inkscape:connector-curvature="0" /><path
         d="m 855.531,2267.87 v -148.28 c 0,-71.7 52.188,-131.66 120.453,-144.1 l 26.816,-58.54 c 6.59,-14.33 26.06,-16.59 35.69,-4.1 l 46.48,60.16 H 1329 c 80.6,0 146.58,65.97 146.58,146.58 v 148.28 c 0,80.64 -65.98,146.6 -146.58,146.6 h -326.89 c -80.594,0 -146.579,-65.96 -146.579,-146.6"
         style="fill:#b6dae7;fill-opacity:1;fill-rule:nonzero;stroke:none"
         id="path194"
         inkscape:connector-curvature="0" /><path
         d="m 1093.61,2203.6 c -17.06,2.29 -30.63,11.31 -40.06,23.94 -9.41,12.62 -14.59,28.87 -14.59,45.32 0,13.49 3.47,27.1 10.85,39 8.24,13.28 22.36,20.28 36.78,20.28 7.69,0 15.45,-2 22.42,-6.11 10.44,-6.18 16.55,-15.54 21.44,-26.33 4.88,-10.76 8.42,-22.84 13.84,-33.9 4.55,-9.24 9.83,-18.61 16.9,-25.81 7.04,-7.2 16.09,-12.21 27.55,-12.18 1.72,0 3.5,0.11 5.33,0.34 14.64,1.83 27.32,8.73 39.61,15.88 12.3,7.16 24.24,14.59 37.24,17.98 5.35,1.41 10.4,2.05 15.14,2.05 17.81,-0.02 31.49,-9.09 41.01,-22.89 9.5,-13.78 14.56,-32.27 14.56,-50.32 0,-6.8 -0.72,-13.54 -2.16,-19.93 -3.42,-15.12 -10.31,-31.51 -19.66,-43.93 -9.37,-12.47 -20.99,-20.75 -33.83,-20.73 -8.52,0.01 -17.9,3.56 -28.11,12.52 -6.7,5.88 -12.9,12.84 -20.08,18.56 -7.16,5.71 -15.47,10.18 -26.09,10.63 l -2.12,0.04 c -25.02,-0.09 -48.49,-18.31 -67.16,-30.51 -13.14,-8.65 -29.91,-21.21 -47.86,-31.57 -17.94,-10.38 -37.03,-18.48 -54.42,-18.45 -11.6,0.02 -22.43,3.47 -32.24,12.26 -10.685,9.59 -15.38,22.11 -15.392,34.29 -0.004,10.76 3.707,21.19 10.192,28.84 6.51,7.66 15.66,12.57 26.97,12.59 4.89,0 10.21,-0.93 15.91,-3.03 25.95,-9.48 38.59,-33.08 59.22,-52.33 19.81,-18.34 41.08,-37.6 67.05,-48.05 10.99,-4.41 22,-6.68 32.57,-6.68 24.22,-0.05 46.07,12.09 59.01,36.65 12.29,23.22 13.42,45.29 15.59,69.69 2.09,23.2 7.5,38.58 19.36,58.97 10.99,18.87 22.15,41.17 22.18,64.16 0,6.01 -0.78,12.07 -2.54,18.08 -3.64,12.5 -12.02,21.78 -22.48,27.82 -10.46,6.04 -23.02,8.95 -35.42,8.96 -10.88,-0.01 -21.66,-2.24 -30.87,-6.71 -17.63,-8.6 -31.35,-25.79 -45.5,-41.04 -14.15,-15.33 -28.52,-28.52 -46.5,-30.3 -1.93,-0.2 -3.86,-0.29 -5.78,-0.29 -24.71,-0.13 -49.44,15.48 -76.34,15.61 -6.76,0 -13.65,-1.03 -20.64,-3.6 -10.63,-3.93 -20.37,-12.21 -27.55,-22.35 -7.167,-10.14 -11.799,-22.17 -11.811,-33.82 -0.074,-13.38 6.441,-26.31 21.831,-33.82 6.81,-3.35 13.95,-4.17 20.97,-4.17 7.37,0.01 14.68,0.88 21.63,0.88 4.49,0 8.81,-0.36 12.91,-1.48 8.08,-2.22 13.39,-7.32 17.77,-13.96 4.36,-6.62 7.6,-14.7 11.27,-22.25 21.34,-43.9 51.64,-77.94 104.56,-81.77 1.86,-0.14 3.73,-0.21 5.59,-0.21 18.87,0.01 37.73,6.84 51.99,18.52 14.25,11.66 23.93,28.35 23.92,47.84 0,4.18 -0.44,8.47 -1.37,12.86 -2.25,10.46 -9.47,20.78 -15.95,31.14 -6.53,10.32 -12.21,20.59 -12.16,29.87 0.01,3.83 0.9,7.52 3.1,11.27 2.92,4.96 7.5,8.13 12.83,11.03 5.32,2.9 11.3,5.44 16.54,9.44 12.87,9.87 21.42,23.98 23.52,40.17 0.37,2.85 0.55,5.71 0.55,8.55 -0.07,37.36 -31,71.63 -67.85,71.73 -6.6,0 -13.38,-1.12 -20.15,-3.52 -15.74,-5.59 -26.64,-15.41 -35.04,-27.13 -8.42,-11.73 -14.46,-25.35 -20.79,-38.92 -8.35,-18.09 -17.56,-40.7 -36.11,-47.78 -3.72,-1.45 -7.46,-2.05 -11.28,-2.05 -11.26,-0.04 -23.17,5.37 -34.77,9.27 -12.42,4.14 -26.39,7.76 -40.28,7.76 -9.58,0.01 -19.14,-1.73 -27.99,-6.29 -20.36,-10.45 -29.663,-30.59 -29.636,-50.33 0.008,-14.06 4.633,-28.04 13.376,-38.63 8.72,-10.58 21.69,-17.69 37.85,-17.68 2.08,0 4.2,0.12 6.38,0.36 31.55,3.53 57.62,27.42 82.35,43.17 23.84,15.27 50.3,26.96 78.5,28.4 1.35,0.07 2.73,0.1 4.11,0.1 16.81,0.01 35.77,-5.12 50.31,-14.84 14.56,-9.75 24.62,-23.77 24.63,-41.99 0,-2.1 -0.13,-4.25 -0.41,-6.47 -2.49,-19.6 -11.7,-33.05 -24.64,-41.86 -12.94,-8.8 -29.76,-12.83 -47.13,-12.83 -24.25,-0.02 -49.5,7.88 -66.41,20.82 -32.24,24.63 -53.95,58.87 -53.95,97.81 0,8.1 0.94,16.41 2.93,24.91 4.58,19.57 15.82,33.73 30.64,43.15 14.82,9.41 33.26,13.98 51.91,13.97 6.27,0.01 12.55,-0.51 18.73,-1.52 27.4,-4.45 50.67,-29.7 50.6,-57.99 0,-1.35 -0.05,-2.71 -0.16,-4.07 -0.92,-11.98 -6.63,-25.5 -15.39,-35.84 -8.77,-10.37 -20.43,-17.48 -33.22,-17.46 -2.07,0 -4.18,0.18 -6.32,0.57 -17,3.07 -26.13,18.13 -26.18,33.82 0,10.43 4.12,20.86 12.63,27.81 7.79,6.36 16.51,8.72 25.94,8.73 21.04,0.06 45.07,-12.25 64.27,-18.27 8.71,-2.7 17.28,-4.65 25.76,-4.66 10.07,-0.01 20.02,2.84 29.32,10.31 12.71,10.2 19.5,26.68 19.51,42.91 0,5.83 -0.88,11.63 -2.71,17.12 -13.76,41.4 -52.3,61.07 -91.43,61.02 -13.32,0 -26.74,-2.25 -39.39,-6.68 -28.63,-10.02 -62.83,-25.73 -91.73,-47.2 -28.87,-21.47 -52.55,-48.77 -59.58,-82.11 -0.93,-4.41 -1.39,-8.98 -1.39,-13.57 0.01,-17.85 6.94,-36.25 20.99,-47.92 14.16,-11.66 33.1,-12.94 50.69,-12.96 5.73,0 11.33,0.15 16.6,0.16 h 0.01 0.12 c 12.59,0.01 29.53,-3.62 43.02,-10.11 6.76,-3.24 12.64,-7.2 16.73,-11.62 4.1,-4.45 6.39,-9.24 6.39,-14.46 0.01,-6.6 -3.72,-14.49 -13.84,-23.51 -27.32,-24.38 -72.59,-36.79 -115.03,-36.76 -22.22,0 -43.65,3.38 -61.27,10.05 -39.401,14.84 -60.166,58.16 -60.162,100.75 -0.004,21.99 5.55,43.66 16.726,60.85 18.646,28.78 53.726,50.61 86.976,50.55 19.55,-0.03 38.46,-7.35 53.74,-25.21 9.98,-11.69 15.38,-26.63 15.37,-40.53 0,-10.16 -2.85,-19.71 -8.74,-27.2 -5.9,-7.48 -14.84,-13.02 -27.55,-15.05 -2.63,-0.42 -5.22,-0.62 -7.77,-0.62 -17.96,-0.01 -34.09,10.01 -46.38,24.51 -12.28,14.48 -20.55,33.35 -22.77,50.21 -0.4,3.08 -0.6,6.14 -0.6,9.17 -0.08,36.52 28.89,69.33 61.39,84.2 13.17,6.05 26.59,9.86 40.32,9.85 5.84,0 11.75,-0.68 17.74,-2.19 16.01,-4.07 22.65,-8.64 27.76,-15.25 5.13,-6.66 8.69,-16.06 17.12,-29.06 l 4.19,2.73 c -8.19,12.57 -11.57,21.77 -17.34,29.36 -5.8,7.64 -14.03,12.97 -30.51,17.07 -6.39,1.61 -12.72,2.34 -18.96,2.34 -14.66,0 -28.8,-4.06 -42.41,-10.3 -33.83,-15.56 -64.22,-49.48 -64.3,-88.75 0,-3.25 0.21,-6.52 0.65,-9.82 2.38,-17.95 10.99,-37.52 23.91,-52.79 12.9,-15.24 30.28,-26.27 50.19,-26.28 2.81,0 5.66,0.22 8.55,0.68 13.76,2.17 24.01,8.38 30.7,16.9 6.69,8.51 9.81,19.21 9.81,30.29 -0.01,15.18 -5.82,31.16 -16.57,43.77 -16.15,18.96 -36.73,26.99 -57.54,26.97 -35.43,-0.06 -71.566,-22.72 -91.171,-52.83 -11.801,-18.17 -17.531,-40.75 -17.531,-63.57 0,-44.05 21.406,-89.48 63.402,-105.43 18.34,-6.93 40.3,-10.37 63.03,-10.37 43.38,0.03 89.58,12.47 118.35,38.03 10.7,9.51 15.51,18.65 15.52,27.24 0.01,6.76 -3.03,12.8 -7.72,17.85 -14.14,15.09 -43.19,23.24 -63.42,23.34 h -0.14 0.01 c -5.36,-0.01 -10.96,-0.16 -16.6,-0.16 -17.4,-0.02 -35.07,1.47 -47.5,11.81 -12.66,10.46 -19.19,27.48 -19.18,44.07 0,4.26 0.43,8.48 1.28,12.55 6.63,31.58 29.34,58.06 57.67,79.12 28.32,21.05 62.13,36.61 90.4,46.5 12.11,4.23 24.99,6.39 37.74,6.39 37.6,-0.05 73.71,-18.6 86.69,-57.6 1.64,-4.94 2.45,-10.22 2.45,-15.54 0.01,-14.86 -6.31,-29.97 -17.64,-39.01 -8.46,-6.75 -17.03,-9.19 -26.19,-9.2 -7.7,-0.01 -15.81,1.79 -24.28,4.42 -18.58,5.72 -42.89,18.44 -65.75,18.5 -10.26,0.02 -20.34,-2.67 -29.11,-9.86 -9.82,-8.03 -14.47,-19.97 -14.46,-31.68 -0.06,-17.51 10.52,-35.15 30.29,-38.74 2.44,-0.44 4.84,-0.65 7.21,-0.65 14.72,0.01 27.63,8.1 37.04,19.23 9.42,11.17 15.51,25.45 16.56,38.68 0.12,1.49 0.17,2.98 0.17,4.46 -0.06,31.06 -24.98,57.99 -54.79,62.92 -6.45,1.06 -13,1.59 -19.54,1.59 -19.46,0 -38.8,-4.74 -54.58,-14.75 -15.79,-10 -27.99,-25.37 -32.84,-46.24 -2.07,-8.85 -3.06,-17.55 -3.06,-26.04 0.01,-40.89 22.8,-76.51 55.91,-101.79 18.04,-13.74 44.13,-21.82 69.45,-21.84 18.13,0.01 35.9,4.17 49.94,13.69 14.04,9.5 24.2,24.49 26.79,45.38 0.31,2.42 0.45,4.78 0.45,7.09 0.02,20.2 -11.35,35.84 -26.85,46.15 -15.54,10.35 -35.29,15.67 -53.09,15.68 -1.47,0 -2.92,-0.03 -4.37,-0.11 -29.43,-1.51 -56.67,-13.65 -80.93,-29.17 -25.2,-16.21 -50.91,-39.3 -80.21,-42.42 -1.99,-0.22 -3.94,-0.33 -5.83,-0.33 -14.67,0.02 -26.06,6.31 -34,15.87 -7.91,9.56 -12.23,22.48 -12.226,35.44 0.032,18.27 8.436,36.37 26.926,45.89 8,4.11 16.72,5.73 25.7,5.73 13.01,0.01 26.52,-3.44 38.7,-7.5 11.25,-3.72 23.54,-9.49 36.35,-9.53 4.34,0 8.74,0.69 13.09,2.39 21.34,8.46 30.47,32.6 38.83,50.33 6.35,13.62 12.31,26.97 20.32,38.11 8.03,11.15 17.99,20.11 32.66,25.33 6.24,2.22 12.43,3.24 18.47,3.24 16.81,0.01 32.52,-7.93 44.06,-20.31 11.53,-12.37 18.79,-29.12 18.79,-46.42 0,-2.63 -0.17,-5.27 -0.51,-7.91 -1.93,-14.82 -9.7,-27.7 -21.61,-36.84 -4.54,-3.51 -10.28,-5.99 -15.87,-9.02 -5.58,-3.03 -11.11,-6.71 -14.76,-12.89 -2.65,-4.48 -3.8,-9.17 -3.79,-13.8 0.05,-11.28 6.4,-22.08 12.93,-32.53 6.58,-10.42 13.44,-20.59 15.29,-29.51 0.86,-4.06 1.26,-8.01 1.26,-11.83 0,-17.79 -8.77,-33.03 -22.09,-43.98 -13.31,-10.92 -31.16,-17.38 -48.82,-17.38 -1.74,0 -3.49,0.07 -5.23,0.2 -50.67,3.76 -79.22,35.7 -100.42,78.97 -3.58,7.31 -6.86,15.59 -11.59,22.81 -4.71,7.21 -11.1,13.44 -20.64,16.03 -4.7,1.29 -9.47,1.66 -14.22,1.66 -7.35,-0.01 -14.66,-0.88 -21.63,-0.88 -6.66,0 -12.93,0.78 -18.76,3.66 -13.81,6.88 -18.96,17.49 -19.04,29.33 -0.01,10.3 4.2,21.5 10.89,30.94 6.68,9.45 15.8,17.09 25.19,20.54 6.4,2.35 12.67,3.29 18.92,3.29 24.93,0.13 49.64,-15.48 76.34,-15.61 2.08,0 4.18,0.1 6.29,0.31 20.25,2.11 35.39,16.5 49.66,31.88 14.26,15.46 27.83,32.13 44.02,39.94 8.4,4.09 18.49,6.21 28.68,6.21 11.62,0 23.37,-2.76 32.92,-8.29 9.56,-5.55 16.92,-13.76 20.19,-24.9 1.61,-5.52 2.33,-11.08 2.33,-16.67 0.03,-21.32 -10.6,-43.01 -21.5,-61.65 -12.11,-20.71 -17.92,-37.25 -20.02,-61.03 -2.17,-24.59 -3.32,-45.7 -15.03,-67.81 -12.26,-23.05 -32.02,-33.93 -54.59,-33.98 -9.85,0 -20.24,2.11 -30.7,6.32 -24.86,9.97 -45.75,28.74 -65.52,47.08 -19.89,18.31 -32.84,42.91 -60.89,53.35 -6.2,2.28 -12.11,3.34 -17.64,3.34 -12.81,0.01 -23.48,-5.71 -30.783,-14.36 -7.313,-8.64 -11.375,-20.17 -11.379,-32.07 -0.008,-13.45 5.262,-27.45 17.052,-38.01 10.7,-9.63 22.98,-13.56 35.58,-13.54 18.93,0.02 38.63,8.57 56.92,19.12 18.27,10.56 35.17,23.21 48.1,31.72 18.83,12.46 41.92,29.79 64.42,29.69 l 1.91,-0.04 c 9.29,-0.41 16.44,-4.2 23.19,-9.54 6.73,-5.34 12.89,-12.24 19.89,-18.41 10.83,-9.53 21.44,-13.76 31.41,-13.76 15.13,0.03 27.98,9.61 37.83,22.73 9.88,13.16 16.96,30.07 20.53,45.83 1.54,6.78 2.29,13.88 2.29,21.03 -0.01,18.97 -5.26,38.33 -15.44,53.16 -10.14,14.8 -25.5,25.08 -45.13,25.06 -5.2,0 -10.67,-0.72 -16.41,-2.22 -13.99,-3.68 -26.28,-11.41 -38.48,-18.5 -12.21,-7.12 -24.3,-13.58 -37.72,-15.24 -1.63,-0.21 -3.2,-0.3 -4.71,-0.3 -9.98,0.02 -17.53,4.16 -23.99,10.68 -6.42,6.52 -11.52,15.45 -15.97,24.51 -5.18,10.53 -8.71,22.56 -13.77,33.76 -5.06,11.19 -11.77,21.67 -23.46,28.57 -7.76,4.59 -16.4,6.82 -24.96,6.82 -16.02,0 -31.83,-7.83 -41.02,-22.65 -7.92,-12.76 -11.61,-27.3 -11.61,-41.64 0,-17.49 5.47,-34.74 15.58,-48.31 10.1,-13.57 24.94,-23.45 43.41,-25.9 l 0.66,4.95"
         style="fill:#122235;fill-opacity:1;fill-rule:nonzero;stroke:none"
         id="path196"
         inkscape:connector-curvature="0" /><path
         d="m 2017.35,3168.97 c 10.2,13.47 15.16,24.38 20.97,34.14 5.82,9.77 12.43,18.5 26.39,28.45 35.75,25.46 82.46,44.94 127,44.92 3.16,0 6.3,-0.1 9.43,-0.3 46.39,-2.93 87.66,-30.19 117.36,-68 29.7,-37.78 47.7,-86.04 47.69,-130.32 0,-3.06 -0.09,-6.1 -0.26,-9.12 -5.24,-92.99 -88.8,-182.74 -182.56,-192.32 -4.75,-0.49 -9.43,-0.73 -14.02,-0.73 -43.23,0.01 -79.38,21.11 -107.23,52.25 -27.82,31.12 -47.17,72.24 -56.42,111.65 -3.81,16.2 -5.67,32.27 -5.67,47.92 0.06,78.99 47.06,147.46 129.36,170.47 19.04,5.32 38.86,7.93 58.68,7.93 76.36,0 152.52,-38.73 185.07,-110.11 11.66,-25.55 16.9,-50.9 16.91,-75.35 0,-56.89 -28.41,-109.12 -71.02,-147.17 -42.59,-38.04 -99.31,-61.78 -155.44,-61.77 -46.42,0.01 -92.42,16.15 -130.14,53.86 -38.13,38.13 -57,93.36 -57,148.72 0,48.09 14.24,96.17 42.18,133.04 41.14,54.32 109.6,84.75 177.68,84.75 33.29,0 66.46,-7.27 96.3,-22.5 60.78,-31 98.69,-98.12 98.67,-164.87 -0.01,-29.46 -7.37,-58.82 -23.33,-85.03 -43.42,-71.39 -136.6,-139.62 -225.25,-139.51 -28.1,0 -55.75,6.78 -81.42,22.4 -52.95,32.2 -78.64,92.11 -78.64,152.56 -0.01,45.61 14.66,91.38 43.04,125.41 37.78,45.33 99.24,70.09 159.96,70.08 49.22,0 97.84,-16.24 133.02,-50.61 30.97,-30.26 44.91,-70.92 44.91,-112.61 0.03,-60.95 -29.95,-123.87 -79.63,-158.34 -37.84,-26.29 -83.54,-41.23 -127.34,-41.22 -56.04,0.04 -108.79,24.25 -139.06,80.4 -16.72,31.07 -24.99,66.25 -24.99,101.13 0.03,76.48 39.63,151.17 116.3,178.41 20.59,7.31 42.54,10.85 64.55,10.85 41.82,0 83.86,-12.77 117.25,-36.42 33.39,-23.67 58.13,-58.12 65.68,-101.72 1.58,-9.13 2.34,-18.28 2.34,-27.38 0.14,-99.28 -90.89,-193.39 -187.38,-208.54 -7.73,-1.22 -15.19,-1.8 -22.39,-1.8 -46.22,0.02 -81.75,23.97 -106.03,58.96 -24.24,34.98 -36.95,80.98 -36.94,124.24 0,3.7 0.1,7.39 0.28,11.04 1.44,28.28 0.9,50.71 4.73,70.55 3.85,19.86 11.86,37.23 30.79,56.18 l -3.53,3.54 c -19.55,-19.5 -28.23,-38.14 -32.17,-58.77 -3.96,-20.63 -3.37,-43.17 -4.81,-71.25 -0.19,-3.74 -0.29,-7.51 -0.29,-11.29 0.01,-44.23 12.91,-91.08 37.83,-127.08 24.88,-35.99 62.08,-61.15 110.14,-61.13 7.47,0 15.2,0.61 23.17,1.87 98.96,15.74 191.46,111.13 191.6,213.48 0,9.38 -0.78,18.81 -2.41,28.23 -7.78,45.01 -33.42,80.66 -67.72,104.95 -34.32,24.3 -77.31,37.34 -120.14,37.34 -22.55,0 -45.05,-3.62 -66.22,-11.14 -79.04,-28.1 -119.66,-105.02 -119.63,-183.12 0,-35.67 8.44,-71.65 25.59,-103.5 31.13,-57.89 86.03,-83.08 143.46,-83.03 44.93,0 91.53,15.27 130.19,42.11 51.22,35.62 81.76,99.89 81.78,162.45 0.01,42.78 -14.35,84.86 -46.42,116.19 -36.29,35.45 -86.22,52.03 -136.51,52.03 -62.05,-0.01 -124.84,-25.2 -163.8,-71.88 -29.24,-35.09 -44.2,-81.95 -44.2,-128.61 -0.01,-61.79 26.28,-123.49 81.04,-156.83 26.49,-16.12 55.12,-23.14 84.02,-23.13 91.22,0.11 185.14,69.21 229.52,141.91 16.48,27.05 24.06,57.34 24.06,87.63 -0.03,68.6 -38.78,137.31 -101.4,169.32 -30.6,15.62 -64.56,23.05 -98.57,23.05 -69.54,-0.02 -139.42,-31 -181.66,-86.73 -28.7,-37.9 -43.19,-87 -43.2,-136.06 0.01,-56.46 19.2,-112.97 58.46,-152.25 38.66,-38.69 86.11,-55.35 133.68,-55.33 114.99,0.08 231.3,96.72 231.46,213.94 0,25.17 -5.41,51.26 -17.36,77.43 -33.58,73.51 -111.66,113.03 -189.62,113.03 -20.26,0 -40.52,-2.67 -60.03,-8.11 -84.42,-23.51 -133.06,-94.31 -133.01,-175.29 0,-16.05 1.9,-32.5 5.8,-49.07 9.44,-40.14 29.06,-81.93 57.57,-113.83 28.47,-31.89 66.02,-53.92 110.95,-53.92 4.77,0 9.61,0.25 14.53,0.76 96.54,10.08 181.44,101.32 187.04,197 0.18,3.12 0.27,6.26 0.27,9.41 -0.02,45.62 -18.41,94.77 -48.76,133.41 -30.34,38.62 -72.76,66.83 -120.97,69.9 -3.24,0.21 -6.49,0.31 -9.75,0.31 -46,-0.02 -93.46,-19.93 -129.9,-45.85 -14.5,-10.29 -21.8,-19.86 -27.79,-29.96 -6.01,-10.12 -10.77,-20.63 -20.65,-33.68 l 3.98,-3.02"
         style="fill:#122235;fill-opacity:1;fill-rule:nonzero;stroke:none"
         id="path198"
         inkscape:connector-curvature="0" /><path
         d="m 2012.93,3161.65 c -50.88,-76.17 -62.87,-173.35 -62.88,-269.07 0,-57.98 4.42,-115.46 7.38,-167.46 1.98,-34.9 6.2,-86.47 6.2,-141.61 0.01,-64.49 -5.81,-133.85 -27.5,-186.73 -10.84,-26.44 -25.61,-48.72 -45.48,-64.37 -19.88,-15.64 -44.87,-24.76 -76.64,-24.78 -1.84,0 -3.7,0.03 -5.58,0.09 -23.17,0.78 -41.34,11.85 -53.92,27.91 -12.57,16.05 -19.37,37.12 -19.37,57.42 0,16.97 4.74,33.35 14.6,45.9 9.88,12.55 24.83,21.43 45.93,23.46 1.81,0.17 3.62,0.25 5.43,0.25 19.43,0.02 38.91,-9.78 55.32,-24.01 16.4,-14.21 29.66,-32.8 36.73,-49.76 6.48,-15.53 9.88,-31.97 9.88,-48.26 0,-22.39 -6.41,-44.47 -20.06,-63.54 -41.3,-57.85 -122.91,-84.24 -197.95,-84.21 -25.06,0 -49.37,2.94 -71.14,8.57 -86.03,22.19 -155.15,79.77 -237.98,111.56 -35.44,13.56 -84.03,31.75 -123.46,31.78 -1.4,0 -2.8,-0.02 -4.18,-0.07 l 0.17,-5 c 1.32,0.05 2.66,0.07 4.01,0.07 37.96,0.04 86.34,-17.88 121.68,-31.44 81.82,-31.3 151.09,-89.08 238.51,-111.75 22.23,-5.74 46.94,-8.72 72.39,-8.72 76.11,0.03 159.16,26.52 202.02,86.3 14.29,19.96 20.99,43.11 20.99,66.45 0,16.98 -3.54,34.08 -10.26,50.19 -7.43,17.78 -21.06,36.84 -38.07,51.6 -17.01,14.74 -37.46,25.22 -58.6,25.24 -1.97,0 -3.94,-0.09 -5.91,-0.28 -22.27,-2.1 -38.7,-11.71 -49.38,-25.34 -10.69,-13.62 -15.67,-31.11 -15.67,-48.99 0.01,-21.4 7.11,-43.46 20.43,-60.5 13.29,-17.03 32.97,-29.02 57.69,-29.82 1.94,-0.07 3.85,-0.1 5.75,-0.1 32.72,-0.01 59,9.5 79.73,25.85 31.13,24.54 49.76,64.11 60.7,109.55 10.94,45.45 14.18,96.88 14.19,145.48 0,55.38 -4.23,107.09 -6.21,141.9 -2.97,52.06 -7.37,109.44 -7.37,167.17 -0.01,95.33 12.05,191.53 62.04,266.3 l -4.16,2.77"
         style="fill:#122235;fill-opacity:1;fill-rule:nonzero;stroke:none"
         id="path200"
         inkscape:connector-curvature="0" /><path
         d="m 4008.28,108.262 c -31.69,33.066 -64.56,87.347 -94.16,132.277 -61.55,93.34 -113.45,195.91 -153.25,300.449 -28.56,74.973 -47.92,168.114 -33.77,248.551 6.8,38.652 27.58,95.5 68.04,110.723 98.46,37.047 176.29,-166.762 193.27,-231.321 46.04,-175.16 51.97,-380.902 19.87,-560.679"
         style="fill:#36bbab;fill-opacity:1;fill-rule:nonzero;stroke:none"
         id="path202"
         inkscape:connector-curvature="0" /><path
         d="m 3774.81,505.68 c -1.36,0.808 -2.09,1.211 -2.15,1.25 l 0.93,1.73 c 0.41,-0.988 0.81,-1.988 1.22,-2.98"
         style="fill:#8e9191;fill-opacity:1;fill-rule:nonzero;stroke:none"
         id="path204"
         inkscape:connector-curvature="0" /><path
         d="m 3723.58,700.879 c -0.76,0.519 -1.18,0.793 -1.23,0.82 l 1.05,1.653 c 0.06,-0.821 0.12,-1.641 0.18,-2.473"
         style="fill:#ffffff;fill-opacity:1;fill-rule:nonzero;stroke:none"
         id="path206"
         inkscape:connector-curvature="0" /><path
         d="m 3738.83,832.191 0.15,0.418 h 0.01 c -0.05,-0.14 -0.11,-0.289 -0.16,-0.418"
         style="fill:#ffffff;fill-opacity:1;fill-rule:nonzero;stroke:none"
         id="path208"
         inkscape:connector-curvature="0" /><path
         d="m 3901.78,852.641 c -0.11,0.129 -0.21,0.25 -0.32,0.371 0.05,0.027 0.09,0.047 0.1,0.058 l 0.22,-0.429"
         style="fill:#8e9191;fill-opacity:1;fill-rule:nonzero;stroke:none"
         id="path210"
         inkscape:connector-curvature="0" /><path
         d="m 3793.24,899.512 c -0.03,0.277 -0.05,0.457 -0.06,0.527 l 1.98,0.231 c 0,0 -0.01,0 -0.02,-0.008 -0.64,-0.231 -1.27,-0.492 -1.9,-0.75"
         style="fill:#ffffff;fill-opacity:1;fill-rule:nonzero;stroke:none"
         id="path212"
         inkscape:connector-curvature="0" /><path
         d="m 3962.34,267.289 c -0.86,1.492 -1.73,2.981 -2.6,4.461 0.04,0.121 0.08,0.23 0.12,0.352 l 2.52,-4.68 c -0.01,-0.043 -0.02,-0.09 -0.04,-0.133 m -39.75,62.742 c -2.56,3.731 -5.14,7.438 -7.72,11.078 -4.36,13.641 -8.58,27.289 -12.67,40.903 l -0.05,0.047 c -65.57,83.839 -116.48,117.082 -127.34,123.621 -0.41,0.992 -0.81,1.992 -1.22,2.98 l 0.94,1.731 c 0.53,-0.282 53.45,-29.352 124.65,-118.243 -17.43,58.934 -32.42,117.192 -45.14,172.071 l -0.15,0.222 c -58.03,85.981 -120.78,130.028 -130.31,136.438 -0.06,0.832 -0.12,1.652 -0.18,2.473 l 1.07,1.668 c 0.66,-0.43 65.6,-42.321 127.17,-130.379 -16.54,72.308 -29.13,138.32 -38.32,191.711 -38.66,48.828 -75.32,62.418 -75.67,62.539 l 1.18,3.3 c 0.05,0.129 0.11,0.278 0.16,0.418 1.61,-0.578 35.38,-13.199 72.98,-58.41 -12.26,72.25 -18.05,119.692 -18.73,125.313 0.63,0.258 1.26,0.519 1.9,0.75 0.01,0.008 0.02,0.008 0.02,0.008 l 1.94,0.23 c 0.18,-1.5 5.97,-50.449 18.99,-126.898 12.84,22.597 32.64,41.578 49.95,55.328 -0.04,-1.719 -0.08,-3.418 -0.12,-5.129 -17.47,-14.199 -36.96,-33.602 -48.76,-56.492 9.2,-53.5 21.84,-119.719 38.42,-192.239 3.87,14.192 11.55,28.25 21.24,41.602 0.24,-2 0.49,-4 0.74,-5.992 -10.05,-14.45 -17.47,-29.578 -19.91,-44.578 12.91,-55.75 28.15,-114.993 45.93,-174.911 2.45,9.559 5.63,18.68 9.35,27.36 0.53,-2.172 1.05,-4.301 1.57,-6.43 -3.58,-9.031 -6.54,-18.519 -8.68,-28.473 5.36,-17.847 10.95,-35.75 16.77,-53.617"
         style="fill:#09ac92;fill-opacity:1;fill-rule:nonzero;stroke:none"
         id="path214"
         inkscape:connector-curvature="0" /><path
         d="M 4041.3,8.80859 C 3996.07,1.64063 3932.76,5.62891 3878.96,6.94141 3767.17,9.64063 3653.33,25.5703 3544.76,52.5195 3466.9,71.8398 3379.35,109.102 3321.36,166.59 c -27.85,27.629 -62.67,77.148 -52.1,119.058 25.75,101.993 237.55,49.622 300.25,26.731 170.1,-62.117 342.46,-174.649 471.79,-303.57041"
         style="fill:#36bbab;fill-opacity:1;fill-rule:nonzero;stroke:none"
         id="path216"
         inkscape:connector-curvature="0" /><path
         d="m 4040.99,6.87109 c -2.09,0.32032 -4.19,0.64844 -6.28,0.98829 2.23,0.28906 4.43,0.60937 6.58,0.94921 l -0.3,-1.9375 m 0.31,1.9375 c -0.79,0.79297 -1.57,1.56251 -2.36,2.35161 0.88,-0.1407 1.77,-0.2813 2.66,-0.4219 l -0.3,-1.91799 m -274.4,3.35939 -0.7,1.8516 c 1.6,-0.1719 3.2,-0.3204 4.8,-0.4805 -2.69,-0.8399 -4.03,-1.3399 -4.1,-1.3711 m -187.44,30.582 -0.9,1.7696 c 1.06,-0.2422 2.11,-0.4805 3.17,-0.711 -1.46,-0.6601 -2.21,-1.0312 -2.27,-1.0586 m -188.65,69.8083 -0.76,1.809 c 0.71,-0.418 1.42,-0.84 2.13,-1.258 -0.86,-0.332 -1.32,-0.531 -1.37,-0.551 m -97.79,88.012 -0.24,0.34 c 0,0 0,0 0.01,0 0.07,-0.113 0.15,-0.231 0.23,-0.34 m -24.22,83.078 c -0.25,0.129 -0.41,0.211 -0.47,0.25 l 0.94,1.75 -0.01,-0.012 c -0.16,-0.668 -0.32,-1.328 -0.46,-1.988 m 99.9,62.09 c 0.02,0.211 0.03,0.332 0.04,0.352 l 2,-0.223 c -0.67,-0.039 -1.37,-0.078 -2.04,-0.129"
         style="fill:#8e9191;fill-opacity:1;fill-rule:nonzero;stroke:none"
         id="path218"
         inkscape:connector-curvature="0" /><path
         d="M 4034.71,7.85938 C 3992.51,14.6289 3949.58,23.6602 3906.69,34.3203 3826.14,29.0195 3783.64,17.5117 3771,13.5508 c -1.6,0.1601 -3.2,0.3086 -4.8,0.4805 l -0.7,1.8476 c 0.41,0.1602 39.29,14.6211 129,21.5195 -46.64,11.9219 -93.14,25.6719 -138.55,40.4922 l -0.07,-0.0195 c -106.19,-6.0313 -162.53,-28.8516 -174.15,-34.0508 -1.06,0.2305 -2.11,0.4688 -3.17,0.711 l -0.89,1.75 c 0.56,0.2695 54.62,27.1484 168.24,34.8984 -58.34,19.3083 -114.73,40.2503 -167.07,61.1013 l -0.26,0.008 c -2.67,0.031 -5.29,0.051 -7.92,0.051 -99.42,0 -168.05,-25.149 -178.48,-29.219 -0.71,0.418 -1.42,0.84 -2.13,1.258 l -0.77,1.84 c 0.73,0.281 72.19,29.73 179.62,30.043 -68.8,27.679 -130.21,54.988 -179.3,77.918 -62.15,-3.899 -94.2,-26.25 -94.53,-26.481 l -2.05,2.883 c -0.08,0.109 -0.16,0.227 -0.23,0.34 1.37,0.988 31,21.539 89.6,26.629 -66.33,31.14 -108.58,53.449 -113.59,56.109 0.14,0.66 0.3,1.32 0.46,1.988 l 0.01,0.012 0.92,1.719 c 1.32,-0.707 44.84,-23.867 115.05,-56.82 -22.74,47.48 -17.06,109.941 -16.54,115.191 0.67,0.051 1.37,0.09 2.04,0.129 l 1.93,-0.219 c -0.08,-0.699 -7.46,-69.121 18.34,-117.808 49.19,-22.954 110.79,-50.352 179.81,-78.102 -17.32,20.66 -26.98,51.578 -32.32,81.641 1.62,-1.2 3.25,-2.411 4.89,-3.61 5.97,-31.34 16.72,-62.859 35.97,-81.453 53.15,-21.207 110.5,-42.488 169.83,-62.078 -7.48,8.6719 -13.94,17.809 -19.49,27.18 2.23,-1.141 4.44,-2.27 6.68,-3.399 5.82,-9.1013 12.53,-17.9294 20.29,-26.2419 46.54,-15.1875 94.22,-29.2578 142.03,-41.3907 -1.7,1.5313 -3.36,3.1211 -4.98,4.75 2.7,-0.7773 5.41,-1.5468 8.12,-2.2968 1.82,-1.6211 3.68,-3.1797 5.6,-4.6602 44.08,-10.9414 88.17,-20.1914 131.5,-27.0312 0.79,-0.7891 1.57,-1.55864 2.36,-2.35161 h -0.01 c -2.15,-0.33984 -4.35,-0.66015 -6.58,-0.94921"
         style="fill:#09ac92;fill-opacity:1;fill-rule:nonzero;stroke:none"
         id="path220"
         inkscape:connector-curvature="0" /><path
         d="m 3492.55,333.789 c -28.32,6.051 -59.97,10.949 -90.39,12.211 0.57,0.012 1.14,0.012 1.72,0.012 32.97,0 80,-10.262 88.67,-12.223"
         style="fill:#d9dbd8;fill-opacity:1;fill-rule:nonzero;stroke:none"
         id="path222"
         inkscape:connector-curvature="0" /><path
         d="m 3982.04,25.5117 c -27.02,4.0899 -53.8,9.9883 -80.2,17.3399 -17.32,15.3984 -30.45,36.7695 -40.18,57.8864 17.46,-9.4294 35.02,-18.7575 52.71,-28.0271 13.67,-7.1601 36.65,-16.1523 59.98,-26 l 0.01,-0.0117 7.68,-21.1875 m -88.32,19.6367 c -54.75,15.9024 -107.72,37.9219 -157.34,62.8826 -17.33,27.149 -26.6,56.719 -31.5,82.239 49.67,-30.122 99.94,-58.711 151.13,-86.469 9.11,-20.7424 21.44,-42.1994 37.71,-58.6526 M 3729.7,111.43 c -70.67,36.14 -134.32,78.05 -186.31,116.351 -5.28,27.75 -6.82,55.367 -7.17,73.739 24.06,-17.61 47.98,-34.18 71.37,-49.649 27.34,-18.09 54.79,-35.551 82.41,-52.519 l 0.57,-2.832 c 1.03,0.199 2.06,0.402 3.08,0.601 2.24,-1.383 4.49,-2.75 6.74,-4.121 4.5,-25.012 13.1,-54.25 29.31,-81.57 M 3538.5,231.391 C 3454.27,293.949 3401.89,346 3401.89,346 c 0.09,0 0.18,0 0.27,0 30.42,-1.262 62.07,-6.16 90.39,-12.211 0.86,-0.199 1.34,-0.309 1.39,-0.32 12.72,-9.93 25.48,-19.59 38.2,-28.957 0.16,-17.543 1.37,-44.961 6.36,-73.121"
         style="fill:#28b6a1;fill-opacity:1;fill-rule:nonzero;stroke:none"
         id="path224"
         inkscape:connector-curvature="0" /><path
         d="m 3901.84,42.8516 c -2.71,0.75 -5.42,1.5195 -8.12,2.2968 -16.27,16.4532 -28.6,37.9102 -37.71,58.6526 1.89,-1.02 3.77,-2.039 5.65,-3.063 9.73,-21.1169 22.86,-42.488 40.18,-57.8864 m -165.46,65.1794 c -2.24,1.129 -4.45,2.258 -6.68,3.399 -16.21,27.32 -24.81,56.558 -29.31,81.57 1.5,-0.91 3,-1.82 4.49,-2.73 4.9,-25.52 14.17,-55.09 31.5,-82.239 m -192.99,119.75 c -1.64,1.199 -3.27,2.41 -4.89,3.61 -4.99,28.16 -6.2,55.578 -6.36,73.121 1.36,-1 2.72,-2 4.08,-2.992 0.35,-18.372 1.89,-45.989 7.17,-73.739"
         style="fill:#02a287;fill-opacity:1;fill-rule:nonzero;stroke:none"
         id="path226"
         inkscape:connector-curvature="0" /><path
         d="M 4048.89,4.32031 C 4030.35,28.8516 3946.55,55.8594 3914.37,72.7109 3808.67,128.109 3707.37,185.859 3607.59,251.871 3447.19,358 3260.97,516.16 3187.83,699.488 c -27.03,67.762 -51.5,191.391 29.62,233.512 60.6,31.461 140.24,-14.32 190.48,-48.691 132.09,-90.36 233.44,-219.547 328.15,-346.571 108.87,-145.976 204.72,-303.148 300.8,-458.5583 l 12.01,-74.85939"
         style="fill:#36bbab;fill-opacity:1;fill-rule:nonzero;stroke:none"
         id="path228"
         inkscape:connector-curvature="0" /><path
         d="m 3486.36,337.27 -0.79,2.789 c 0.93,-0.739 1.87,-1.477 2.8,-2.219 -0.67,-0.192 -1.34,-0.379 -2.01,-0.57 m 311.76,114.269 c -0.18,0.25 -0.37,0.52 -0.54,0.77 h 0.19 c 0.11,-0.25 0.23,-0.508 0.35,-0.77"
         style="fill:#8e9191;fill-opacity:1;fill-rule:nonzero;stroke:none"
         id="path230"
         inkscape:connector-curvature="0" /><path
         d="m 3801.87,446.129 c -1.25,1.812 -2.5,3.609 -3.75,5.41 -0.12,0.262 -0.24,0.52 -0.35,0.77 h 1.29 l 2.81,-6.18"
         style="fill:#09ac92;fill-opacity:1;fill-rule:nonzero;stroke:none"
         id="path232"
         inkscape:connector-curvature="0" /><path
         d="m 3289.15,529.09 -0.76,2.82 c 0.66,-0.828 1.32,-1.648 1.99,-2.48 -0.41,-0.11 -0.83,-0.231 -1.23,-0.34"
         style="fill:#8e9191;fill-opacity:1;fill-rule:nonzero;stroke:none"
         id="path234"
         inkscape:connector-curvature="0" /><path
         d="m 3659.95,637.141 c -0.79,1 -1.58,1.988 -2.38,2.988 l 2.84,-0.68 c -0.02,-0.078 -0.2,-0.847 -0.46,-2.308"
         style="fill:#040606;fill-opacity:1;fill-rule:nonzero;stroke:none"
         id="path236"
         inkscape:connector-curvature="0" /><path
         d="m 3177.85,727.352 -0.67,2.597 c 0.26,-0.847 0.53,-1.711 0.79,-2.558 -0.04,-0.012 -0.08,-0.02 -0.12,-0.039 m 310.72,94.168 c -0.82,0.718 -1.67,1.46 -2.5,2.179 l 2.81,-0.629 c -0.01,-0.082 -0.13,-0.601 -0.31,-1.55 m -294.99,94.011 c -0.15,0.207 -0.25,0.348 -0.28,0.41 l 2.31,1.579 c -0.69,-0.649 -1.37,-1.321 -2.03,-1.989 m 125.45,16.938 c -0.94,0.34 -1.89,0.672 -2.83,1 l 2.89,-0.77 c -0.01,-0.027 -0.03,-0.097 -0.06,-0.23"
         style="fill:#ffffff;fill-opacity:1;fill-rule:nonzero;stroke:none"
         id="path238"
         inkscape:connector-curvature="0" /><path
         d="m 3690.57,196.52 -0.57,2.832 c 1.22,-0.743 2.43,-1.493 3.65,-2.231 -1.02,-0.199 -2.05,-0.402 -3.08,-0.601"
         style="fill:#09896f;fill-opacity:1;fill-rule:nonzero;stroke:none"
         id="path240"
         inkscape:connector-curvature="0" /><path
         d="M 4031.17,42.3594 C 3970.35,93.5 3912.92,143.77 3858.82,192.762 c -8.43,5.828 -28.37,14.847 -70.99,14.847 -23.72,0 -54.48,-2.8 -94.18,-10.488 -1.22,0.738 -2.43,1.488 -3.65,2.231 l -0.57,2.878 c 41.66,8.25 73.89,11.27 98.77,11.27 25.66,0 43.5,-3.219 55.76,-7.219 -48.38,44.129 -94.09,87.188 -137,128.867 l -0.11,0.051 c -0.54,0.289 -37.37,19.449 -104.29,19.449 -31.58,0 -69.87,-4.269 -114.19,-16.808 -0.93,0.742 -1.87,1.48 -2.8,2.219 l -0.81,2.812 c 45.67,13.129 85.13,17.59 117.7,17.59 44.76,0 76.48,-8.441 93.29,-14.379 -59.76,58.316 -114.11,113.848 -163.1,165.77 l -0.45,0.257 c -0.71,0.43 -53.75,31.032 -140.17,31.032 -30.1,0 -64.25,-3.711 -101.65,-13.711 -0.67,0.832 -1.33,1.652 -1.99,2.48 l -0.76,2.82 c 38.38,10.379 73.43,14.231 104.32,14.231 62.48,0 107.94,-15.762 129.38,-25.102 -60.91,64.981 -113.23,123.993 -157.06,175.43 -2.96,1.121 -84.78,32.02 -150.54,32.02 -12.76,0 -24.91,-1.161 -35.76,-3.918 -0.26,0.847 -0.53,1.711 -0.79,2.558 L 3176.4,733 c 11.56,2.961 24.41,4.199 37.83,4.199 54.42,0 118.14,-20.398 142.4,-28.918 -104.61,123.391 -158.58,200.778 -163.05,207.25 0.66,0.668 1.34,1.34 2.03,1.989 l 2.5,1.71 c 1.16,-1.71 51.82,-75.191 153.09,-195.5 -59.49,124.879 -37.99,209.579 -37.75,210.481 l 2.75,-0.742 c 0.94,-0.328 1.89,-0.66 2.83,-1 -1.27,-5.219 -21.81,-96.52 48.29,-227.789 44.02,-51.7 96.66,-111.129 158.07,-176.621 -67.43,178.293 -42.47,295.101 -42.2,296.293 l 2.88,-0.653 c 0.83,-0.719 1.68,-1.461 2.5,-2.179 -2.75,-14.688 -21.32,-131.95 47.39,-304.688 49.61,-52.602 104.76,-108.941 165.45,-168.141 -67.73,199.2 -47.59,288.36 -46.7,292.129 l 2.86,-0.691 c 0.8,-1 1.59,-1.988 2.38,-2.988 -2.72,-15.563 -14.74,-110.102 50.73,-297.493 46.03,-44.707 95.26,-91.027 147.63,-138.546 -62.03,140.468 -62.44,250.089 -62.44,251.218 l 1.71,-0.011 c 0.17,-0.25 0.36,-0.52 0.54,-0.77 1.25,-1.801 2.5,-3.598 3.75,-5.41 l 0.02,-0.027 v 0 c 1.1,-25.801 9.13,-128.911 67.24,-254.782 50.03,-45.199 102.87,-91.4489 158.61,-138.4489 1.13,-3.5508 2.27,-7.0625 3.43,-10.5117"
         style="fill:#09ac92;fill-opacity:1;fill-rule:nonzero;stroke:none"
         id="path242"
         inkscape:connector-curvature="0" /><path
         d="m 4007.32,127.02 c -7.17,11.601 -14.34,23.21 -21.53,34.812 -10.42,23.906 -20.34,48.359 -29.76,73.129 0.55,10.82 2.85,21.687 6.31,32.328 0.6,-1.039 1.2,-2.07 1.8,-3.117 l 19.68,-36.492 c 0,-0.008 0,-0.008 0,-0.008 l 0.02,-0.043 c 7.6,-32.34 15.2,-66.93 23.48,-100.609 m -35.2,56.851 c -20.8,33.469 -41.74,66.91 -62.92,100.149 12.53,-13.61 27.01,-30.329 43.22,-50.661 6.34,-16.668 12.91,-33.187 19.7,-49.488 m -19.25,59.539 c -10.72,28.59 -20.81,57.57 -30.28,86.621 12.73,-18.511 25.26,-38.011 37.15,-58.281 -3.24,-9.289 -5.66,-18.801 -6.87,-28.34 m -4.87,1.719 c -19.49,23.922 -36.31,42.422 -50.01,56.41 -25.38,39.57 -51.16,78.852 -77.58,117.609 -7.71,11.551 -13.98,20.711 -18.34,26.704 -0.06,0.078 -0.12,0.179 -0.18,0.257 -0.17,3.911 -0.18,6.039 -0.18,6.2 h -2.65 l -24.24,53.363 c 0,0 71.28,-67.152 140.05,-164.563 10.28,-32.168 21.31,-64.308 33.13,-95.98"
         style="fill:#28b6a1;fill-opacity:1;fill-rule:nonzero;stroke:none"
         id="path244"
         inkscape:connector-curvature="0" /><path
         d="m 3985.79,161.832 c -4.55,7.348 -9.11,14.688 -13.67,22.039 -6.79,16.301 -13.36,32.82 -19.7,49.488 -16.21,20.332 -30.69,37.051 -43.22,50.661 -3.73,5.839 -7.46,11.691 -11.21,17.519 13.7,-13.988 30.52,-32.488 50.01,-56.41 -11.82,31.672 -22.85,63.812 -33.13,95.98 2.58,-3.64 5.16,-7.347 7.72,-11.078 9.47,-29.051 19.56,-58.031 30.28,-86.621 1.21,9.539 3.63,19.051 6.87,28.34 0.87,-1.48 1.74,-2.969 2.6,-4.461 -3.46,-10.641 -5.76,-21.508 -6.31,-32.328 9.42,-24.77 19.34,-49.223 29.76,-73.129"
         style="fill:#02a287;fill-opacity:1;fill-rule:nonzero;stroke:none"
         id="path246"
         inkscape:connector-curvature="0" /><path
         d="m 4007.6,125.891 c -47.88,76.25 -142.09,225.699 -187.19,293.257 26.42,-38.757 52.2,-78.039 77.58,-117.609 3.75,-5.828 7.48,-11.68 11.21,-17.519 21.18,-33.239 42.12,-66.68 62.92,-100.149 4.56,-7.351 9.12,-14.691 13.67,-22.039 7.19,-11.602 14.36,-23.211 21.53,-34.812 0.09,-0.379 0.18,-0.75 0.28,-1.129 m -205.53,319.961 c -0.06,0.078 -0.12,0.16 -0.18,0.25 0,0 0,0 0,0.007 0.06,-0.078 0.12,-0.179 0.18,-0.257"
         style="fill:#28b6a1;fill-opacity:1;fill-rule:nonzero;stroke:none"
         id="path248"
         inkscape:connector-curvature="0" /><path
         d="m 3801.89,446.109 c -0.01,0.012 -0.01,0.012 -0.02,0.02 l -2.81,6.18 h 2.65 c 0,-0.161 0.01,-2.289 0.18,-6.2"
         style="fill:#02a287;fill-opacity:1;fill-rule:nonzero;stroke:none"
         id="path250"
         inkscape:connector-curvature="0" /><path
         d="m 3801.89,446.102 v 0 l -0.02,0.027 c 0.01,-0.008 0.01,-0.008 0.02,-0.02 0,-0.007 0,-0.007 0,-0.019"
         style="fill:#02a287;fill-opacity:1;fill-rule:nonzero;stroke:none"
         id="path252"
         inkscape:connector-curvature="0" /><path
         d="m 3924.26,819.582 c -6.84,11.188 -14.1,21.898 -21.75,31.707 l -0.73,1.352 c 7.35,-8.301 15.22,-17.911 22.86,-28.5 -0.13,-1.52 -0.26,-3.051 -0.38,-4.559 m -23.02,33.309 c -0.72,0.918 -1.44,1.82 -2.17,2.718 v 0.071 c 0.79,-0.871 1.58,-1.758 2.39,-2.668 -0.05,-0.032 -0.13,-0.071 -0.22,-0.121"
         style="fill:#d9dbd8;fill-opacity:1;fill-rule:nonzero;stroke:none"
         id="path254"
         inkscape:connector-curvature="0" /><path
         d="m 3899.07,855.609 c -0.22,0.262 -0.45,0.539 -0.67,0.813 0.23,-0.25 0.45,-0.492 0.67,-0.742 v -0.071"
         style="fill:#162a43;fill-opacity:1;fill-rule:nonzero;stroke:none"
         id="path256"
         inkscape:connector-curvature="0" /><path
         d="m 3983.83,227.648 -0.01,0.032 c -6.25,12.371 -12.85,24.558 -19.68,36.492 l -1.76,3.25 c 2.22,6.797 4.92,13.5 7.94,20.019 3.7,-17.5 7.61,-34.91 11.73,-52.23 0.59,-2.512 1.19,-5.031 1.78,-7.563 m -23.97,44.454 -9.98,18.507 c 0,0 -16.79,46.153 -35.38,121.512 6.98,17.59 16.29,33.399 26.46,47.289 2.65,-20.211 5.57,-40.359 8.76,-60.461 l -2.36,-1.699 c 0.06,-0.09 1.28,-1.82 3.49,-5.328 5.33,-32.942 11.38,-65.711 18.15,-98.211 -3.44,-7 -6.55,-14.242 -9.14,-21.609 m -46.93,146.449 c -12.73,52.48 -26.1,118.308 -35.37,192.129 12.67,18.211 29.51,35.34 45.8,49.75 2.88,-65.11 8.5,-130.481 16.88,-195.461 -10.31,-13.61 -19.89,-29.117 -27.31,-46.418 m -36.11,198.121 c -7.83,64.297 -12.49,134.519 -10.9,207.129 19.89,16.168 37.18,25.597 37.5,25.769 l -0.91,1.719 c 7.65,-9.809 14.91,-20.519 21.75,-31.707 -2.47,-30.613 -3.36,-60.793 -2.95,-89.742 0.25,-17.078 0.69,-34.211 1.32,-51.352 l -2.17,-1.929 c 0.07,-0.071 0.88,-1 2.34,-2.809 0.11,-2.668 0.22,-5.328 0.33,-8.012 -16.16,-14.039 -33.11,-30.898 -46.31,-49.066 m -10.78,212.258 c 0.49,18.769 1.4,37.711 2.78,56.742 0,0 13.05,-11.031 29.58,-29.25 0.22,-0.274 0.45,-0.551 0.67,-0.813 0.73,-0.898 1.45,-1.8 2.17,-2.718 -2.35,-1.313 -17.47,-9.891 -35.2,-23.961"
         style="fill:#28b6a1;fill-opacity:1;fill-rule:nonzero;stroke:none"
         id="path258"
         inkscape:connector-curvature="0" /><path
         d="m 3902.51,851.289 c -0.42,0.543 -0.84,1.07 -1.27,1.602 0.09,0.05 0.17,0.089 0.22,0.121 0.11,-0.121 0.21,-0.242 0.32,-0.371 l 0.73,-1.352"
         style="fill:#797c7e;fill-opacity:1;fill-rule:nonzero;stroke:none"
         id="path260"
         inkscape:connector-curvature="0" /><path
         d="m 3962.38,267.422 -2.52,4.68 c 2.59,7.367 5.7,14.609 9.14,21.609 0.44,-2.09 0.88,-4.18 1.32,-6.27 -3.02,-6.519 -5.72,-13.222 -7.94,-20.019 m -47.88,144.699 c -0.52,2.129 -1.04,4.258 -1.57,6.43 7.42,17.301 17,32.808 27.31,46.418 0.23,-1.848 0.48,-3.707 0.72,-5.559 -10.17,-13.89 -19.48,-29.699 -26.46,-47.289 m -36.94,198.559 c -0.25,1.992 -0.5,3.992 -0.74,5.992 13.2,18.168 30.15,35.027 46.31,49.066 0.07,-1.769 0.15,-3.539 0.23,-5.308 -16.29,-14.41 -33.13,-31.539 -45.8,-49.75 m -11.64,213.121 c 0.04,1.711 0.08,3.41 0.12,5.129 17.73,14.07 32.85,22.648 35.2,23.961 0.43,-0.532 0.85,-1.059 1.27,-1.602 l 0.91,-1.719 c -0.32,-0.172 -17.61,-9.601 -37.5,-25.769"
         style="fill:#02a287;fill-opacity:1;fill-rule:nonzero;stroke:none"
         id="path262"
         inkscape:connector-curvature="0" /><path
         d="m 3983.82,227.68 -19.68,36.492 c 6.83,-11.934 13.43,-24.121 19.68,-36.5"
         style="fill:#1ba995;fill-opacity:1;fill-rule:nonzero;stroke:none"
         id="path264"
         inkscape:connector-curvature="0" /><path
         d="m 4045.84,3.96094 c -27.25,61.89066 -45.4,153.87906 -63.79,231.25006 -38.22,160.699 -58.33,329.359 -60.74,494.629 -1.71,118.512 18.56,257.601 78.89,362.11 28.98,50.21 86.61,118.62 150.48,119.29 155.43,1.62 160.35,-320.709 151.24,-418.9 C 4277.21,525.879 4181.36,237.25 4045.84,3.96094"
         style="fill:#36bbab;fill-opacity:1;fill-rule:nonzero;stroke:none"
         id="path266"
         inkscape:connector-curvature="0" /><path
         d="m 4042.94,3.64844 c -0.26,2.5 -0.51,5.01172 -0.76,7.52346 0.31,-0.2617 0.61,-0.5313 0.91,-0.793 0.91,-2.16796 1.83,-4.32031 2.75,-6.41796 0.47,0.78906 0.92,1.57812 1.39,2.3789 0.53,-0.60156 1.03,-1.19921 1.49,-1.78906 0.01,-0.10156 0.02,-0.1914 0.03,-0.28906 l -5.81,-0.61328 m 5.53,3.33203 -0.19,1.17969 c 0.02,0.03906 0.03,0.05078 0.05,0.10156 0.05,-0.43359 0.09,-0.86328 0.14,-1.28125"
         style="fill:#8e9191;fill-opacity:1;fill-rule:nonzero;stroke:none"
         id="path268"
         inkscape:connector-curvature="0" /><path
         d="m 4048.72,4.55078 c -0.46,0.58985 -0.96,1.1875 -1.49,1.78906 0.34,0.60157 0.7,1.21875 1.05,1.82032 l 0.19,-1.17969 c 0.08,-0.82031 0.16,-1.62109 0.25,-2.42969 m -5.63,5.82812 c -0.3,0.2617 -0.6,0.5313 -0.91,0.793 -0.06,0.6172 -0.13,1.25 -0.19,1.8789 0.37,-0.9024 0.73,-1.7813 1.1,-2.6719"
         style="fill:#09ac92;fill-opacity:1;fill-rule:nonzero;stroke:none"
         id="path270"
         inkscape:connector-curvature="0" /><path
         d="m 4205.73,356.719 c 0.44,1.281 0.88,2.582 1.32,3.851 l 1.21,-2.648 c -0.1,-0.051 -0.98,-0.453 -2.53,-1.203"
         style="fill:#8e9191;fill-opacity:1;fill-rule:nonzero;stroke:none"
         id="path272"
         inkscape:connector-curvature="0" /><path
         d="m 3950.85,391.922 c -2.21,3.508 -3.43,5.238 -3.49,5.328 l 2.36,1.699 c 0.37,-2.347 0.75,-4.687 1.13,-7.027"
         style="fill:#09896f;fill-opacity:1;fill-rule:nonzero;stroke:none"
         id="path274"
         inkscape:connector-curvature="0" /><path
         d="m 4269.48,584.609 c 0.22,1.039 0.44,2.063 0.66,3.09 l 0.52,-2.847 c -0.07,-0.02 -0.47,-0.09 -1.18,-0.243"
         style="fill:#8e9191;fill-opacity:1;fill-rule:nonzero;stroke:none"
         id="path276"
         inkscape:connector-curvature="0" /><path
         d="m 3922.8,673.75 c -1.46,1.809 -2.27,2.738 -2.34,2.809 l 2.17,1.929 c 0.05,-1.578 0.11,-3.16 0.17,-4.738"
         style="fill:#09896f;fill-opacity:1;fill-rule:nonzero;stroke:none"
         id="path278"
         inkscape:connector-curvature="0" /><path
         d="m 4304.52,843.699 c 0.02,1.012 0.03,1.992 0.05,3.012 l 0.61,-2.859 c -0.06,-0.012 -0.28,-0.063 -0.66,-0.153 m -354.07,126.942 c -0.8,1.097 -1.25,1.691 -1.31,1.757 l 2.32,1.782 c -0.34,-1.18 -0.67,-2.36 -1.01,-3.539 m 324.47,118.369 c -0.3,0.93 -0.6,1.85 -0.91,2.78 0.3,0.05 0.47,0.07 0.51,0.08 l 0.4,-2.86 m -237.02,56.04 0.57,0.68 c 0.01,0 0.01,0 0.02,-0.01 -0.2,-0.23 -0.39,-0.45 -0.59,-0.67 m 109.76,66.11 c 0.09,0.4 0.15,0.65 0.18,0.76 l 2.83,-0.68 c -1,-0.01 -2.01,-0.04 -3.01,-0.08"
         style="fill:#8e9191;fill-opacity:1;fill-rule:nonzero;stroke:none"
         id="path280"
         inkscape:connector-curvature="0" /><path
         d="m 4045.84,3.96094 c -0.92,2.09765 -1.84,4.25 -2.75,6.41796 -0.37,0.8906 -0.73,1.7695 -1.1,2.6719 -6.2,62.8086 -9.45,127.5312 -10.38,192.7892 -37.9,113.121 -70.35,169.512 -80.76,186.082 -0.38,2.34 -0.76,4.68 -1.13,7.027 l 2.37,1.699 c 0.38,-0.507 35.7,-50.628 79.34,-176.207 -0.55,71.11 1.61,142.739 5.67,213.18 l -0.03,0.109 c -48.64,149.59 -102.51,221.469 -114.27,236.02 -0.06,1.578 -0.12,3.16 -0.17,4.738 l 2.19,1.961 c 0.6,-0.679 59.33,-67.801 113.23,-227.23 5.6,90.64 14.27,179.101 24.37,261.722 l -0.1,0.36 C 4025.27,864 3960.46,956.91 3950.45,970.641 c 0.34,1.179 0.67,2.359 1.01,3.539 l 2.31,1.781 c 0.72,-0.93 69.68,-91.949 110.6,-245.32 13.63,108.718 29.53,206.73 43.78,285.509 -28.95,87.34 -72.96,124.73 -73.41,125.1 l 3.16,3.8 c 0.2,0.22 0.39,0.44 0.59,0.67 1.96,-1.63 42.47,-36.25 71.77,-117.98 19.53,106.53 35.49,175.31 37.4,183.42 1,0.04 2.01,0.07 3.01,0.08 l 2.84,-0.67 c -0.53,-2.17 -17.25,-73.06 -37.85,-185.78 59.3,50.4 150.71,65.79 158.35,67 0.31,-0.93 0.61,-1.85 0.91,-2.78 l 0.42,-2.91 c -1.01,-0.14 -101.56,-15.38 -161.38,-70.58 -14.3,-78.918 -30.23,-177.239 -43.9,-286.309 57.85,81.769 226.42,118.758 233.9,120.34 l 0.61,-2.84 c -0.02,-1.02 -0.03,-2 -0.05,-3.012 -12.31,-2.75 -188.88,-43.66 -236.13,-127.98 -10.28,-83.91 -19.11,-173.879 -24.72,-266.047 77.39,113.008 224.43,140.629 225.95,140.91 l 0.52,-2.883 c -0.22,-1.027 -0.44,-2.051 -0.66,-3.09 -14.41,-2.91 -155.75,-34.129 -226.52,-146.539 -4.19,-72.199 -6.33,-145.64 -5.66,-218.488 44.61,86.539 167.26,143.066 168.54,143.637 l 1.21,-2.649 c -0.44,-1.269 -0.88,-2.57 -1.32,-3.851 -18.5,-8.918 -132.89,-66.828 -168.3,-150.469 0.94,-67.07 4.36,-133.5586 10.9,-197.98828 -0.02,-0.05078 -0.03,-0.0625 -0.05,-0.10156 -0.35,-0.60157 -0.71,-1.21875 -1.05,-1.82032 -0.47,-0.80078 -0.92,-1.58984 -1.39,-2.3789"
         style="fill:#09ac92;fill-opacity:1;fill-rule:nonzero;stroke:none"
         id="path282"
         inkscape:connector-curvature="0" /><path
         d="m 3393.74,0.871094 h 946.082 v 10 H 3393.74 Z"
         style="fill:#193351;fill-opacity:1;fill-rule:nonzero;stroke:none"
         id="path284"
         inkscape:connector-curvature="0" /><path
         d="m 1020.52,3215.62 h 5 c 0,52.77 -42.782,95.56 -95.559,95.56 -21.586,0 -41.473,-7.26 -57.445,-19.32 l 3.011,-3.99 4.532,2.11 c -19.008,40.79 -60.293,69.14 -108.286,69.15 h -0.132 l -1.528,-0.09 0.262,-4.99 4.898,1 c -18.273,89.06 -97.066,156 -191.511,156.01 -94.563,-0.01 -173.426,-67.12 -191.563,-156.34 l 4.903,-0.99 0.332,4.98 c -2.551,0.18 -5.266,0.41 -8.196,0.42 -66.015,-0.01 -119.523,-53.52 -119.527,-119.54 0.004,-66.02 53.512,-119.52 119.527,-119.52 h 540.727 c 52.773,0 95.555,42.77 95.555,95.55 h -5 -5 c 0,-23.64 -9.57,-45 -25.059,-60.49 -15.496,-15.5 -36.856,-25.06 -60.496,-25.06 H 389.238 c -30.261,0 -57.609,12.25 -77.445,32.07 -19.828,19.84 -32.078,47.19 -32.082,77.45 0.004,30.26 12.254,57.61 32.082,77.45 19.836,19.83 47.184,32.08 77.445,32.09 2.375,0 4.856,-0.21 7.528,-0.39 l 4.363,-0.29 0.871,4.28 c 17.203,84.62 92.039,148.34 181.762,148.33 89.613,0.01 164.383,-63.55 181.715,-148.02 l 0.867,-4.21 5.691,0.3 -0.262,5 v -5 c 43.969,0 81.778,-25.97 99.223,-63.38 l 2.609,-5.6 4.934,3.73 c 14.348,10.82 32.09,17.3 51.422,17.3 23.641,0 45,-9.57 60.5,-25.06 15.489,-15.5 25.059,-36.86 25.059,-60.5 h 5"
         style="fill:#80b3c4;fill-opacity:1;fill-rule:nonzero;stroke:none"
         id="path286"
         inkscape:connector-curvature="0" /><path
         d="m 1379.45,3666.75 v 5 c -7.72,0 -15.09,-1.48 -21.87,-4.05 l 1.77,-4.68 4.71,1.69 c -17.98,50.02 -65.7,85.86 -121.92,85.86 -53.26,0 -98.97,-32.14 -118.92,-78.05 l 4.58,-1.99 3.42,3.65 c -13.01,12.17 -30.51,19.7 -49.76,19.7 -40.29,-0.01 -72.96,-32.67 -72.96,-72.97 0,-40.3 32.67,-72.96 72.96,-72.96 h 297.99 c 34.19,0 61.89,27.71 61.9,61.89 -0.01,34.2 -27.71,61.9 -61.9,61.91 v -5 -5 c 14.35,-0.01 27.29,-5.8 36.7,-15.21 9.4,-9.4 15.2,-22.35 15.2,-36.7 0,-14.34 -5.8,-27.29 -15.2,-36.7 -9.41,-9.39 -22.35,-15.19 -36.7,-15.19 h -297.99 c -17.4,0 -33.11,7.03 -44.52,18.44 -11.4,11.41 -18.44,27.12 -18.44,44.52 0,17.4 7.04,33.11 18.44,44.52 11.41,11.41 27.12,18.44 44.52,18.45 16.63,-0.01 31.65,-6.47 42.93,-17 l 5.17,-4.84 2.83,6.5 c 18.43,42.37 60.6,72.04 109.75,72.03 51.87,0.01 95.9,-33.07 112.51,-79.24 l 1.71,-4.78 4.76,1.8 c 5.74,2.17 11.88,3.39 18.33,3.4 v 5"
         style="fill:#80b3c4;fill-opacity:1;fill-rule:nonzero;stroke:none"
         id="path288"
         inkscape:connector-curvature="0" /></g></g></svg>