<?xml version="1.0" encoding="UTF-8" standalone="no"?>
<svg
   xmlns:dc="http://purl.org/dc/elements/1.1/"
   xmlns:cc="http://creativecommons.org/ns#"
   xmlns:rdf="http://www.w3.org/1999/02/22-rdf-syntax-ns#"
   xmlns:svg="http://www.w3.org/2000/svg"
   xmlns="http://www.w3.org/2000/svg"
   viewBox="0 0 4305.6665 2666.6667"
   height="2666.6667"
   width="4305.6665"
   xml:space="preserve"
   id="svg10135"
   version="1.1"><metadata
     id="metadata10141"><rdf:RDF><cc:Work
         rdf:about=""><dc:format>image/svg+xml</dc:format><dc:type
           rdf:resource="http://purl.org/dc/dcmitype/StillImage" /><dc:title></dc:title></cc:Work></rdf:RDF></metadata><defs
     id="defs10139"><clipPath
       id="clipPath10165"
       clipPathUnits="userSpaceOnUse"><path
         id="path10163"
         d="m 17976.4,15684.4 c 0,0 1775.5,-2105.2 649.2,-3468.4 -1126.3,-1363.2 -1436.2,-26.6 -1436.2,-26.6 0,0 -674.1,-125.1 493.5,1580 550.3,803.6 293.5,1915 293.5,1915" /></clipPath><linearGradient
       id="linearGradient10173"
       spreadMethod="pad"
       gradientTransform="matrix(1121.08,-3692.81,-3692.81,-1121.08,17246.8,15463)"
       gradientUnits="userSpaceOnUse"
       y2="0"
       x2="1"
       y1="0"
       x1="0"><stop
         id="stop10169"
         offset="0"
         style="stop-opacity:1;stop-color:#40d5e6" /><stop
         id="stop10171"
         offset="1"
         style="stop-opacity:1;stop-color:#5577ff" /></linearGradient><clipPath
       id="clipPath10183"
       clipPathUnits="userSpaceOnUse"><path
         id="path10181"
         d="m 19662.4,13416.9 v 1128.8 c 0,247.1 -149.5,459.3 -363,551 552.3,769.5 1372.9,1534.3 2568.6,2230.4 0,0 934.8,-1379.9 -139.7,-3154.4 -530.6,-135.6 -1111.8,-290.6 -1732.5,-571 -113.6,-51.3 -225,-113.6 -333.4,-184.8" /></clipPath><linearGradient
       id="linearGradient10191"
       spreadMethod="pad"
       gradientTransform="matrix(1897.83,-6251.42,-6251.42,-1897.83,19380.6,16571.9)"
       gradientUnits="userSpaceOnUse"
       y2="0"
       x2="1"
       y1="0"
       x1="0"><stop
         id="stop10187"
         offset="0"
         style="stop-opacity:1;stop-color:#40d5e6" /><stop
         id="stop10189"
         offset="1"
         style="stop-opacity:1;stop-color:#5577ff" /></linearGradient><clipPath
       id="clipPath10201"
       clipPathUnits="userSpaceOnUse"><path
         id="path10199"
         d="m 21254.3,11347.1 c -65.3,346.1 -369.3,607.9 -734.3,607.9 h -857.6 v 1461.9 c 108.4,71.2 219.8,133.5 333.4,184.8 620.7,280.4 1201.9,435.4 1732.5,571 756,193.3 1409.1,347.3 1926.3,769 0,0 -314.4,-2250.7 -2400.3,-3594.6" /></clipPath><linearGradient
       id="linearGradient10209"
       spreadMethod="pad"
       gradientTransform="matrix(858.938,-2829.32,-2829.32,-858.938,20464.7,13973.3)"
       gradientUnits="userSpaceOnUse"
       y2="0"
       x2="1"
       y1="0"
       x1="0"><stop
         id="stop10205"
         offset="0"
         style="stop-opacity:1;stop-color:#40d5e6" /><stop
         id="stop10207"
         offset="1"
         style="stop-opacity:1;stop-color:#5577ff" /></linearGradient><clipPath
       id="clipPath10257"
       clipPathUnits="userSpaceOnUse"><path
         id="path10255"
         d="m 8584.83,9416.4 v 466.2 c 12.7,16 227.24,294.6 847.87,560.5 316.02,135.4 751.8,255.6 1303.3,255.6 183.8,0 380.4,-13.4 589.7,-43.9 v -321.1 c -186.8,28 -364.1,40.6 -531.9,40.6 -1457.27,0 -2200.53,-947.3 -2208.97,-957.9 M 27575,9425 c -1055.5,1060.1 -2055.3,1486.8 -3048.2,1486.8 -1073.3,0 -2138.9,-498.1 -3259.6,-1232.9 v 392.4 c 713.6,461.8 1414.2,830.6 2109.1,1030 374.3,107.5 753,164.9 1132.9,164.9 1031.9,0 2073.6,-423.2 3065.8,-1415.3 V 9425" /></clipPath><linearGradient
       id="linearGradient10265"
       spreadMethod="pad"
       gradientTransform="matrix(18990.1,0,0,-18990.1,8584.83,9278.8)"
       gradientUnits="userSpaceOnUse"
       y2="0"
       x2="1"
       y1="0"
       x1="0"><stop
         id="stop10261"
         offset="0"
         style="stop-opacity:1;stop-color:#ff9f55" /><stop
         id="stop10263"
         offset="1"
         style="stop-opacity:1;stop-color:#ffd255" /></linearGradient><clipPath
       id="clipPath10283"
       clipPathUnits="userSpaceOnUse"><path
         id="path10281"
         d="m 6064.36,9162 h -228.01 v -617.7 h 228.01 z" /></clipPath><linearGradient
       id="linearGradient10289"
       spreadMethod="pad"
       gradientTransform="matrix(-1.004e-4,2297,2297,1.004e-4,5950.36,7692.7)"
       gradientUnits="userSpaceOnUse"
       y2="0"
       x2="1"
       y1="0"
       x1="0"><stop
         id="stop10285"
         offset="0"
         style="stop-opacity:1;stop-color:#ff9f55" /><stop
         id="stop10287"
         offset="1"
         style="stop-opacity:1;stop-color:#ffd255" /></linearGradient><clipPath
       id="clipPath10299"
       clipPathUnits="userSpaceOnUse"><path
         id="path10297"
         d="m 6630.54,9412.9 h -228.02 v -868.6 h 228.02 z" /></clipPath><linearGradient
       id="linearGradient10305"
       spreadMethod="pad"
       gradientTransform="matrix(-1.004e-4,2297,2297,1.004e-4,6516.53,7692.7)"
       gradientUnits="userSpaceOnUse"
       y2="0"
       x2="1"
       y1="0"
       x1="0"><stop
         id="stop10301"
         offset="0"
         style="stop-opacity:1;stop-color:#ff9f55" /><stop
         id="stop10303"
         offset="1"
         style="stop-opacity:1;stop-color:#ffd255" /></linearGradient><clipPath
       id="clipPath10315"
       clipPathUnits="userSpaceOnUse"><path
         id="path10313"
         d="M 7196.71,9543.8 H 6968.7 v -999.5 h 228.01 z" /></clipPath><linearGradient
       id="linearGradient10321"
       spreadMethod="pad"
       gradientTransform="matrix(-1.004e-4,2296.99,2296.99,1.004e-4,7082.71,7692.7)"
       gradientUnits="userSpaceOnUse"
       y2="0"
       x2="1"
       y1="0"
       x1="0"><stop
         id="stop10317"
         offset="0"
         style="stop-opacity:1;stop-color:#ff9f55" /><stop
         id="stop10319"
         offset="1"
         style="stop-opacity:1;stop-color:#ffd255" /></linearGradient><clipPath
       id="clipPath10331"
       clipPathUnits="userSpaceOnUse"><path
         id="path10329"
         d="M 7762.89,9598.4 H 7534.87 V 8544.3 h 228.02 z" /></clipPath><linearGradient
       id="linearGradient10337"
       spreadMethod="pad"
       gradientTransform="matrix(-1.004e-4,2296.98,2296.98,1.004e-4,7648.88,7692.7)"
       gradientUnits="userSpaceOnUse"
       y2="0"
       x2="1"
       y1="0"
       x1="0"><stop
         id="stop10333"
         offset="0"
         style="stop-opacity:1;stop-color:#ff9f55" /><stop
         id="stop10335"
         offset="1"
         style="stop-opacity:1;stop-color:#ffd255" /></linearGradient><clipPath
       id="clipPath10347"
       clipPathUnits="userSpaceOnUse"><path
         id="path10345"
         d="m 19063,4115.2 h -7137.9 c -331,0 -599.4,268.3 -599.4,599.4 v 3156.6 c 170.8,44.4 334.4,101.4 493.3,168.2 v -3368 h 4644.1 c 137.1,-165.8 344.3,-271.4 576.2,-271.4 h 2534 c -105.6,-170.9 -294.6,-284.8 -510.3,-284.8 m -7737.3,4071.5 v 2147 321.1 3890.9 c 0,294.8 212.8,539.9 493.3,590 V 8375.3 c -160.4,-75.9 -323.5,-140.2 -493.3,-188.6 m 8336.7,3768.3 h -493.3 v 3180.7 c 45.4,-8.1 89,-21.3 130.3,-39 213.5,-91.7 363,-303.9 363,-551 V 13416.9 11955" /></clipPath><linearGradient
       id="linearGradient10355"
       spreadMethod="pad"
       gradientTransform="matrix(291.143,16537.2,16537.2,-291.143,15325.9,80.9998)"
       gradientUnits="userSpaceOnUse"
       y2="0"
       x2="1"
       y1="0"
       x1="0"><stop
         id="stop10351"
         offset="0"
         style="stop-opacity:1;stop-color:#40d5e6" /><stop
         id="stop10353"
         offset="1"
         style="stop-opacity:1;stop-color:#5577ff" /></linearGradient><clipPath
       id="clipPath10369"
       clipPathUnits="userSpaceOnUse"><path
         id="path10367"
         d="M 18484.2,13879.7 H 16317 v 274.2 h 2167.2 z" /></clipPath><linearGradient
       id="linearGradient10377"
       spreadMethod="pad"
       gradientTransform="matrix(2167.25,0,0,-2167.25,16317,14016.8)"
       gradientUnits="userSpaceOnUse"
       y2="0"
       x2="1"
       y1="0"
       x1="0"><stop
         id="stop10373"
         offset="0"
         style="stop-opacity:1;stop-color:#40d5e6" /><stop
         id="stop10375"
         offset="1"
         style="stop-opacity:1;stop-color:#5577ff" /></linearGradient><clipPath
       id="clipPath10387"
       clipPathUnits="userSpaceOnUse"><path
         id="path10385"
         d="M 18306.4,12730.7 H 16317 v 274.1 h 1989.4 z" /></clipPath><linearGradient
       id="linearGradient10395"
       spreadMethod="pad"
       gradientTransform="matrix(1989.41,0,0,-1989.41,16317,12867.7)"
       gradientUnits="userSpaceOnUse"
       y2="0"
       x2="1"
       y1="0"
       x1="0"><stop
         id="stop10391"
         offset="0"
         style="stop-opacity:1;stop-color:#40d5e6" /><stop
         id="stop10393"
         offset="1"
         style="stop-opacity:1;stop-color:#5577ff" /></linearGradient><clipPath
       id="clipPath10405"
       clipPathUnits="userSpaceOnUse"><path
         id="path10403"
         d="M 18038.3,13305.2 H 16317 v 274.1 h 1721.3 z" /></clipPath><linearGradient
       id="linearGradient10413"
       spreadMethod="pad"
       gradientTransform="matrix(1721.29,0,0,-1721.29,16317,13442.3)"
       gradientUnits="userSpaceOnUse"
       y2="0"
       x2="1"
       y1="0"
       x1="0"><stop
         id="stop10409"
         offset="0"
         style="stop-opacity:1;stop-color:#40d5e6" /><stop
         id="stop10411"
         offset="1"
         style="stop-opacity:1;stop-color:#5577ff" /></linearGradient><clipPath
       id="clipPath10423"
       clipPathUnits="userSpaceOnUse"><path
         id="path10421"
         d="m 13991.7,15720 c -891.6,0 -1616.9,-725.4 -1616.9,-1617 0,-632.8 372.3,-1210.9 948.7,-1472.8 210.2,-95.6 435,-144.1 668.2,-144.1 233.2,0 458,48.5 668.2,144.1 576.4,261.9 948.8,840 948.8,1472.8 0,891.6 -725.4,1617 -1617,1617 z m 0,-3324 c -246.2,0 -483.6,51.2 -705.5,152.1 -608.4,276.5 -1001.6,886.9 -1001.6,1554.9 0,941.3 765.8,1707.1 1707.1,1707.1 941.3,0 1707.1,-765.8 1707.1,-1707.1 0,-668 -393.2,-1278.4 -1001.6,-1554.9 -221.9,-100.9 -459.3,-152.1 -705.5,-152.1 z" /></clipPath><linearGradient
       id="linearGradient10429"
       spreadMethod="pad"
       gradientTransform="matrix(-1.04e-4,2379.95,2379.95,1.04e-4,13991.7,11777.3)"
       gradientUnits="userSpaceOnUse"
       y2="0"
       x2="1"
       y1="0"
       x1="0"><stop
         id="stop10425"
         offset="0"
         style="stop-opacity:1;stop-color:#7db3e0" /><stop
         id="stop10427"
         offset="1"
         style="stop-opacity:1;stop-color:#ffffff" /></linearGradient><clipPath
       id="clipPath10451"
       clipPathUnits="userSpaceOnUse"><path
         id="path10449"
         d="M 25920.6,7212.2 C 24440.5,7212.1 23154,7852 21812.8,8519 c -180.9,89.9 -362.6,180.3 -545.6,269.5 V 9142 c 231.1,-111.4 459.6,-225.1 687.2,-338.2 1300.6,-646.8 2557.8,-1264.1 3983.2,-1264.1 519.9,0 1062.1,82.1 1637.2,274.8 v -340.1 c -620.4,-207.7 -1108.6,-262.2 -1654.2,-262.2 m -15479.1,553 c -1367.45,0 -1848.28,592.5 -1856.67,630.2 v 413.7 c 1.89,-7.1 328.18,-722.3 2012.97,-722.3 10,0 20,0.1 30.1,0.1 249.1,1.3 479,37.4 697.8,99.8 169.8,48.4 332.9,112.7 493.3,188.6 331.8,157.2 651.7,364.7 993.7,586.6 836.9,543 1785.4,1158.5 3318.5,1315.2 53.9,5.5 107.5,10.4 160.8,14.8 v -319.2 c -42.6,-3.6 -85.5,-7.7 -128.5,-12 -1456.7,-148.9 -2371,-742.2 -3177.7,-1265.6 -386.1,-250.5 -761,-485 -1166.8,-655.7 -158.9,-66.8 -322.5,-123.8 -493.3,-168.2 -218.4,-56.8 -448.8,-92.9 -696.2,-102.3 -64.4,-2.5 -127.2,-3.6 -188,-3.7" /></clipPath><radialGradient
       id="radialGradient10463"
       spreadMethod="pad"
       gradientTransform="matrix(6803.18,0,0,-6803.18,18079.8,8765.2)"
       gradientUnits="userSpaceOnUse"
       r="1"
       cy="0"
       cx="0"
       fy="0"
       fx="0"><stop
         id="stop10455"
         offset="0"
         style="stop-opacity:1;stop-color:#90c2e8" /><stop
         id="stop10457"
         offset="0.160246"
         style="stop-opacity:1;stop-color:#90c2e8" /><stop
         id="stop10459"
         offset="0.58057"
         style="stop-opacity:1;stop-color:#47afff" /><stop
         id="stop10461"
         offset="1"
         style="stop-opacity:1;stop-color:#6783f5" /></radialGradient><clipPath
       id="clipPath10477"
       clipPathUnits="userSpaceOnUse"><path
         id="path10475"
         d="M 19662.4,10641.3 V 11955 h 857.6 c 365,0 669,-261.8 734.3,-607.9 -445.3,-286.8 -971,-532.3 -1591.9,-705.8" /></clipPath><linearGradient
       id="linearGradient10485"
       spreadMethod="pad"
       gradientTransform="matrix(858.938,-2829.32,-2829.32,-858.938,20464.7,13973.3)"
       gradientUnits="userSpaceOnUse"
       y2="0"
       x2="1"
       y1="0"
       x1="0"><stop
         id="stop10481"
         offset="0"
         style="stop-opacity:1;stop-color:#f1fcfe" /><stop
         id="stop10483"
         offset="1"
         style="stop-opacity:1;stop-color:#f2f5ff" /></linearGradient><clipPath
       id="clipPath10495"
       clipPathUnits="userSpaceOnUse"><path
         id="path10493"
         d="m 19662.4,8527 v 400.1 c 165.2,124.9 329.5,248.1 492.9,368.5 115.5,-47.8 230.1,-97.1 343.8,-147.5 -274.7,-198.1 -553.2,-406.2 -836.7,-621.1 m 1137.5,834.9 c -113.7,51.9 -228.5,103 -344,152.7 272.6,196 542.9,382.9 811.3,556.7 v -392.4 c -154.7,-101.4 -310.3,-207.3 -467.3,-317" /></clipPath><linearGradient
       id="linearGradient10503"
       spreadMethod="pad"
       gradientTransform="matrix(18990.1,0,0,-18990.1,8584.83,9278.8)"
       gradientUnits="userSpaceOnUse"
       y2="0"
       x2="1"
       y1="0"
       x1="0"><stop
         id="stop10499"
         offset="0"
         style="stop-opacity:1;stop-color:#fff8f2" /><stop
         id="stop10501"
         offset="1"
         style="stop-opacity:1;stop-color:#fffcf2" /></linearGradient><clipPath
       id="clipPath10513"
       clipPathUnits="userSpaceOnUse"><path
         id="path10511"
         d="m 19573.3,4400 h -2534 c -231.9,0 -439.1,105.6 -576.2,271.4 h 2706 v 4981.1 c 166.9,-50.9 331.2,-106.2 493.3,-165 V 8927.1 8527 4714.6 c 0,-115.4 -32.6,-223.1 -89.1,-314.6 m 89.1,5426.5 c -162,57.1 -326.2,110.5 -493.3,159.6 V 11955 h 493.3 v -1313.7 -814.8" /></clipPath><linearGradient
       id="linearGradient10521"
       spreadMethod="pad"
       gradientTransform="matrix(291.143,16537.2,16537.2,-291.143,15325.9,80.9998)"
       gradientUnits="userSpaceOnUse"
       y2="0"
       x2="1"
       y1="0"
       x1="0"><stop
         id="stop10517"
         offset="0"
         style="stop-opacity:1;stop-color:#f1fcfe" /><stop
         id="stop10519"
         offset="1"
         style="stop-opacity:1;stop-color:#f2f5ff" /></linearGradient><clipPath
       id="clipPath10535"
       clipPathUnits="userSpaceOnUse"><path
         id="path10533"
         d="m 21267.2,8788.5 c -252.9,123.3 -508.3,244.4 -768.1,359.6 -113.7,50.4 -228.3,99.7 -343.8,147.5 -162.2,67.1 -326.4,131.4 -492.9,191.9 -162.1,58.8 -326.4,114.1 -493.3,165 -694.5,211.8 -1434,347.2 -2245.8,347.2 -205.7,0 -415.9,-8.6 -631.3,-27 v 319.2 c 217.8,17.9 430.4,26.3 638.3,26.3 810,0 1547.4,-128.8 2238.8,-332.1 167.1,-49.1 331.3,-102.5 493.3,-159.6 270.4,-95.2 534.2,-200.3 793.5,-311.9 115.5,-49.7 230.3,-100.8 344,-152.7 157.2,-71.8 312.7,-145.3 467.3,-219.9 v -353.5" /></clipPath><radialGradient
       id="radialGradient10547"
       spreadMethod="pad"
       gradientTransform="matrix(6803.18,0,0,-6803.18,18079.8,8765.2)"
       gradientUnits="userSpaceOnUse"
       r="1"
       cy="0"
       cx="0"
       fy="0"
       fx="0"><stop
         id="stop10539"
         offset="0"
         style="stop-opacity:1;stop-color:#f7fbfe" /><stop
         id="stop10541"
         offset="0.160246"
         style="stop-opacity:1;stop-color:#f7fbfe" /><stop
         id="stop10543"
         offset="0.58057"
         style="stop-opacity:1;stop-color:#f1f9ff" /><stop
         id="stop10545"
         offset="1"
         style="stop-opacity:1;stop-color:#f4f6ff" /></radialGradient><clipPath
       id="clipPath10669"
       clipPathUnits="userSpaceOnUse"><path
         id="path10667"
         d="m 6866.8,6893.2 h 502.58 l -153.83,319 h -502.59 z" /></clipPath><linearGradient
       id="linearGradient10675"
       spreadMethod="pad"
       gradientTransform="matrix(-87.3469,3508.32,3508.32,87.3469,7078.76,5542.7)"
       gradientUnits="userSpaceOnUse"
       y2="0"
       x2="1"
       y1="0"
       x1="0"><stop
         id="stop10671"
         offset="0"
         style="stop-opacity:1;stop-color:#ff9f55" /><stop
         id="stop10673"
         offset="1"
         style="stop-opacity:1;stop-color:#ffd255" /></linearGradient><clipPath
       id="clipPath10685"
       clipPathUnits="userSpaceOnUse"><path
         id="path10683"
         d="m 6631.63,6893.2 h 119.76 l -153.84,319 H 6477.8 Z" /></clipPath><linearGradient
       id="linearGradient10691"
       spreadMethod="pad"
       gradientTransform="matrix(-87.3466,3508.31,3508.31,87.3466,6652.44,5532.1)"
       gradientUnits="userSpaceOnUse"
       y2="0"
       x2="1"
       y1="0"
       x1="0"><stop
         id="stop10687"
         offset="0"
         style="stop-opacity:1;stop-color:#ff9f55" /><stop
         id="stop10689"
         offset="1"
         style="stop-opacity:1;stop-color:#ffd255" /></linearGradient><clipPath
       id="clipPath10701"
       clipPathUnits="userSpaceOnUse"><path
         id="path10699"
         d="m 18935.1,17062.7 h 995 v 180.3 h -995 z" /></clipPath><linearGradient
       id="linearGradient10709"
       spreadMethod="pad"
       gradientTransform="matrix(-786.097,-2940.59,-2940.59,786.097,19808.8,18560.1)"
       gradientUnits="userSpaceOnUse"
       y2="0"
       x2="1"
       y1="0"
       x1="0"><stop
         id="stop10705"
         offset="0"
         style="stop-opacity:1;stop-color:#ff9f55" /><stop
         id="stop10707"
         offset="1"
         style="stop-opacity:1;stop-color:#ffd255" /></linearGradient><clipPath
       id="clipPath10719"
       clipPathUnits="userSpaceOnUse"><path
         id="path10717"
         d="m 18935.1,17293.2 h 995 v 33.9 h -995 z" /></clipPath><linearGradient
       id="linearGradient10727"
       spreadMethod="pad"
       gradientTransform="matrix(-786.079,-2940.52,-2940.52,786.079,19769.5,18570.6)"
       gradientUnits="userSpaceOnUse"
       y2="0"
       x2="1"
       y1="0"
       x1="0"><stop
         id="stop10723"
         offset="0"
         style="stop-opacity:1;stop-color:#ff9f55" /><stop
         id="stop10725"
         offset="1"
         style="stop-opacity:1;stop-color:#ffd255" /></linearGradient><clipPath
       id="clipPath10903"
       clipPathUnits="userSpaceOnUse"><path
         id="path10901"
         d="m 14214.1,13167.7 h -444.8 v 1870.7 h 444.8 z" /></clipPath><linearGradient
       id="linearGradient10909"
       spreadMethod="pad"
       gradientTransform="matrix(189.246,-2896.94,-2896.94,-189.246,13912.7,15312.1)"
       gradientUnits="userSpaceOnUse"
       y2="0"
       x2="1"
       y1="0"
       x1="0"><stop
         id="stop10905"
         offset="0"
         style="stop-opacity:1;stop-color:#40d5e6" /><stop
         id="stop10907"
         offset="1"
         style="stop-opacity:1;stop-color:#5577ff" /></linearGradient><clipPath
       id="clipPath10919"
       clipPathUnits="userSpaceOnUse"><path
         id="path10917"
         d="m 13056.3,13880.6 v 444.9 h 1870.8 v -444.9 z" /></clipPath><linearGradient
       id="linearGradient10925"
       spreadMethod="pad"
       gradientTransform="matrix(189.241,-2896.87,-2896.87,-189.241,13912.7,15312.1)"
       gradientUnits="userSpaceOnUse"
       y2="0"
       x2="1"
       y1="0"
       x1="0"><stop
         id="stop10921"
         offset="0"
         style="stop-opacity:1;stop-color:#40d5e6" /><stop
         id="stop10923"
         offset="1"
         style="stop-opacity:1;stop-color:#5577ff" /></linearGradient></defs><g
     transform="matrix(1.3333333,0,0,-1.3333333,0,2666.6667)"
     id="g10143"><g
       transform="scale(0.1)"
       id="g10145"><path
         id="path10151"
         style="fill:#f3f3f3;fill-opacity:1;fill-rule:nonzero;stroke:none"
         d="m 15249.3,5131.9 h -66.8 v 7001.6 h 66.8 V 5131.9" /><path
         id="path10153"
         style="fill:#ffffff;fill-opacity:1;fill-rule:nonzero;stroke:none"
         d="m 15935.3,12813.7 h -719.4 v 182.5 h 719.4 v -182.5" /><path
         id="path10155"
         style="fill:#ffffff;fill-opacity:1;fill-rule:nonzero;stroke:none"
         d="m 15791.5,12476.4 h -575.6 v 182.5 h 575.6 v -182.5" /><path
         id="path10157"
         style="fill:#ffffff;fill-opacity:1;fill-rule:nonzero;stroke:none"
         d="m 16004.2,4473.8 h -754.9 v 243.3 h 754.9 v -243.3" /><g
         id="g10159"><g
           clip-path="url(#clipPath10165)"
           id="g10161"><g
             transform="scale(1.16564)"
             id="g10167"><path
               id="path10175"
               style="fill:url(#linearGradient10173);fill-opacity:1;fill-rule:nonzero;stroke:none"
               d="m 15421.9,13455.6 c 0,0 1523.1,-1806.1 556.9,-2975.6 -966.2,-1169.45 -1232.1,-22.8 -1232.1,-22.8 0,0 -578.3,-107.3 423.4,1355.5 472.1,689.4 251.8,1642.9 251.8,1642.9" /></g></g></g><g
         id="g10177"><g
           clip-path="url(#clipPath10183)"
           id="g10179"><g
             transform="scale(1.36472)"
             id="g10185"><path
               id="path10193"
               style="fill:url(#linearGradient10191);fill-opacity:1;fill-rule:nonzero;stroke:none"
               d="m 14407.6,9831.18 v 827.12 c 0,181.1 -109.5,336.6 -266,403.8 404.7,563.9 1006,1124.2 1882.2,1634.3 0,0 684.9,-1011.1 -102.4,-2311.4 -388.8,-99.3 -814.7,-212.9 -1269.5,-418.4 -83.2,-37.59 -164.9,-83.22 -244.3,-135.42" /></g></g></g><g
         id="g10195"><g
           clip-path="url(#clipPath10201)"
           id="g10197"><g
             transform="scale(1.4512)"
             id="g10203"><path
               id="path10211"
               style="fill:url(#linearGradient10209);fill-opacity:1;fill-rule:nonzero;stroke:none"
               d="m 14646,7819.12 c -45,238.49 -254.5,418.87 -506,418.87 h -591 v 1007.34 c 74.7,49.09 151.5,92 229.8,127.35 427.7,193.25 828.2,300.05 1193.8,393.51 521,133.19 971,239.31 1327.4,529.81 0,0 -216.6,-1550.85 -1654,-2476.88" /></g></g></g><path
         id="path10213"
         style="fill:#e0e0e0;fill-opacity:1;fill-rule:nonzero;stroke:none"
         d="m 8618.2,5131.9 h -66.74 v 7001.6 h 66.74 V 5131.9" /><path
         id="path10215"
         style="fill:#f3f3f3;fill-opacity:1;fill-rule:nonzero;stroke:none"
         d="m 13363.2,5131.9 h -66.7 v 7001.6 h 66.7 V 5131.9" /><g
         transform="scale(1.11093)"
         id="g10217"><path
           id="path10219"
           style="fill:#f3f3f3;fill-opacity:1;fill-rule:nonzero;stroke:none"
           d="m 16300,4619.45 h -60 v 6302.45 h 60 V 4619.45" /></g><path
         id="path10221"
         style="fill:#e0e0e0;fill-opacity:1;fill-rule:nonzero;stroke:none"
         d="M 9721.36,12813.7 H 8584.83 v 182.5 h 1136.53 v -182.5" /><path
         id="path10223"
         style="fill:#e0e0e0;fill-opacity:1;fill-rule:nonzero;stroke:none"
         d="M 10197,12476.4 H 8584.83 v 182.5 H 10197 v -182.5" /><path
         id="path10225"
         style="fill:#ffffff;fill-opacity:1;fill-rule:nonzero;stroke:none"
         d="m 14613,12813.7 h -1334.3 v 182.5 H 14613 v -182.5" /><path
         id="path10227"
         style="fill:#ffffff;fill-opacity:1;fill-rule:nonzero;stroke:none"
         d="m 14131.9,12476.4 h -853.2 v 182.5 h 853.2 v -182.5" /><g
         transform="scale(1.16166)"
         id="g10229"><path
           id="path10231"
           style="fill:#ffffff;fill-opacity:1;fill-rule:nonzero;stroke:none"
           d="m 16300,11030.5 h -711.8 v 157.1 h 711.8 v -157.1" /></g><g
         transform="scale(1.17006)"
         id="g10233"><path
           id="path10235"
           style="fill:#ffffff;fill-opacity:1;fill-rule:nonzero;stroke:none"
           d="m 16300,10663 h -823.7 v 156 h 823.7 v -156" /></g><g
         transform="scale(1.47593)"
         id="g10237"><path
           id="path10239"
           style="fill:#ffffff;fill-opacity:1;fill-rule:nonzero;stroke:none"
           d="m 16300,8681.77 h -816 v 123.65 h 816 v -123.65" /></g><g
         transform="scale(1.46117)"
         id="g10241"><path
           id="path10243"
           style="fill:#ffffff;fill-opacity:1;fill-rule:nonzero;stroke:none"
           d="m 16300,8538.63 h -659.5 v 124.9 h 659.5 v -124.9" /></g><path
         id="path10245"
         style="fill:#ffffff;fill-opacity:1;fill-rule:nonzero;stroke:none"
         d="m 14084.8,4473.8 h -754.9 v 243.3 h 754.9 v -243.3" /><g
         transform="scale(1.15725)"
         id="g10247"><path
           id="path10249"
           style="fill:#ffffff;fill-opacity:1;fill-rule:nonzero;stroke:none"
           d="m 16300,3865.88 h -652.4 v 210.24 h 652.4 v -210.24" /></g><g
         id="g10251"><g
           clip-path="url(#clipPath10257)"
           id="g10253"><g
             transform="scale(1.69172)"
             id="g10259"><path
               id="path10267"
               style="fill:url(#linearGradient10265);fill-opacity:1;fill-rule:nonzero;stroke:none"
               d="m 5074.62,5566.18 v 275.58 c 7.51,9.45 134.33,174.11 501.19,331.33 186.81,80.04 444.4,151.05 770.4,151.05 108.65,0 224.86,-7.89 348.58,-25.94 v -189.79 c -110.42,16.57 -215.22,24 -314.41,24 -861.41,0 -1300.77,-559.97 -1305.76,-566.23 m 11225.38,5.08 c -623.9,626.66 -1214.9,878.88 -1801.8,878.88 -634.5,0 -1264.4,-294.45 -1926.8,-728.79 v 231.92 c 421.8,272.98 835.9,490.99 1246.7,608.9 221.2,63.51 445.1,97.42 669.7,97.42 609.9,0 1225.7,-250.12 1812.2,-836.57 v -251.76" /></g></g></g><path
         id="path10269"
         style="fill:#e0e0e0;fill-opacity:1;fill-rule:nonzero;stroke:none"
         d="m 6064.36,9528.8 h -228.01 v -984.5 h 228.01 v 984.5" /><path
         id="path10271"
         style="fill:#e0e0e0;fill-opacity:1;fill-rule:nonzero;stroke:none"
         d="M 6630.54,9928.8 H 6402.52 V 8544.3 h 228.02 v 1384.5" /><path
         id="path10273"
         style="fill:#e0e0e0;fill-opacity:1;fill-rule:nonzero;stroke:none"
         d="M 7196.71,10137.5 H 6968.7 V 8544.3 h 228.01 v 1593.2" /><path
         id="path10275"
         style="fill:#e0e0e0;fill-opacity:1;fill-rule:nonzero;stroke:none"
         d="M 7762.89,10224.5 H 7534.87 V 8544.3 h 228.02 v 1680.2" /><g
         id="g10277"><g
           clip-path="url(#clipPath10283)"
           id="g10279"><path
             id="path10291"
             style="fill:url(#linearGradient10289);fill-opacity:1;fill-rule:nonzero;stroke:none"
             d="m 6064.36,9162 h -228.01 v -617.7 h 228.01 V 9162" /></g></g><g
         id="g10293"><g
           clip-path="url(#clipPath10299)"
           id="g10295"><path
             id="path10307"
             style="fill:url(#linearGradient10305);fill-opacity:1;fill-rule:nonzero;stroke:none"
             d="m 6630.54,9412.9 h -228.02 v -868.6 h 228.02 v 868.6" /></g></g><g
         id="g10309"><g
           clip-path="url(#clipPath10315)"
           id="g10311"><path
             id="path10323"
             style="fill:url(#linearGradient10321);fill-opacity:1;fill-rule:nonzero;stroke:none"
             d="M 7196.71,9543.8 H 6968.7 v -999.5 h 228.01 v 999.5" /></g></g><g
         id="g10325"><g
           clip-path="url(#clipPath10331)"
           id="g10327"><path
             id="path10339"
             style="fill:url(#linearGradient10337);fill-opacity:1;fill-rule:nonzero;stroke:none"
             d="M 7762.89,9598.4 H 7534.87 V 8544.3 h 228.02 v 1054.1" /></g></g><g
         id="g10341"><g
           clip-path="url(#clipPath10347)"
           id="g10343"><g
             transform="scale(1.20628)"
             id="g10349"><path
               id="path10357"
               style="fill:url(#linearGradient10355);fill-opacity:1;fill-rule:nonzero;stroke:none"
               d="M 15803.1,3411.47 H 9885.83 c -274.4,0 -496.9,222.42 -496.9,496.9 v 2616.8 c 141.59,36.81 277.22,84.06 408.94,139.44 V 3872.56 h 3849.93 c 113.7,-137.45 285.4,-224.99 477.7,-224.99 h 2100.6 c -87.5,-141.67 -244.2,-236.1 -423,-236.1 M 9388.93,6786.72 v 1779.86 266.16 3225.56 c 0,244.4 176.41,447.6 408.94,489.1 V 6943.07 C 9664.9,6880.15 9529.69,6826.84 9388.93,6786.72 M 16300,9910.61 h -408.9 v 2636.79 c 37.6,-6.7 73.7,-17.7 108,-32.3 177,-76.1 300.9,-252 300.9,-456.8 v -935.8 -1211.89" /></g></g></g><g
         transform="scale(1.17602)"
         id="g10359"><path
           id="path10361"
           style="fill:#f5f5f5;fill-opacity:1;fill-rule:nonzero;stroke:none"
           d="m 16300,13987.1 h -5907.7 c -189.1,0 -342.3,-153.3 -342.3,-342.3 V 3972.22 h 6250 V 13987.1" /></g><g
         id="g10363"><g
           clip-path="url(#clipPath10369)"
           id="g10365"><g
             transform="scale(1.134)"
             id="g10371"><path
               id="path10379"
               style="fill:url(#linearGradient10377);fill-opacity:1;fill-rule:nonzero;stroke:none"
               d="m 16300,12239.6 h -1911.1 v 241.7 H 16300 v -241.7" /></g></g></g><g
         id="g10381"><g
           clip-path="url(#clipPath10387)"
           id="g10383"><g
             transform="scale(1.12309)"
             id="g10389"><path
               id="path10397"
               style="fill:url(#linearGradient10395);fill-opacity:1;fill-rule:nonzero;stroke:none"
               d="m 16300,11335.4 h -1771.4 v 244 H 16300 v -244" /></g></g></g><g
         id="g10399"><g
           clip-path="url(#clipPath10405)"
           id="g10401"><g
             transform="scale(1.10664)"
             id="g10407"><path
               id="path10415"
               style="fill:url(#linearGradient10413);fill-opacity:1;fill-rule:nonzero;stroke:none"
               d="m 16300,12023 h -1555.4 v 247.7 H 16300 V 12023" /></g></g></g><g
         id="g10417"><g
           clip-path="url(#clipPath10423)"
           id="g10419"><path
             id="path10431"
             style="fill:url(#linearGradient10429);fill-opacity:1;fill-rule:nonzero;stroke:none"
             d="m 13991.7,15720 c -891.6,0 -1616.9,-725.4 -1616.9,-1617 0,-632.8 372.3,-1210.9 948.7,-1472.8 210.2,-95.6 435,-144.1 668.2,-144.1 233.2,0 458,48.5 668.2,144.1 576.4,261.9 948.8,840 948.8,1472.8 0,891.6 -725.4,1617 -1617,1617 z m 0,-3324 c -246.2,0 -483.6,51.2 -705.5,152.1 -608.4,276.5 -1001.6,886.9 -1001.6,1554.9 0,941.3 765.8,1707.1 1707.1,1707.1 941.3,0 1707.1,-765.8 1707.1,-1707.1 0,-668 -393.2,-1278.4 -1001.6,-1554.9 -221.9,-100.9 -459.3,-152.1 -705.5,-152.1" /></g></g><path
         id="path10433"
         style="fill:#4e7ed6;fill-opacity:1;fill-rule:nonzero;stroke:none"
         d="m 14774.8,11464.4 h -2490.2 v 244.4 h 2490.2 v -244.4" /><path
         id="path10435"
         style="fill:#e0e0e0;fill-opacity:1;fill-rule:nonzero;stroke:none"
         d="m 14774.8,10806.8 h -2490.2 v 244.4 h 2490.2 v -244.4" /><path
         id="path10437"
         style="fill:#e0e0e0;fill-opacity:1;fill-rule:nonzero;stroke:none"
         d="m 14774.8,10149.3 h -2490.2 v 244.4 h 2490.2 v -244.4" /><path
         id="path10439"
         style="fill:#4e7ed6;fill-opacity:1;fill-rule:nonzero;stroke:none"
         d="m 15698.8,11464.4 h -415.7 v 244.4 h 415.7 v -244.4" /><path
         id="path10441"
         style="fill:#e0e0e0;fill-opacity:1;fill-rule:nonzero;stroke:none"
         d="m 15698.8,10806.8 h -415.7 v 244.4 h 415.7 v -244.4" /><path
         id="path10443"
         style="fill:#e0e0e0;fill-opacity:1;fill-rule:nonzero;stroke:none"
         d="m 15698.8,10149.3 h -415.7 v 244.4 h 415.7 v -244.4" /><g
         id="g10445"><g
           clip-path="url(#clipPath10451)"
           id="g10447"><g
             transform="scale(1.69171)"
             id="g10453"><path
               id="path10465"
               style="fill:url(#radialGradient10463);fill-opacity:1;fill-rule:nonzero;stroke:none"
               d="m 15322.2,4263.27 c -874.9,-0.06 -1635.4,378.2 -2428.2,772.48 -107,53.14 -214.4,106.58 -322.5,159.3 v 208.96 c 136.6,-65.85 271.6,-133.06 406.2,-199.91 768.8,-382.34 1511.9,-747.24 2354.5,-747.24 307.3,0 627.8,48.53 967.8,162.44 v -201.04 c -366.7,-122.77 -655.3,-154.99 -977.8,-154.99 m -9150.03,326.89 c -808.32,0 -1092.55,350.24 -1097.51,372.53 v 244.54 c 1.12,-4.2 193.99,-426.97 1189.91,-426.97 5.91,0 11.82,0.06 17.79,0.06 147.25,0.77 283.14,22.11 412.48,59 100.37,28.61 196.79,66.62 291.6,111.48 196.13,92.93 385.23,215.58 587.4,346.75 494.7,320.98 1055.38,684.79 1961.62,777.41 31.87,3.26 63.55,6.18 95.06,8.76 v -188.66 c -25.19,-2.13 -50.54,-4.56 -75.96,-7.1 -861.08,-88.01 -1401.55,-438.73 -1878.4,-748.12 -228.23,-148.07 -449.84,-286.69 -689.72,-387.6 -93.93,-39.48 -190.64,-73.17 -291.6,-99.42 -129.1,-33.58 -265.29,-54.92 -411.54,-60.47 -38.06,-1.48 -75.19,-2.13 -111.13,-2.19" /></g></g></g><g
         transform="scale(1.30474)"
         id="g10467"><path
           id="path10469"
           style="fill:#ffffff;fill-opacity:1;fill-rule:nonzero;stroke:none"
           d="m 15727.3,3372.33 h -725.6 c 43.3,70.13 68.3,152.67 68.3,241.12 v 2921.97 c 217.3,164.71 430.8,324.2 641.3,476.04 199.1,-88.3 394.9,-181.11 588.7,-275.62 V 3945.09 c 0,-316.31 -256.4,-572.76 -572.7,-572.76 M 15070,6842.07 v 429.52 c 127.6,-46.37 253.5,-95.66 377.8,-147.08 -125.2,-92.28 -251.2,-186.71 -377.8,-282.44 m 1230,164.71 c -118.5,57.18 -237.7,113.51 -358.2,168.54 120.4,84.08 239.6,165.24 358.2,242.96 v -411.5 m -621.8,285.58 c -198.7,85.53 -400.9,166.08 -608.2,239.05 v 624.5 c 475.9,132.98 878.8,321.1 1220.1,540.96 6.5,-34.61 9.9,-70.34 9.9,-106.86 v -871.02 c -205.7,-133.17 -412.9,-276.41 -621.8,-426.63" /></g><g
         id="g10471"><g
           clip-path="url(#clipPath10477)"
           id="g10473"><g
             transform="scale(1.30394)"
             id="g10479"><path
               id="path10487"
               style="fill:url(#linearGradient10485);fill-opacity:1;fill-rule:nonzero;stroke:none"
               d="m 15079.2,8160.86 v 1007.47 h 657.7 c 279.9,0 513,-200.75 563.1,-466.18 -341.5,-220 -744.7,-408.23 -1220.8,-541.29" /></g></g></g><g
         id="g10489"><g
           clip-path="url(#clipPath10495)"
           id="g10491"><g
             transform="scale(1.30474)"
             id="g10497"><path
               id="path10505"
               style="fill:url(#linearGradient10503);fill-opacity:1;fill-rule:nonzero;stroke:none"
               d="m 15070,6535.42 v 306.65 c 126.6,95.73 252.6,190.16 377.8,282.44 88.5,-36.64 176.4,-74.43 263.5,-113.05 -210.5,-151.84 -424,-311.33 -641.3,-476.04 m 871.8,639.9 c -87.1,39.78 -175.1,78.95 -263.6,117.04 208.9,150.22 416.1,293.46 621.8,426.63 v -300.71 c -118.6,-77.72 -237.8,-158.88 -358.2,-242.96" /></g></g></g><g
         id="g10507"><g
           clip-path="url(#clipPath10513)"
           id="g10509"><g
             transform="scale(1.20628)"
             id="g10515"><path
               id="path10523"
               style="fill:url(#linearGradient10521);fill-opacity:1;fill-rule:nonzero;stroke:none"
               d="m 16226.1,3647.57 h -2100.6 c -192.3,0 -364,87.54 -477.7,224.99 h 2243.3 v 4129.3 c 138.3,-42.2 274.5,-88.04 408.9,-136.79 V 7400.51 7068.83 3908.37 c 0,-95.66 -27,-184.95 -73.9,-260.8 m 73.9,4498.53 c -134.3,47.34 -270.4,91.61 -408.9,132.31 v 1632.2 H 16300 V 8821.57 8146.1" /></g></g></g><g
         transform="scale(1.17602)"
         id="g10525"><path
           id="path10527"
           style="fill:#ffffff;fill-opacity:1;fill-rule:nonzero;stroke:none"
           d="m 16300,3972.22 h -2301 c -90.9,109.94 -145.5,250.93 -145.5,404.67 v 4103.16 c 183.2,15.65 361.9,22.96 536.8,22.96 690.3,0 1319.1,-115.13 1909.7,-295.23 V 3972.22 m 0,4519.23 c -587.9,172.89 -1214.9,282.42 -1903.7,282.42 -176.8,0 -357.6,-7.21 -542.8,-22.42 v 778.76 c 0,350.95 284.5,635.39 635.5,635.39 h 1811 V 8491.45" /></g><g
         id="g10529"><g
           clip-path="url(#clipPath10535)"
           id="g10531"><g
             transform="scale(1.30474)"
             id="g10537"><path
               id="path10549"
               style="fill:url(#radialGradient10547);fill-opacity:1;fill-rule:nonzero;stroke:none"
               d="m 16300,6735.84 c -193.8,94.51 -389.6,187.32 -588.7,275.62 -87.1,38.62 -175,76.41 -263.5,113.05 -124.3,51.42 -250.2,100.71 -377.8,147.08 -124.2,45.06 -250.1,87.45 -378.1,126.46 -532.3,162.33 -1099,266.1 -1721.2,266.1 -157.7,0 -318.8,-6.59 -483.9,-20.69 v 244.63 c 166.9,13.7 329.9,20.2 489.2,20.2 620.8,0 1186,-98.72 1715.9,-254.56 128.1,-37.63 254,-78.56 378.1,-122.32 207.3,-72.97 409.5,-153.52 608.2,-239.05 88.5,-38.09 176.5,-77.26 263.6,-117.04 120.5,-55.03 239.7,-111.36 358.2,-168.54 v -270.94" /></g></g></g><g
         transform="scale(1.27835)"
         id="g10551"><path
           id="path10553"
           style="fill:#e0e0e0;fill-opacity:1;fill-rule:nonzero;stroke:none"
           d="m 15742.5,7808.58 c -192.5,-68.76 -399.8,-6.65 -524.8,140.24 -29.8,35.01 -54.9,74.86 -74,118.92 -4.3,9.71 -8.2,19.66 -11.8,29.78 -36.3,101.68 -36.2,207.53 -6.2,303.18 43.2,138.08 148.4,254.94 295.1,307.4 48.4,17.32 97.8,26.33 146.5,27.82 201.5,6.08 392.6,-116.74 464.1,-316.71 88.8,-248.39 -40.6,-521.76 -288.9,-610.63 z m 439,664.3 c -95.4,266.7 -350.2,430.51 -618.9,422.43 -65,-1.95 -130.9,-13.98 -195.5,-37.08 -195.7,-70 -336,-225.85 -393.7,-409.99 -39.8,-127.61 -40.2,-268.8 8.4,-404.42 4.8,-13.49 10,-26.76 15.7,-39.72 25.5,-58.75 58.9,-111.88 98.7,-158.58 166.7,-195.97 443.4,-278.81 699.9,-187.05 331.4,118.51 503.9,483.11 385.4,814.41" /></g><g
         transform="scale(1.22089)"
         id="g10555"><path
           id="path10557"
           style="fill:#537ffd;fill-opacity:1;fill-rule:nonzero;stroke:none"
           d="m 15837.6,8796.08 -159.4,49.77 c 60.3,192.8 207.3,355.99 412.1,429.28 67.7,24.2 136.6,36.79 204.7,38.83 l 5,-166.89 c -51,-1.56 -102.7,-10.99 -153.4,-29.13 -153.7,-54.92 -263.8,-177.29 -309,-321.86" /></g><g
         transform="scale(1.18766)"
         id="g10559"><path
           id="path10561"
           style="fill:#4ba6f3;fill-opacity:1;fill-rule:nonzero;stroke:none"
           d="m 16300,8683.77 -157.4,-68.5 c -6,13.95 -11.7,28.24 -16.8,42.75 -52.3,145.98 -52,297.95 -9,435.3 l 163.8,-51.16 c -32.2,-102.95 -32.4,-216.89 6.7,-326.33 3.9,-10.89 8.2,-21.6 12.7,-32.06" /></g><g
         transform="scale(1.19347)"
         id="g10563"><path
           id="path10565"
           style="fill:#46bbed;fill-opacity:1;fill-rule:nonzero;stroke:none"
           d="m 16169.9,8403.52 c -42.6,50.02 -78.5,106.94 -105.8,169.86 l 156.6,68.16 c 20.5,-47.19 47.4,-89.87 79.3,-127.37 l -130.1,-110.65" /></g><g
         transform="scale(1.22157)"
         id="g10567"><path
           id="path10569"
           style="fill:#46bbed;fill-opacity:1;fill-rule:nonzero;stroke:none"
           d="m 16300,4998.16 h -359.4 V 3819.84 h 359.4 v 1178.32" /></g><g
         transform="scale(1.18153)"
         id="g10571"><path
           id="path10573"
           style="fill:#46bbed;fill-opacity:1;fill-rule:nonzero;stroke:none"
           d="m 16300,4825.84 h -371.6 v -876.57 h 371.6 v 876.57" /></g><g
         transform="scale(1.26041)"
         id="g10575"><path
           id="path10577"
           style="fill:#46bbed;fill-opacity:1;fill-rule:nonzero;stroke:none"
           d="m 16300,5373.41 h -348.3 V 3702.13 h 348.3 v 1671.28" /></g><g
         transform="scale(1.24992)"
         id="g10579"><path
           id="path10581"
           style="fill:#46bbed;fill-opacity:1;fill-rule:nonzero;stroke:none"
           d="m 13566.2,5003.44 -30.5,23.44 572.3,744.69 706.4,-38.32 532.7,848.21 573.8,59.2 344.8,682.05 34.3,-17.36 -354.3,-700.77 -576.1,-59.44 -534.7,-851.58 -708.7,38.49 -560,-728.61" /></g><g
         transform="scale(1.13204)"
         id="g10583"><path
           id="path10585"
           style="fill:#4e7ed6;fill-opacity:1;fill-rule:nonzero;stroke:none"
           d="m 16173.9,9613.07 h -1102.7 c -69.6,0 -126.1,56.45 -126.1,126.07 0,69.63 56.5,126.06 126.1,126.06 h 1102.7 c 69.7,0 126.1,-56.43 126.1,-126.06 0,-69.62 -56.4,-126.07 -126.1,-126.07" /></g><g
         transform="scale(1.13204)"
         id="g10587"><path
           id="path10589"
           style="fill:#e0e0e0;fill-opacity:1;fill-rule:nonzero;stroke:none"
           d="m 16173.9,9173.25 h -1102.7 c -69.6,0 -126.1,56.44 -126.1,126.06 0,69.63 56.5,126.06 126.1,126.06 h 1102.7 c 69.7,0 126.1,-56.43 126.1,-126.06 0,-69.62 -56.4,-126.06 -126.1,-126.06" /></g><g
         transform="scale(1.13204)"
         id="g10591"><path
           id="path10593"
           style="fill:#e0e0e0;fill-opacity:1;fill-rule:nonzero;stroke:none"
           d="m 16173.9,8733.42 h -1102.7 c -69.6,0 -126.1,56.44 -126.1,126.06 0,69.62 56.5,126.06 126.1,126.06 h 1102.7 c 69.7,0 126.1,-56.44 126.1,-126.06 0,-69.62 -56.4,-126.06 -126.1,-126.06" /></g><path
         id="path10595"
         style="fill:#b3b7c4;fill-opacity:1;fill-rule:nonzero;stroke:none"
         d="m 14255,6103.3 c 0,0 -494.5,139.8 -1098.5,0 l 289.8,1484.5 c 0,0 723.5,-767.1 808.7,-1484.5" /><g
         transform="scale(1.00806)"
         id="g10597"><path
           id="path10599"
           style="fill:#eea987;fill-opacity:1;fill-rule:nonzero;stroke:none"
           d="m 15695.6,8593.38 c 0,0 110.1,-78.86 142.6,-68.94 32.6,9.92 87.2,-6.06 118.2,-2.78 30.9,3.17 111.8,41.86 144.3,33.62 13.3,-3.37 86.9,-55.84 114.6,-59.81 27.7,-3.97 84.7,-5.26 80.9,-28.87 -3.8,-23.51 -55,-36.21 -55,-36.21 0,0 25,-5.16 28.1,-26.98 6.1,-42.46 -16.2,-57.34 -16.2,-57.34 0,0 22.3,-21.72 20.4,-39.98 -4.4,-40.17 -26.4,-53.96 -26.4,-53.96 0,0 9.6,-21.13 0.7,-47.12 -11.6,-33.23 -46.5,-38.19 -46.5,-38.19 0,0 -4.8,-45.04 -29.6,-51.09 -24.8,-6.06 -46.3,2.68 -66.8,3.27 -20.5,0.5 -196.7,61.41 -301.7,153.07 -104.9,91.56 -226.2,145.23 -226.2,145.23 l 118.6,176.08" /></g><path
         id="path10601"
         style="fill:#fccca2;fill-opacity:1;fill-rule:nonzero;stroke:none"
         d="m 13545.4,11700 c 0,0 -165.8,106.3 -315.2,-82.7 -149.5,-189.1 -95.7,-370.8 -64.5,-540.5 31,-168.3 181.7,-553.4 117.6,-723.1 -64,-169.6 17.8,-258 17.8,-258 0,0 514,-131.6 454.1,641.5 -59.9,773.1 -209.8,962.8 -209.8,962.8" /><path
         id="path10603"
         style="fill:#dbdff0;fill-opacity:1;fill-rule:nonzero;stroke:none"
         d="m 13765.6,10240.1 c 0,0 195.7,26.8 327.1,-71.7 131.4,-98.4 221.2,-282.9 261.3,-340.7 40.2,-57.9 509.2,-575.6 532.5,-585 23.4,-9.4 315.4,-170.5 512,-300.6 196.6,-130.2 506.5,-286.9 506.5,-286.9 l -168.1,-206.1 c 0,0 -827.9,296.4 -1000.2,456.7 -183.9,171.1 -1034.6,1020.5 -1034.6,1020.5 0,0 -213.8,172.8 63.5,313.8" /><path
         id="path10605"
         style="fill:#1d3b54;fill-opacity:1;fill-rule:nonzero;stroke:none"
         d="m 15189.5,3039.4 c 0,0 211.7,-285 182.7,-330.2 -29,-45.1 -251.7,-51.6 -387.2,0 -135.5,51.7 -138.7,385.7 -200,529.2 -25.7,60.1 29.2,237.4 106.5,250.3 77.2,12.8 161.2,-25 161.2,-25 0,0 -80.1,-202.1 136.8,-424.3" /><path
         id="path10607"
         style="fill:#eea886;fill-opacity:1;fill-rule:nonzero;stroke:none"
         d="m 15054.1,3466.1 c 0,0 44.5,-121.4 60.8,-237.3 13.5,-96.1 150.8,-300.2 144.4,-326 -6.5,-25.8 -180.7,-49.2 -251.7,17.4 -71,66.5 -116.6,260 -132.3,375.8 -14.5,107.8 -32.9,161.1 -32.9,161.1 0,0 143.9,79.9 211.7,9" /><path
         id="path10609"
         style="fill:#1d3b54;fill-opacity:1;fill-rule:nonzero;stroke:none"
         d="m 14779.3,3263.5 v -298.4 h 38.7 v 230.6 l -38.7,67.8" /><path
         id="path10611"
         style="fill:#1d3b54;fill-opacity:1;fill-rule:nonzero;stroke:none"
         d="m 13346.9,3034.7 c 0,0 204.1,-280.3 175,-325.5 -29,-45.1 -251.7,-51.6 -387.2,0 -135.5,51.7 -138.7,385.7 -200,529.2 -25.7,60.1 29.2,237.4 106.5,250.3 77.2,12.8 167.7,-27.7 167.7,-27.7 0,0 -79,-204.1 138,-426.3" /><path
         id="path10613"
         style="fill:#eea886;fill-opacity:1;fill-rule:nonzero;stroke:none"
         d="m 13208.9,3461 c 0,0 16.2,-132.3 42,-225.8 25.8,-93.6 164.5,-306.6 158.1,-332.4 -6.5,-25.8 -180.7,-49.2 -251.7,17.4 -71,66.5 -125.8,259.2 -132.3,375.8 -6.4,116.6 16.2,192.7 16.2,192.7 0,0 100,43.3 167.7,-27.7" /><path
         id="path10615"
         style="fill:#1d3b54;fill-opacity:1;fill-rule:nonzero;stroke:none"
         d="m 12929,3263.5 v -298.4 h 38.7 v 230.6 l -38.7,67.8" /><path
         id="path10617"
         style="fill:#3b3b40;fill-opacity:1;fill-rule:nonzero;stroke:none"
         d="m 14228.7,8100.8 c 0,0 181.7,-845 223.4,-1057.8 41.7,-212.8 158.5,-1243.3 171,-1418.5 12.5,-175.3 189.6,-835.5 181.2,-898.1 -8.3,-62.6 272.5,-1304.4 272.5,-1304.4 0,0 -289,-78.6 -337.7,-25.6 -41.3,45 -456.5,1180.5 -456.5,1493.4 0,432.5 -326.2,983.2 -367.5,1080 -383.4,898.9 -301.5,1187.7 -351.6,1246.1 -50,58.4 -54.4,-36.1 -83.6,-165.4 -29.2,-129.4 -91.7,-1247.5 -129.3,-1389.3 -37.5,-141.9 -8.3,-621.7 -29.2,-863.6 -20.9,-242 -44.9,-1326.2 -44.9,-1326.2 0,0 -209.3,-48.1 -308.8,-1.8 -28.6,13.4 -101,1207.8 -105.2,1495.7 -4.2,287.9 -8.6,684.9 -16.7,809.4 -77.3,1192.9 -191.3,1362.2 32,2207.5 428.2,1621.5 1350.9,118.6 1350.9,118.6" /><path
         id="path10619"
         style="fill:#e8734d;fill-opacity:1;fill-rule:nonzero;stroke:none"
         d="m 13758.5,10352.5 c 0,0 189.6,-89.5 255.4,-102.7 65.9,-13.2 321.3,-345 366.1,-466.1 44.7,-121.2 0,-302.9 -92.2,-516.2 -92.2,-213.3 -5.3,-284.4 -47.4,-497.7 -42.1,-213.3 -2.2,-713.3 5.7,-831.8 7.9,-118.5 -969,-269.1 -1344.5,109.3 0,0 203.8,382.7 235.4,435.4 31.6,52.7 5.2,339.7 -23.7,413.5 -29,73.7 -221.8,700.8 -221.8,700.8 0,0 -157.7,481.6 -15.3,592.2 123.8,96.1 461.2,130.4 521.7,151.5 60.6,21.1 236.8,30.2 360.6,11.8" /><path
         id="path10621"
         style="fill:#d6c5be;fill-opacity:1;fill-rule:nonzero;stroke:none"
         d="m 13819,9929.8 115.2,134.9 -100,355.2 c 0,0 -33.6,-197.8 -15.2,-490.1" /><path
         id="path10623"
         style="fill:#eea886;fill-opacity:1;fill-rule:nonzero;stroke:none"
         d="m 13849,10571.3 c 0,0 -37.9,-347.8 -30,-461.1 0,0 -197,-197.4 -421.1,230.5 0,0 94.3,176.4 23.3,416.7 -70.9,240.3 427.8,-186.1 427.8,-186.1" /><path
         id="path10625"
         style="fill:#eea886;fill-opacity:1;fill-rule:nonzero;stroke:none"
         d="m 13819,10110.2 v -180.4 l -226.7,169.5 z" /><path
         id="path10627"
         style="fill:#d6c5be;fill-opacity:1;fill-rule:nonzero;stroke:none"
         d="m 13819,9929.8 -94.1,116.6 -317.1,316 -102.6,-98.8 513.8,-333.8" /><path
         id="path10629"
         style="fill:#fae6de;fill-opacity:1;fill-rule:nonzero;stroke:none"
         d="m 13934.2,10064.7 145.2,-40.1 -245.2,395.3 z" /><path
         id="path10631"
         style="fill:#fae6de;fill-opacity:1;fill-rule:nonzero;stroke:none"
         d="m 13724.9,10046.4 -132.6,-173.9 -270.9,462.6 94.3,48.3 309.2,-337" /><path
         id="path10633"
         style="fill:#a77860;fill-opacity:1;fill-rule:nonzero;stroke:none"
         d="m 13841.2,10494.8 -6.5,-69.7 c 0,0 -156.6,-29.4 -361.6,220.5 0,0 145.3,-177.2 368.1,-150.8" /><path
         id="path10635"
         style="fill:#eea987;fill-opacity:1;fill-rule:nonzero;stroke:none"
         d="m 13801.4,10489.7 c 61.7,2.2 233.9,22.4 318.9,419.1 103.8,484.7 -125.6,736.1 -322,782.6 -196.3,46.6 -377.4,-21.6 -478,-275 0,0 -73.5,-197.5 45.8,-549.3 119.3,-351.9 369.3,-379.8 435.3,-377.4" /><path
         id="path10637"
         style="fill:#fccca2;fill-opacity:1;fill-rule:nonzero;stroke:none"
         d="m 13643.9,11377.1 c 0,0 263.7,-16.4 508.8,-384.7 0,0 114.8,443.1 -185.1,645.4 -300,202.2 -510,28.3 -583.2,-59.9 0,0 -104.9,-24.1 -108.2,-223.2 -3.3,-199.1 -137.2,-499.6 156.6,-642.1 0,0 -28,227.3 -2.1,279.3 25.8,52 115.6,16.9 213.2,385.2" /><path
         id="path10639"
         style="fill:#eea987;fill-opacity:1;fill-rule:nonzero;stroke:none"
         d="m 13445.1,11080.2 c -13.3,34.4 -49.5,48.3 -69.5,11.4 -19.9,-37 3.8,-180.3 57,-196 53.3,-15.7 39.4,114.7 12.5,184.6" /><path
         id="path10641"
         style="fill:#dbdff0;fill-opacity:1;fill-rule:nonzero;stroke:none"
         d="m 13321.4,10335.1 c 0,0 297.9,-356.3 329.1,-1105.4 31.2,-749.1 -234.6,-3141.5 -218.1,-3433.4 l -772.4,373.9 c 0,0 4.4,1207.1 263.1,1966.5 303.4,891.1 -41.7,1162.9 -73.2,1711.1 0,0 14.3,401.3 238,437.7 210,34.3 233.5,49.6 233.5,49.6" /><path
         id="path10643"
         style="fill:#dbdff0;fill-opacity:1;fill-rule:nonzero;stroke:none"
         d="m 13920,10281.6 c 0,0 121.2,-14 159.4,-59.3 38.3,-45.3 277.7,-321.3 295.2,-402.5 17.4,-81.3 73.2,-141.9 -41.6,-520.3 -102.8,-338.9 -77,-718.5 -55.7,-870.6 21.3,-152 391.1,-2206 370.9,-2258.7 -20.3,-52.7 -174.3,-178.4 -174.3,-178.4 0,0 -331.3,2026.7 -327.8,2365.2 3.5,338.5 136.1,1346.3 -226.1,1924.6" /><g
         transform="scale(1.00944)"
         id="g10645"><path
           id="path10647"
           style="fill:#616161;fill-opacity:1;fill-rule:nonzero;stroke:none"
           d="m 16300,9125.94 -255.9,-1317.47 -845.6,164.25 222.8,1323.9 878.7,-170.68" /></g><g
         transform="scale(1.00551)"
         id="g10649"><path
           id="path10651"
           style="fill:#e0cec7;fill-opacity:1;fill-rule:nonzero;stroke:none"
           d="m 16300,9097.28 -228.1,-1174.63 -754,146.4 198.7,1180.39 783.4,-152.16" /></g><path
         id="path10653"
         style="fill:#616161;fill-opacity:1;fill-rule:nonzero;stroke:none"
         d="m 16149.5,9163.6 16.1,82.9 -306.5,59.5 -28.1,-80.6 318.5,-61.8" /><g
         transform="scale(1.00884)"
         id="g10655"><path
           id="path10657"
           style="fill:#db9c7c;fill-opacity:1;fill-rule:nonzero;stroke:none"
           d="m 16214.5,8434.54 c 0,0 -151.5,49.46 -196.4,21.01 -44.9,-28.45 8.8,-49.26 8.8,-49.26 0,0 -52.8,21.4 -73.6,-18.04 -21,-39.56 43.2,-60.57 43.2,-60.57 0,0 -44.2,5.65 -49.8,-40.74 -5.5,-46.39 51.5,-51.94 51.5,-51.94 0,0 -66.1,-26.07 -24.4,-68.4 70.4,-71.27 187.5,-60.76 187.5,-60.76 0,0 28.9,7.04 31.1,52.04 0,0 69.8,12 47.4,87.03 0,0 56.5,61.76 0.6,94.66 0,0 59.6,70.48 -25.9,94.97" /></g><path
         id="path10659"
         style="fill:#eea886;fill-opacity:1;fill-rule:nonzero;stroke:none"
         d="m 12657.6,7745.6 c 0,0 -30.8,-143.8 32.1,-241.1 24.1,-37.2 0.9,-318.5 -1.2,-353.6 -1.8,-29.4 -28.3,-54.5 -39.3,-48.5 -10.9,6.1 -13.3,161.8 -29.8,212 -14,42.1 -26.3,58 -33.9,44.5 -7.6,-13.4 18.2,-239.4 33,-314.2 14.8,-74.8 -3.7,-232.5 -42.6,-207.1 -38.9,25.5 -168.6,375.6 -159,492.5 9.6,116.9 53.8,262.9 53.8,262.9 l 186.9,152.6" /><path
         id="path10661"
         style="fill:#dbdff0;fill-opacity:1;fill-rule:nonzero;stroke:none"
         d="m 13275.8,10313.9 c 0,0 -308.5,19 -463.2,-161 -154.7,-180 -146.3,-393.8 -185.7,-486.7 -39.3,-92.8 -129.4,-492.2 -149,-556.9 -19.7,-64.7 -38.9,-428.4 -67.1,-720.9 -28.1,-292.6 -22.4,-838.9 -22.4,-838.9 l 295.1,53.5 c 0,0 11.9,520.8 19.4,822.7 7.5,302 253.2,835.5 346,1069 92.8,233.4 462.4,672.7 226.9,819.2" /><g
         id="g10663"><g
           clip-path="url(#clipPath10669)"
           id="g10665"><path
             id="path10677"
             style="fill:url(#linearGradient10675);fill-opacity:1;fill-rule:nonzero;stroke:none"
             d="m 6866.8,6893.2 h 502.58 l -153.83,319 h -502.59 l 153.84,-319" /></g></g><g
         id="g10679"><g
           clip-path="url(#clipPath10685)"
           id="g10681"><path
             id="path10693"
             style="fill:url(#linearGradient10691);fill-opacity:1;fill-rule:nonzero;stroke:none"
             d="m 6631.63,6893.2 h 119.76 l -153.84,319 H 6477.8 l 153.83,-319" /></g></g><g
         id="g10695"><g
           clip-path="url(#clipPath10701)"
           id="g10697"><g
             transform="scale(1.22271)"
             id="g10703"><path
               id="path10711"
               style="fill:url(#linearGradient10709);fill-opacity:1;fill-rule:nonzero;stroke:none"
               d="m 15486.2,13954.9 h 813.8 v 147.4 h -813.8 v -147.4" /></g></g></g><g
         id="g10713"><g
           clip-path="url(#clipPath10719)"
           id="g10715"><g
             transform="scale(1.22271)"
             id="g10721"><path
               id="path10729"
               style="fill:url(#linearGradient10727);fill-opacity:1;fill-rule:nonzero;stroke:none"
               d="m 15486.2,14143.4 h 813.8 v 27.7 h -813.8 v -27.7" /></g></g></g><g
         transform="scale(1.38589)"
         id="g10731"><path
           id="path10733"
           style="fill:#b3b7c4;fill-opacity:1;fill-rule:nonzero;stroke:none"
           d="m 16300,4215.42 c 0,0 -356.8,100.87 -792.6,0 l 209.1,1071.22 c 0,0 522.1,-553.51 583.5,-1071.22" /></g><g
         transform="scale(1.33028)"
         id="g10735"><path
           id="path10737"
           style="fill:#2d2d30;fill-opacity:1;fill-rule:nonzero;stroke:none"
           d="m 15979.4,2480.53 c 0,0 -169.3,-287.01 -240.9,-333.92 -97,-63.67 -36.2,-128.02 9.9,-128.09 46.1,-0.08 281.5,-16.92 333.4,41.94 51.8,58.87 77.6,235.29 125.8,281.45 48.3,46.16 92.4,216.42 -23.4,274.15 -127.2,63.3 -204.8,-135.53 -204.8,-135.53" /></g><g
         transform="scale(1.32182)"
         id="g10739"><path
           id="path10741"
           style="fill:#eea886;fill-opacity:1;fill-rule:nonzero;stroke:none"
           d="m 16145.6,2647.86 c 0,0 -185.3,-362.68 -219,-412.69 -33.6,-50 63.4,-49.93 123.5,-26.17 60.1,23.75 216.1,264.4 233,310.63 16.9,46.22 4.6,113.18 4.6,113.18 l -142.1,15.05" /></g><g
         transform="scale(1.32614)"
         id="g10743"><path
           id="path10745"
           style="fill:#2d2d30;fill-opacity:1;fill-rule:nonzero;stroke:none"
           d="m 16300,2433.53 -44.9,-345.74 -23.8,-1.06 7.4,248.69 61.3,98.11" /></g><g
         transform="scale(1.44632)"
         id="g10747"><path
           id="path10749"
           style="fill:#2d2d30;fill-opacity:1;fill-rule:nonzero;stroke:none"
           d="m 16032.9,2538.93 c 0,0 -37.3,-304.22 -80.4,-370.05 -58.4,-89.33 16.5,-121.27 55.4,-104.4 38.9,16.94 243.6,89.2 265.7,157.92 22,68.66 -21,226.92 2.7,283.48 23.7,56.62 -1.6,216.41 -120.6,222.56 -130.4,6.64 -122.8,-189.51 -122.8,-189.51" /></g><g
         transform="scale(1.43708)"
         id="g10751"><path
           id="path10753"
           style="fill:#eea886;fill-opacity:1;fill-rule:nonzero;stroke:none"
           d="m 16134.3,2706.46 c 0,0 -23.1,-373.95 -33,-428.44 -10.1,-54.48 71.7,-18.78 113.7,23.31 41.9,42.1 85,302.28 82.3,347.52 -2.7,45.23 -37.7,97.14 -37.7,97.14 l -125.3,-39.53" /></g><g
         transform="scale(1.45247)"
         id="g10755"><path
           id="path10757"
           style="fill:#2d2d30;fill-opacity:1;fill-rule:nonzero;stroke:none"
           d="m 16211.5,2581.05 88.5,-305.76 -19.5,-9.57 -84.5,210.88 15.5,104.45" /></g><g
         transform="scale(1.29191)"
         id="g10759"><path
           id="path10761"
           style="fill:#eea886;fill-opacity:1;fill-rule:nonzero;stroke:none"
           d="m 16299.1,5960.33 c 0,0 -5.4,-64.48 -1.2,-133.21 2.1,-33.52 -53.4,-232.06 -62.5,-257.14 -7.6,-21.06 -17.8,-4.03 -20.7,12.31 -1.6,9.36 6.7,81.35 5.3,121.44 -1.1,33.67 -6.7,47.84 -15.1,39.64 -8.5,-8.13 -57.5,-131.59 -62.7,-189.18 -5.2,-57.67 -56,-178.42 -78.8,-151.56 -22.9,26.86 -19.4,272.7 12.5,355.75 32,83.06 95.4,179.89 95.4,179.89 l 127.8,22.06" /></g><g
         transform="scale(1.35702)"
         id="g10763"><path
           id="path10765"
           style="fill:#dbdff0;fill-opacity:1;fill-rule:nonzero;stroke:none"
           d="m 15542.1,5628.78 c 8.9,25.21 226.1,373.62 278.1,484.52 52,110.98 97.6,212.89 122,256.22 1.7,2.88 4.3,7.89 7.8,14.59 17,32.36 54,104.65 91.3,171.85 2.6,4.72 5.2,9.36 7.8,14 l 6.5,26.75 c 26.2,46.5 11.1,77.53 16.1,116.73 1.6,11.79 4.9,24.32 11.8,38.17 l 0.7,1.55 c 31.8,62.86 56.8,118.12 64.7,150.03 26.1,106.04 151.1,576.6 151.1,576.6 0,0 -201.8,-71.16 -233.3,-143.44 -47.7,-109.73 -103.8,-274.94 -119.1,-326.01 -15.3,-51.14 -157.8,-474.42 -187.2,-560.42 -29.4,-86 -59.5,-158.14 -92.2,-213.19 -32.7,-55.04 -269.1,-553.41 -285.6,-598.66 0,0 150.6,-34.49 159.5,-9.29" /></g><g
         transform="scale(1.37422)"
         id="g10767"><path
           id="path10769"
           style="fill:#3b3b40;fill-opacity:1;fill-rule:nonzero;stroke:none"
           d="m 16189.8,5103.62 c -8.2,-39.44 -60.4,-204.48 -118.9,-387.93 v 0 c -53.4,-167.15 -112,-349.58 -147,-466.01 -13.1,-43.44 -23,-77.64 -28.1,-98.46 -33.7,-137.82 4.2,-354.01 16.4,-534.7 12.3,-180.68 -56.7,-1096.55 -56.7,-1096.55 -46,-21.39 -340.7,16.67 -340.7,16.67 33.6,64.33 44.1,1216.47 25.8,1286.84 -18.4,70.44 -30.6,266.47 -12.2,343.03 3.7,15.71 5.6,36.45 5.9,61.41 1.6,96.64 -18.3,256.44 -30.5,431.67 -15.3,220.48 70.5,768.65 82.7,817.62 1.1,4.52 2.9,10.85 5.2,18.63 22.5,76.92 95.2,295.15 95.2,295.15 147.3,43.81 258.2,51.74 341,34.86 109.6,-22.27 169.9,-88.05 200.1,-171.59 72,-199.31 -27.6,-499.48 -38.2,-550.64" /></g><g
         transform="scale(1.43685)"
         id="g10771"><path
           id="path10773"
           style="fill:#3b3b40;fill-opacity:1;fill-rule:nonzero;stroke:none"
           d="m 16300,2746.56 -225.8,-182.97 c -24.3,117.13 -543.2,1043.46 -578.6,1134.28 -35.3,90.76 -73,266.49 -73,330.94 0,11.55 -0.8,30.9 -2.4,56.09 -6.3,97.71 -24.2,281.86 -49.9,425.24 -4.7,26.79 -9.8,52.12 -15.1,75.16 -28.4,123.67 -33.2,546.12 -33.6,794.51 -0.1,110.59 0.6,186.66 0.6,186.66 0,0 2.5,1.95 7.1,5.43 53.4,40.44 396,286.88 515.4,56.51 31.6,-60.9 52.1,-126.18 64.7,-194.31 38.3,-208.72 0.7,-443.89 -30.3,-658.04 -26.4,-183.31 -77.1,-442.28 -91.6,-634.51 -8.1,-105.71 -5.2,-191.25 18.8,-232.8 67.4,-117.2 133.2,-216.37 269.4,-629.71 44.3,-134.46 224.3,-532.48 224.3,-532.48" /></g><g
         transform="scale(1.42226)"
         id="g10775"><path
           id="path10777"
           style="fill:#2d3133;fill-opacity:1;fill-rule:nonzero;stroke:none"
           d="m 15394.4,7777.98 c 0,0 -75.3,486.93 328,477.94 403.3,-8.97 397.9,-249.75 390.7,-488.72 -7.2,-238.97 -161.7,-221 12.6,-553.42 174.3,-332.4 -151,-332.4 -151,-332.4 l -252.3,346.78 -328,549.82" /></g><g
         transform="scale(1.40015)"
         id="g10779"><path
           id="path10781"
           style="fill:#eea886;fill-opacity:1;fill-rule:nonzero;stroke:none"
           d="m 15925.9,8338.85 c 0,0 -277.5,-43.81 -288.4,-438.05 -10.9,-394.23 74.8,-478.19 317.6,-396.06 242.7,82.13 319.4,494.62 324.8,558.51 5.5,63.87 20.1,323.05 -354,275.6" /></g><g
         transform="scale(1.40995)"
         id="g10783"><path
           id="path10785"
           style="fill:#e55353;fill-opacity:1;fill-rule:nonzero;stroke:none"
           d="m 16298.9,6919.18 c 1.1,-134.83 -153.9,-457.04 -177.8,-556.55 -23.8,-99.5 -61.6,-131.35 -29.8,-258.73 31.9,-127.31 130.5,-558.18 126.6,-595.98 -4,-37.8 -602.7,-227.88 -1021.3,-151.35 0,0 162.9,608.18 174.9,677.82 11.9,69.65 -14.5,330.73 -20.5,404.35 -6,73.69 -80.5,232.13 -78,305.89 2.6,75.25 39.5,140.15 91.2,220.43 16,24.9 32.8,50.22 49.6,74.9 54.7,80.33 109.4,153.24 136.2,178.35 20,18.67 38.7,32.98 54.9,43.78 l 0.1,0.09 c 33.8,22.5 56.5,29.76 56.5,29.76 l 236.8,37.81 c 0,0 147.6,-53.39 232.5,-73.26 0,0 165.7,-24.16 168.1,-337.31" /></g><g
         transform="scale(1.34983)"
         id="g10787"><path
           id="path10789"
           style="fill:#e55353;fill-opacity:1;fill-rule:nonzero;stroke:none"
           d="m 16300,7585.61 -143.4,-225.97 -132.3,-208.46 c 0.3,1.1 9.1,32.66 24.1,124.08 2.9,17.34 5.9,36.9 9.2,58.75 1,6.45 2.4,12.89 4.1,19.26 v 0 c 56.6,130.54 231.8,228.99 238.2,232.25 l 0.1,0.09" /></g><g
         transform="scale(1.38599)"
         id="g10791"><path
           id="path10793"
           style="fill:#eea886;fill-opacity:1;fill-rule:nonzero;stroke:none"
           d="m 16275.8,7760.8 c -24.4,-45.87 -50,-330.63 -50,-330.63 0,0 -342.8,-129.57 -307.7,-56.28 15.9,33.25 20.6,76.42 20.9,113.63 0.3,29.32 -2.1,54.96 -3.8,69.17 -0.9,7.49 -1.6,11.8 -1.6,11.8 0,0 366.4,238.21 342.2,192.31" /></g><g
         transform="scale(1.41618)"
         id="g10795"><path
           id="path10797"
           style="fill:#2d3133;fill-opacity:1;fill-rule:nonzero;stroke:none"
           d="m 15633.6,7964.72 c 0,0 140.8,-229.17 268.9,-319.39 128.1,-90.23 63.2,-162.4 63.2,-162.4 0,0 334.3,703.75 16.5,752.46 -317.9,48.73 -512.7,52.33 -521.8,-424.05 0,0 144.4,156.99 173.2,153.38" /></g><g
         transform="scale(1.37159)"
         id="g10799"><path
           id="path10801"
           style="fill:#a77860;fill-opacity:1;fill-rule:nonzero;stroke:none"
           d="m 16300,7665.66 c -53.1,-78.44 -193.6,-99.54 -193.6,-99.54 v 0 c 0.2,29.63 -2.2,55.54 -3.9,69.9 90.3,-17.39 197.5,29.64 197.5,29.64" /></g><g
         transform="scale(1.34982)"
         id="g10803"><path
           id="path10805"
           style="fill:#dbdff0;fill-opacity:1;fill-rule:nonzero;stroke:none"
           d="m 16062.5,7354.9 v 0 c 0,0 -7.6,-15.86 -13.9,-79.57 l 51.8,78.23 c 0,0 92.6,132.77 124.3,167.28 31.7,34.52 75.3,64.75 75.3,64.75 0,0 -182.2,-87.53 -237.5,-230.69" /></g><g
         transform="scale(1.40217)"
         id="g10807"><path
           id="path10809"
           style="fill:#eea886;fill-opacity:1;fill-rule:nonzero;stroke:none"
           d="m 16213.9,6264.28 c 0,0 -100.1,-35.23 -193.2,-54.91 -93,-19.69 3.2,-131.16 3.2,-131.16 0,0 161.1,14.91 238.6,22.47 37.5,3.64 -48.6,163.6 -48.6,163.6" /></g><g
         transform="scale(1.4124)"
         id="g10811"><path
           id="path10813"
           style="fill:#e55353;fill-opacity:1;fill-rule:nonzero;stroke:none"
           d="m 16020.2,6839.78 c 0,0 215.9,84.68 279.8,89.64 0,0 -43.5,346.69 -255.5,309.94 -212.1,-36.74 -24.3,-399.58 -24.3,-399.58" /></g><g
         transform="scale(1.38615)"
         id="g10815"><path
           id="path10817"
           style="fill:#eea886;fill-opacity:1;fill-rule:nonzero;stroke:none"
           d="m 15930.4,7417.16 c 0,0 -161.5,-248.3 -106.8,-270.01 54.7,-21.71 350.6,28.93 476.4,264.81 0,0 -188.1,96.46 -369.6,5.2" /></g><g
         transform="scale(1.42067)"
         id="g10819"><path
           id="path10821"
           style="fill:#dbdff0;fill-opacity:1;fill-rule:nonzero;stroke:none"
           d="m 15830.5,7258.54 c 0,0 -167,-277.28 -189.1,-804.56 -21.9,-527.22 165.2,-2211.28 153.6,-2416.67 l 505,218.2 c 0,0 -190.4,1377.1 -253.5,1639.72 -63.3,262.62 136.3,608.02 158.5,993.82 0,0 -14,264.68 -167.6,308.14 -153.4,43.46 -206.9,61.35 -206.9,61.35" /></g><g
         transform="scale(1.42675)"
         id="g10823"><path
           id="path10825"
           style="fill:#eea886;fill-opacity:1;fill-rule:nonzero;stroke:none"
           d="m 16099.1,6950.14 c 0,0 -37.5,253.55 -223.3,211.76 -178.6,-40.15 -11.3,-372.62 1.8,-411.94 13.1,-39.39 145.3,-360.89 156.8,-403.01 36.3,-133.24 2.3,-136.32 -52.3,-167.79 -161,-92.73 -492.1,-86.64 -530.3,-112.15 -38.2,-25.44 -35.8,-104.78 28.3,-107.58 83.5,-3.58 560.4,41.35 626.9,47.86 64.5,6.32 193,11.71 159.3,241.04 -22.7,154.41 -167.2,701.81 -167.2,701.81" /></g><g
         transform="scale(1.35472)"
         id="g10827"><path
           id="path10829"
           style="fill:#dbdff0;fill-opacity:1;fill-rule:nonzero;stroke:none"
           d="m 16300,7589.24 c 0,0 -186.3,-309.2 -196.1,-675.55 -9.7,-366.27 -350.8,-1927.11 -314.9,-2726.54 l -79.4,76.84 c -25.7,24.87 -39.3,59.64 -37.1,95.3 13.7,229.71 74.3,1106.65 224.2,1587.11 173.6,556.14 27.7,924.77 -1.4,1024.06 -29.3,99.21 64,231.34 95.3,278.58 31.3,47.24 106,264.48 309.4,340.2" /></g><g
         transform="scale(1.4015)"
         id="g10831"><path
           id="path10833"
           style="fill:#616161;fill-opacity:1;fill-rule:nonzero;stroke:none"
           d="m 16148.2,6697.05 151.8,-954.62 -612.8,-97.39 -175.6,950.84 636.6,101.17" /></g><g
         transform="scale(1.3977)"
         id="g10835"><path
           id="path10837"
           style="fill:#e0cec7;fill-opacity:1;fill-rule:nonzero;stroke:none"
           d="m 16164.9,6656.01 135.1,-850.11 -545.6,-86.72 -156.4,846.75 566.9,90.08" /></g><g
         transform="scale(1.37193)"
         id="g10839"><path
           id="path10841"
           style="fill:#616161;fill-opacity:1;fill-rule:nonzero;stroke:none"
           d="m 16300,6732.21 -9.7,60.79 -224.7,-35.71 0.9,-62.18 233.5,37.1" /></g><g
         transform="scale(1.37842)"
         id="g10843"><path
           id="path10845"
           style="fill:#eea886;fill-opacity:1;fill-rule:nonzero;stroke:none"
           d="m 16296.8,6316.38 c 0,0 -102.9,-17.2 -112.5,-15.68 -9.6,1.6 -50.2,68.2 -97.4,80.17 -47.1,11.97 -106,21.18 -120.5,30.18 -14.6,9.07 -18.5,-37.15 26.7,-56.01 45.3,-18.86 56.6,-44.18 -28.2,-61.15 -46.9,-9.44 -222.1,10.15 -207.6,-19.45 8.5,-17.41 177.5,-29.82 177.5,-29.82 0,0 -182.3,0.8 -188.5,-10.22 -12.2,-21.7 170.6,-29.38 178.3,-28.66 0,0 -156.7,-9 -158,-23.07 -1.8,-17.41 156.9,-10.01 155.4,-12.84 0,0 -124.5,-8.63 -123.2,-19.22 1.6,-13.93 111.2,-15.6 132.4,-13.14 21.2,2.47 236,26.92 271.9,34.1 36.3,7.26 96.9,11.39 96.9,11.39 l -3.2,133.42" /></g><g
         transform="scale(1.42664)"
         id="g10847"><path
           id="path10849"
           style="fill:#dbdff0;fill-opacity:1;fill-rule:nonzero;stroke:none"
           d="m 16129.3,6923.2 c 0,0 170.7,-646.2 156.5,-805.32 -14.2,-159.12 -629.1,-188.77 -629.1,-188.77 v 167.39 c 0,0 321.9,71.5 382.3,145.38 31.4,38.41 -178.7,529.63 -178.7,529.63 0,0 -188,307.36 -9.8,385.62 178.2,78.26 254.8,-140.55 278.8,-233.93" /></g><path
         id="path10851"
         style="fill:#eea886;fill-opacity:1;fill-rule:nonzero;stroke:none"
         d="m 8354.54,7378.6 c 0,0 -144.45,-71.7 -281.29,-85.2 0,0 -129.31,189.6 -204.97,331.5 -180.49,338.5 -233.77,497 -218.37,627 27.66,233.7 487.2,1168.5 487.2,1168.5 l 510.09,-196.9 -390.51,-694 c -36.45,-71.1 -83.48,-186.7 -132.07,-280.7 -63.68,-123.3 12.98,-405.3 58.36,-523 0,0 83.24,-228.1 171.56,-347.2" /><path
         id="path10853"
         style="fill:#353a3d;fill-opacity:1;fill-rule:nonzero;stroke:none"
         d="m 6760.46,3528 c 0,0 -15.04,-84.6 43.5,-197.6 58.54,-112.9 320.8,-400.8 302.74,-519 -18.05,-118.3 -321.13,-104.3 -511.44,103.8 -190.31,208.2 -472.97,424.3 -462.55,474.3 10.43,50 295.84,309.7 395.07,344.2 99.22,34.5 232.68,-205.7 232.68,-205.7" /><path
         id="path10855"
         style="fill:#eea886;fill-opacity:1;fill-rule:nonzero;stroke:none"
         d="m 6865.1,3639.3 -107.18,-115.5 -241.03,205.5 110.81,128.5 237.4,-218.5" /><path
         id="path10857"
         style="fill:#248c9e;fill-opacity:1;fill-rule:nonzero;stroke:none"
         d="m 6534.13,3857.8 c 117.58,133.3 1066.51,1104.3 1066.51,1104.3 483.97,557.9 673.34,572.6 673.34,572.6 0,0 122.3,-2.6 288.32,-25.2 23.85,-3.4 101.55,-2.5 126.47,-6.6 308.16,-49.9 316.74,-14.8 204.14,-267.2 C 8707.63,4820.6 6849.8,3622.8 6849.8,3622.8 l -315.67,235" /><path
         id="path10859"
         style="fill:#353a3d;fill-opacity:1;fill-rule:nonzero;stroke:none"
         d="m 10869.2,3351.8 c 0,0 152.2,-66.4 286.3,-84.7 134.1,-18.2 457.1,35 548.9,-53.1 91.7,-88.1 -106,-343.1 -403.6,-381.1 -297.5,-38 -678.6,-101 -715.7,-61.3 -37.1,39.6 -68,396.4 -37.3,503.8 30.8,107.5 321.4,76.4 321.4,76.4" /><path
         id="path10861"
         style="fill:#eea886;fill-opacity:1;fill-rule:nonzero;stroke:none"
         d="m 10805.3,3509.5 63.9,-157.7 -321.4,-76.4 -48.5,168.9 306,65.2" /><path
         id="path10863"
         style="fill:#248c9e;fill-opacity:1;fill-rule:nonzero;stroke:none"
         d="m 10322.9,5503.2 c 0,0 -130.7,498.8 176.4,-676.3 0,0 323.7,-1253.9 359.4,-1325.2 8.4,-16.9 -405.9,-92.7 -413.5,-89.7 -72.1,28.8 -717.08,1635.3 -877.37,1932 -141.16,261.2 755.07,159.2 755.07,159.2" /><path
         id="path10865"
         style="fill:#248c9e;fill-opacity:1;fill-rule:nonzero;stroke:none"
         d="m 10323.1,5503.2 -644.78,-370.9 c 0,0 -253.68,311.6 -421.73,438.8 -17.27,12.9 -34.53,26 -52.04,39.6 -24.81,18.7 -49.62,38 -74.43,57.4 -18,14.1 -36.24,28.5 -53.99,42.8 -122.82,98 -237.61,197 -300.85,270.2 -182.65,210.9 217.19,1544.1 722.09,949.5 0,0 676.83,-635.5 825.73,-1427.4" /><path
         id="path10867"
         style="fill:#248c9e;fill-opacity:1;fill-rule:nonzero;stroke:none"
         d="m 9457.08,7088.7 c 0,0 -317.73,-1459.9 -630.89,-1956.5 0,0 -531.84,179.3 -776.11,275.1 0,0 -23.71,1055 -0.13,1330.7 21.99,257.2 1407.13,350.7 1407.13,350.7" /><path
         id="path10869"
         style="fill:#2aa3b8;fill-opacity:1;fill-rule:nonzero;stroke:none"
         d="m 7986.1,6576.7 c 0,0 133.96,1311.8 23.02,1922.2 -73.8,405.8 32.96,1064.3 276.24,1419.6 29.48,43.1 60.09,81.5 91.68,114.1 0,0 491.12,-130 540.26,-164.3 7.01,-4.9 60.11,-51.9 127.36,-134.2 h 0.09 c 139.73,-171.4 346.1,-481.7 366.17,-782.9 14.56,-219.1 26.6,-420.3 40.3,-627.9 4.1,-63.2 8.45,-126.9 12.99,-192 10.99,-156.2 23.55,-319.8 39.25,-500.1 8.73,-100.3 76.33,-418.5 120.81,-712 L 7986.1,6576.7" /><path
         id="path10871"
         style="fill:#196370;fill-opacity:1;fill-rule:nonzero;stroke:none"
         d="m 9204.55,5610.7 c -24.81,18.7 -49.62,38 -74.43,57.4 -18,14.1 -36.24,28.5 -53.99,42.8 25.78,82.2 165.89,457.2 220.85,725 0,0 40.6,-417.1 -92.43,-825.2" /><path
         id="path10873"
         style="fill:#1d6f7d;fill-opacity:1;fill-rule:nonzero;stroke:none"
         d="m 9464.21,8131.3 c 0,0 -285.84,-434.4 -336.51,638.4 l 323.52,-446.4 c 4.1,-63.2 8.45,-126.9 12.99,-192" /><path
         id="path10875"
         style="fill:#eea886;fill-opacity:1;fill-rule:nonzero;stroke:none"
         d="m 8377,10032.7 c 0,0 51.2,283.7 -8.45,448.7 -59.63,164.8 488.69,-278 488.69,-278 0,0 0,-23 0.92,-57.3 0.73,-26.8 2.2,-60.5 4.59,-95.9 4.95,-67.6 13.94,-141.2 30.64,-183.4 36.7,-92.8 -516.39,165.9 -516.39,165.9" /><path
         id="path10877"
         style="fill:#eea886;fill-opacity:1;fill-rule:nonzero;stroke:none"
         d="m 9169.95,11026.9 c 0,0 115.56,-217.7 57.34,-251 -48.1,-27.6 54.55,-241.1 67.92,-276 13.4,-34.9 -87.19,-59.5 -108.65,-81.7 -21.47,-22.3 -86.54,-297.3 -169.28,-305 -82.75,-7.8 -454.51,124.2 -555.27,230.4 -100.76,106.2 -180.85,583.3 -111.8,783.8 69.06,200.5 615.75,279.9 819.74,-100.5" /><path
         id="path10879"
         style="fill:#3b3b40;fill-opacity:1;fill-rule:nonzero;stroke:none"
         d="m 9192.98,10979.8 c 0,0 121,233.5 -94.79,408.7 -215.79,175.2 -617.85,-127.1 -663.02,-138.5 -45.16,-11.3 -312.99,-96.8 -178.59,-495.1 121.94,-361.4 137.61,-402.2 137.61,-402.2 0,0 74.08,240.2 121.21,274 73.61,52.7 234.14,38.8 234.14,38.8 0,0 -75.18,203.7 44.61,231.7 119.79,28 278.13,128.3 398.83,82.6" /><path
         id="path10881"
         style="fill:#eea886;fill-opacity:1;fill-rule:nonzero;stroke:none"
         d="m 8622.9,10782.7 c -10.37,28 -43.68,148 -146.93,78.3 -103.26,-69.6 62.08,-296.5 79.98,-299.5 17.9,-3.1 154.16,-13.9 66.95,221.2" /><path
         id="path10883"
         style="fill:#a77860;fill-opacity:1;fill-rule:nonzero;stroke:none"
         d="m 8862.75,10050.2 c -169.93,45.7 -315.64,230.1 -315.64,230.1 46.43,-45.4 311.05,-134.2 311.05,-134.2 0.73,-26.8 2.2,-60.5 4.59,-95.9" /><path
         id="path10885"
         style="fill:#616161;fill-opacity:1;fill-rule:nonzero;stroke:none"
         d="m 10760,8506.7 -276.7,-1424.6 -914.34,177.6 240.99,1431.6 950.05,-184.6" /><path
         id="path10887"
         style="fill:#e0cec7;fill-opacity:1;fill-rule:nonzero;stroke:none"
         d="m 10691.4,8437.4 -245.7,-1265.3 -812.1,157.7 214.01,1271.5 843.79,-163.9" /><path
         id="path10889"
         style="fill:#616161;fill-opacity:1;fill-rule:nonzero;stroke:none"
         d="m 10434,8454.7 17.2,88.9 -328.3,63.7 -30.1,-86.3 341.2,-66.3" /><path
         id="path10891"
         style="fill:#eea886;fill-opacity:1;fill-rule:nonzero;stroke:none"
         d="m 10653.1,7506.6 c 0,0 -40.2,-16.8 -61.4,-15.6 0,0 -38.4,5.2 -65.9,7.2 -8.7,0.6 -16.3,0.9 -21.3,0.6 -20.6,-1.2 -65.6,-10 -116,1 -50.4,10.9 -255.6,114.2 -255.6,114.2 l 24.3,126.8 5.8,121.9 c 0,0 299.2,101.7 347.3,96.9 4.7,-0.5 9.4,-1.2 13.7,-2.1 40.3,-8.1 67,-31 87.7,-37.6 7.6,-2.5 81.4,-32.2 88.6,-54.8 10.1,-31.4 4.3,-57.3 -9.9,-74.9 0,0 17,-62.4 -0.8,-102.1 0,0 17.5,-57.1 -18.7,-100.2 0,0 11.3,-59.9 -17.8,-81.3" /><path
         id="path10893"
         style="fill:#eea886;fill-opacity:1;fill-rule:nonzero;stroke:none"
         d="m 10231.9,7890.7 c 0,0 -28.4,-158.7 -99,-276.7 0,0 -229.36,9.1 -388.44,32.8 -379.44,56.7 -538.47,108.3 -633.73,198.1 -171.18,161.4 -648.33,1087.4 -648.33,1087.4 l 461.93,292.4 324.87,-727 c 35.41,-71.7 100.25,-178.3 146.83,-273.3 61.05,-124.6 333.23,-231 454.84,-264.7 0,0 232.83,-69 381.03,-69" /><path
         id="path10895"
         style="fill:#2aa3b8;fill-opacity:1;fill-rule:nonzero;stroke:none"
         d="m 9154.69,8829.4 -525.11,-273 c 0,0 -104.11,201.5 -134.59,267 -87.48,187.8 -222.72,471.7 -52.63,591.6 367.08,258.8 524.88,-170.7 615.04,-406.2 27.83,-72.6 97.29,-179.4 97.29,-179.4" /><g
         id="g10897"><g
           clip-path="url(#clipPath10903)"
           id="g10899"><path
             id="path10911"
             style="fill:url(#linearGradient10909);fill-opacity:1;fill-rule:nonzero;stroke:none"
             d="m 14214.1,13167.7 h -444.8 v 1870.7 h 444.8 v -1870.7" /></g></g><g
         id="g10913"><g
           clip-path="url(#clipPath10919)"
           id="g10915"><path
             id="path10927"
             style="fill:url(#linearGradient10925);fill-opacity:1;fill-rule:nonzero;stroke:none"
             d="m 13056.3,13880.6 v 444.9 h 1870.8 v -444.9 h -1870.8" /></g></g><path
         id="path10929"
         style="fill:#e0e0e0;fill-opacity:1;fill-rule:nonzero;stroke:none"
         d="m 7745.12,12141.2 c -145.6,-307.8 -463.1,-478.9 -783.47,-453.1 -76.36,6.2 -152.9,23.5 -227.31,52.9 -16.42,6.5 -32.77,13.6 -48.96,21.2 -162.64,77 -287.11,201.9 -364.53,349.9 -111.75,213.6 -125.51,475.2 -14.46,709.8 36.64,77.5 84.19,146.3 139.88,205.5 230.1,244.4 599.99,324.9 919.84,173.5 397.31,-188 566.98,-662.4 379.01,-1059.7 z M 7479.73,13441 c -426.58,201.9 -919.87,94.6 -1226.85,-231.4 -74.32,-79 -137.71,-170.7 -186.62,-274 -148.07,-313 -129.76,-662 19.27,-946.8 103.28,-197.4 269.32,-364.1 486.26,-466.7 21.56,-10.2 43.37,-19.7 65.27,-28.3 99.26,-39.2 201.3,-62.3 303.18,-70.5 427.32,-34.5 850.81,193.8 1045.05,604.3 250.7,529.9 24.36,1162.7 -505.56,1413.4" /><path
         id="path10931"
         style="fill:#2d5bad;fill-opacity:1;fill-rule:nonzero;stroke:none"
         d="m 6320.85,12112.1 -235.32,-123.3 c -149.03,284.8 -167.34,633.8 -19.27,946.8 48.91,103.3 112.3,195 186.62,274 l 193.39,-182.2 c -55.69,-59.2 -103.24,-128 -139.88,-205.5 -111.05,-234.6 -97.29,-496.2 14.46,-709.8" /><path
         id="path10933"
         style="fill:#5d96ff;fill-opacity:1;fill-rule:nonzero;stroke:none"
         d="m 6734.34,11741 -97.28,-247.2 c -21.9,8.6 -43.71,18.1 -65.27,28.3 -216.94,102.6 -382.98,269.3 -486.26,466.7 l 235.32,123.3 c 77.42,-148 201.89,-272.9 364.53,-349.9 16.19,-7.6 32.54,-14.7 48.96,-21.2" /><path
         id="path10935"
         style="fill:#5d96ff;fill-opacity:1;fill-rule:nonzero;stroke:none"
         d="m 6940.24,11423.3 c -101.88,8.2 -203.92,31.3 -303.18,70.5 l 97.28,247.2 c 74.41,-29.4 150.95,-46.7 227.31,-52.9 l -21.41,-264.8" /><path
         id="path10937"
         style="fill:#5d96ff;fill-opacity:1;fill-rule:nonzero;stroke:none"
         d="M 6699.64,10723.7 H 4717.55 v 39.4 h 1942.7 v 839.6 h 39.39 v -879" /><path
         id="path10939"
         style="fill:#e0e0e0;fill-opacity:1;fill-rule:nonzero;stroke:none"
         d="M 5760.87,10936.7 H 4717.54 v 236.4 h 1043.33 v -236.4" /></g></g></svg>