<?xml version="1.0" encoding="UTF-8" standalone="no"?>
<!-- Created with Inkscape (http://www.inkscape.org/) -->

<svg
   xmlns:dc="http://purl.org/dc/elements/1.1/"
   xmlns:cc="http://creativecommons.org/ns#"
   xmlns:rdf="http://www.w3.org/1999/02/22-rdf-syntax-ns#"
   xmlns:svg="http://www.w3.org/2000/svg"
   xmlns="http://www.w3.org/2000/svg"
   xmlns:sodipodi="http://sodipodi.sourceforge.net/DTD/sodipodi-0.dtd"
   xmlns:inkscape="http://www.inkscape.org/namespaces/inkscape"
   version="1.1"
   id="svg2"
   xml:space="preserve"
   width="612.99945"
   height="476.60251"
   viewBox="0 0 612.99945 476.60251"
   sodipodi:docname="web.svg"
   inkscape:version="0.92.5 (2060ec1f9f, 2020-04-08)"><metadata
     id="metadata8"><rdf:RDF><cc:Work
         rdf:about=""><dc:format>image/svg+xml</dc:format><dc:type
           rdf:resource="http://purl.org/dc/dcmitype/StillImage" /><dc:title></dc:title></cc:Work></rdf:RDF></metadata><defs
     id="defs6" /><sodipodi:namedview
     pagecolor="#ffffff"
     bordercolor="#666666"
     borderopacity="1"
     objecttolerance="10"
     gridtolerance="10"
     guidetolerance="10"
     inkscape:pageopacity="0"
     inkscape:pageshadow="2"
     inkscape:window-width="1366"
     inkscape:window-height="704"
     id="namedview4"
     showgrid="false"
     inkscape:zoom="0.50063159"
     inkscape:cx="123.55676"
     inkscape:cy="182.26215"
     inkscape:window-x="0"
     inkscape:window-y="27"
     inkscape:window-maximized="1"
     inkscape:current-layer="g10" /><g
     id="g10"
     inkscape:groupmode="layer"
     inkscape:label="ink_ext_XXXXXX"
     transform="matrix(1.3333333,0,0,-1.3333333,-26.833862,597.05465)"><g
       id="g12"
       transform="scale(0.1)"><path
         d="m 4400.73,945.77 c 0,-23.411 -850.98,-42.379 -1900.73,-42.379 -1049.75,0 -1900.734,18.968 -1900.734,42.379 0,23.41 850.984,42.378 1900.734,42.378 1049.75,0 1900.73,-18.968 1900.73,-42.378"
         style="fill:#e8ecef;fill-opacity:1;fill-rule:nonzero;stroke:none"
         id="path16"
         inkscape:connector-curvature="0" /><path
         d="m 4353.96,955.77 c -84.28,177.62 -416.79,339.09 -217.02,563.35 199.79,224.26 -436.74,475.12 -144.8,685.4 321.62,231.66 155.32,562.24 361.82,562.24 V 955.77"
         style="fill:#ffffff;fill-opacity:1;fill-rule:nonzero;stroke:none"
         id="path18"
         inkscape:connector-curvature="0" /><path
         d="m 4353.96,955.77 4.52,2.152 c -33.38,70.148 -103.65,136.618 -165.27,205.088 -30.81,34.2 -59.47,68.82 -80.31,104.29 -20.85,35.49 -33.86,71.69 -33.86,109.29 0.03,43.55 17.34,89.43 61.64,139.21 28.69,32.14 40.88,65.5 40.84,99.01 -0.03,39.91 -16.93,79.63 -41.76,119.12 -37.29,59.23 -92.73,118.29 -138.66,176.4 -46.02,58.08 -82.06,115.16 -81.93,168.79 0.02,20.65 5.19,40.89 17.22,61.09 12.03,20.19 31,40.32 58.67,60.25 162.18,116.72 201.63,259.2 226.05,370.99 12.2,55.9 20.92,104.23 38.84,137.69 8.95,16.74 20.02,29.73 34.94,38.68 14.92,8.93 33.91,13.94 59.07,13.94 v 5 h -5 V 955.77 h 5 l 4.52,2.152 -4.52,-2.152 h 5 v 1815.99 h -5 c -26.46,0.01 -47.45,-5.31 -64.21,-15.37 -14.67,-8.77 -25.96,-21.1 -34.91,-36 -15.68,-26.11 -24.54,-60.1 -33.22,-99.19 -12.96,-58.63 -25.34,-128.82 -57.32,-200.82 -31.99,-71.98 -83.47,-145.79 -175.08,-211.8 -28.5,-20.53 -48.51,-41.6 -61.42,-63.25 -12.92,-21.64 -18.64,-43.87 -18.63,-66.21 0.03,-38.78 16.96,-77.62 41.78,-116.52 37.29,-58.34 92.71,-117.16 138.63,-175.7 46,-58.51 82.06,-116.64 81.94,-172.09 -0.04,-31.08 -10.99,-61.63 -38.31,-92.36 -45.47,-50.99 -64.19,-99.54 -64.17,-145.86 0.01,-39.96 13.82,-77.91 35.24,-114.35 32.16,-54.68 81.48,-106.26 128.74,-157.1 47.27,-50.8 92.44,-100.88 116.43,-151.511 l 9.51,-20.059 v 22.2 h -5"
         style="fill:#bfc8d2;fill-opacity:1;fill-rule:nonzero;stroke:none"
         id="path20"
         inkscape:connector-curvature="0" /><path
         d="m 4353.96,955.77 c 84.28,177.62 416.8,339.09 217.02,563.35 -199.79,224.26 436.74,475.12 144.8,685.4 -321.62,231.66 -155.32,562.24 -361.82,562.24 V 955.77"
         style="fill:#ffffff;fill-opacity:1;fill-rule:nonzero;stroke:none"
         id="path22"
         inkscape:connector-curvature="0" /><path
         d="m 4353.96,955.77 4.52,-2.141 c 31.97,67.551 101.65,133.941 163.66,202.681 30.99,34.41 60.07,69.47 81.5,105.92 21.42,36.45 35.24,74.4 35.24,114.35 0.03,46.33 -18.7,94.87 -64.17,145.87 -27.32,30.73 -38.27,61.28 -38.31,92.36 -0.03,36.98 15.86,75.1 40.22,113.79 36.5,58.04 91.74,116.99 138.04,175.53 46.21,58.58 83.95,116.79 84.09,174.99 0.01,22.34 -5.71,44.57 -18.63,66.21 -12.91,21.65 -32.92,42.72 -61.42,63.25 -159.44,114.94 -197.65,253.59 -222.12,365 -12.23,55.7 -20.76,104.49 -39.78,140.26 -9.53,17.87 -21.85,32.52 -38.62,42.55 -16.77,10.06 -37.76,15.38 -64.22,15.37 h -5 V 933.57 l 9.52,20.059 -4.52,2.141 h 5 v 1810.99 h -5 v -5 c 25.17,-0.01 44.15,-5.01 59.08,-13.94 13.05,-7.83 23.15,-18.75 31.48,-32.58 14.58,-24.18 23.43,-57.33 32.01,-96.2 12.92,-58.3 25.39,-129.4 57.95,-202.71 32.55,-73.33 85.31,-148.85 178.38,-215.87 27.67,-19.93 46.64,-40.07 58.67,-60.25 12.03,-20.2 17.21,-40.44 17.22,-61.09 0.03,-35.77 -15.84,-73.02 -40.21,-111.14 -36.5,-57.17 -91.75,-115.92 -138.07,-174.91 -46.22,-59.02 -83.95,-118.38 -84.07,-178.26 -0.04,-33.51 12.15,-66.87 40.84,-99.01 44.3,-49.78 61.61,-95.66 61.64,-139.22 0,-37.59 -13.01,-73.79 -33.86,-109.28 -31.26,-53.21 -80.11,-104.48 -127.44,-155.35 -47.3,-50.91 -93.11,-101.39 -118.13,-154.028 l 4.51,-2.152 h 5 -5"
         style="fill:#bfc8d2;fill-opacity:1;fill-rule:nonzero;stroke:none"
         id="path24"
         inkscape:connector-curvature="0" /><path
         d="m 4358.96,1080.76 c 0.02,63.3 -17.81,114.18 -44.56,154.54 -40.14,60.58 -100.02,97.53 -149.74,119.43 -49.74,21.91 -89.45,28.78 -89.72,28.83 l -1.7,-9.85 c 0,0 1,-0.18 3,-0.58 15,-3.03 83.65,-18.79 148.08,-62.51 32.23,-21.85 63.39,-50.64 86.47,-88.24 23.08,-37.61 38.16,-84.03 38.17,-141.62 h 10"
         style="fill:#bfc8d2;fill-opacity:1;fill-rule:nonzero;stroke:none"
         id="path26"
         inkscape:connector-curvature="0" /><path
         d="m 4358.96,1622.51 c -0.01,133.07 -62.96,250.77 -147.56,335.16 -84.65,84.38 -190.92,135.83 -279.33,135.92 -6.2,0 -12.32,-0.26 -18.33,-0.78 l 0.86,-9.96 c 5.71,0.49 11.54,0.74 17.47,0.74 84.54,0.09 189.22,-50.05 272.27,-133 83.12,-82.92 144.64,-198.26 144.62,-328.08 h 10"
         style="fill:#bfc8d2;fill-opacity:1;fill-rule:nonzero;stroke:none"
         id="path28"
         inkscape:connector-curvature="0" /><path
         d="m 4358.96,2138.58 c 0,283.25 -141.44,424.43 -142,424.96 l -7.06,-7.08 0.35,-0.36 c 7.68,-7.93 138.71,-146.51 138.71,-417.52 h 10"
         style="fill:#bfc8d2;fill-opacity:1;fill-rule:nonzero;stroke:none"
         id="path30"
         inkscape:connector-curvature="0" /><path
         d="m 4358.96,1080.76 c 0.02,61.43 17.18,110.15 42.9,149.02 38.57,58.28 96.76,94.38 145.43,115.8 24.33,10.72 46.24,17.76 62.04,22.12 7.9,2.18 14.27,3.69 18.65,4.65 2.19,0.48 3.88,0.82 5.02,1.04 1.13,0.22 1.68,0.32 1.68,0.32 l -1.7,9.85 c -0.36,-0.08 -70.83,-12.24 -141.71,-56.07 -35.44,-21.92 -71,-51.81 -97.75,-92.19 -26.75,-40.36 -44.57,-91.24 -44.56,-154.54 h 10"
         style="fill:#bfc8d2;fill-opacity:1;fill-rule:nonzero;stroke:none"
         id="path32"
         inkscape:connector-curvature="0" /><path
         d="m 4358.96,1622.51 c -0.01,129.82 61.51,245.16 144.62,328.08 83.05,82.95 187.73,133.09 272.27,133 5.93,0 11.75,-0.25 17.47,-0.74 l 0.86,9.96 c -6.01,0.52 -12.13,0.78 -18.33,0.78 -88.41,-0.09 -194.67,-51.54 -279.33,-135.92 -84.59,-84.39 -147.54,-202.09 -147.56,-335.16 h 10"
         style="fill:#bfc8d2;fill-opacity:1;fill-rule:nonzero;stroke:none"
         id="path34"
         inkscape:connector-curvature="0" /><path
         d="m 4358.96,2138.58 c 0.01,139.91 34.91,244.46 69.74,314.03 17.42,34.79 34.82,60.82 47.83,78.12 6.51,8.65 11.92,15.12 15.68,19.41 1.88,2.14 3.35,3.74 4.34,4.79 l 1.12,1.17 0.35,0.36 -7.06,7.08 c -0.56,-0.53 -141.99,-141.71 -142,-424.96 h 10"
         style="fill:#bfc8d2;fill-opacity:1;fill-rule:nonzero;stroke:none"
         id="path36"
         inkscape:connector-curvature="0" /><path
         d="m 646.039,955.77 c 84.281,177.62 416.801,339.09 217.012,563.35 -199.785,224.26 436.749,475.12 144.809,685.4 -321.622,231.66 -155.321,562.24 -361.821,562.24 V 955.77"
         style="fill:#ffffff;fill-opacity:1;fill-rule:nonzero;stroke:none"
         id="path38"
         inkscape:connector-curvature="0" /><path
         d="m 646.039,955.77 4.52,-2.141 c 31.972,67.551 101.652,133.941 163.66,202.681 30.992,34.41 60.066,69.47 81.5,105.92 21.418,36.44 35.23,74.4 35.234,114.35 0.027,46.33 -18.691,94.87 -64.168,145.87 -27.32,30.73 -38.273,61.28 -38.308,92.36 -0.028,36.98 15.863,75.1 40.222,113.79 36.496,58.04 91.739,116.99 138.041,175.53 46.21,58.58 83.95,116.79 84.09,174.99 0.01,22.34 -5.71,44.57 -18.63,66.21 -12.91,21.65 -32.92,42.72 -61.42,63.25 -159.436,114.94 -197.647,253.59 -222.116,365 -12.234,55.7 -20.762,104.49 -39.789,140.26 -9.523,17.87 -21.852,32.52 -38.621,42.55 -16.766,10.06 -37.754,15.38 -64.215,15.37 h -5 V 933.57 l 9.52,20.059 -4.52,2.141 h 5 v 1810.99 h -5 v -5 c 25.164,-0.01 44.152,-5.01 59.074,-13.94 13.059,-7.83 23.153,-18.75 31.485,-32.58 14.582,-24.18 23.433,-57.33 32.015,-96.2 12.918,-58.3 25.387,-129.4 57.946,-202.71 32.55,-73.33 85.308,-148.85 178.381,-215.87 27.67,-19.93 46.64,-40.06 58.67,-60.25 12.03,-20.2 17.2,-40.44 17.22,-61.09 0.03,-35.76 -15.84,-73.02 -40.21,-111.14 -36.5,-57.17 -91.757,-115.92 -138.069,-174.91 -46.231,-59.02 -83.953,-118.38 -84.074,-178.26 -0.039,-33.51 12.152,-66.87 40.839,-99.01 44.297,-49.78 61.61,-95.66 61.637,-139.22 0.004,-37.59 -13.004,-73.8 -33.855,-109.28 C 855.84,1214.09 806.984,1162.82 759.66,1111.95 712.355,1061.04 666.543,1010.56 641.523,957.922 l 4.516,-2.152 h 5 -5"
         style="fill:#bfc8d2;fill-opacity:1;fill-rule:nonzero;stroke:none"
         id="path40"
         inkscape:connector-curvature="0" /><path
         d="m 646.039,955.77 c -84.281,177.62 -416.797,339.09 -217.012,563.35 199.782,224.26 -436.74575,475.12 -144.808,685.4 321.617,231.66 155.324,562.24 361.82,562.24 V 955.77"
         style="fill:#ffffff;fill-opacity:1;fill-rule:nonzero;stroke:none"
         id="path42"
         inkscape:connector-curvature="0" /><path
         d="m 646.039,955.77 4.52,2.152 c -33.375,70.148 -103.653,136.618 -165.266,205.088 -30.816,34.19 -59.469,68.82 -80.309,104.29 -20.855,35.48 -33.863,71.69 -33.859,109.28 0.027,43.56 17.34,89.44 61.637,139.22 28.687,32.14 40.879,65.5 40.843,99.01 -0.027,39.9 -16.933,79.63 -41.761,119.12 -37.289,59.22 -92.731,118.28 -138.66,176.4 -46.02,58.08 -82.067,115.16 -81.934,168.79 h 0.004 c 0.012,20.65 5.187,40.89 17.215,61.09 12.027,20.18 31,40.32 58.672,60.25 162.179,116.72 201.629,259.2 226.043,370.99 12.203,55.9 20.921,104.23 38.843,137.69 8.95,16.74 20.024,29.73 34.938,38.68 14.922,8.93 33.91,13.93 59.074,13.94 v 5 h -5 V 955.77 h 5 l 4.52,2.152 -4.52,-2.152 h 5 v 1815.99 h -5 c -26.461,0.01 -47.445,-5.31 -64.211,-15.37 -14.672,-8.78 -25.957,-21.1 -34.914,-36 -15.672,-26.11 -24.539,-60.1 -33.215,-99.19 -12.965,-58.63 -25.34,-128.82 -57.32,-200.82 -31.992,-71.98 -83.473,-145.79 -175.082,-211.8 -28.492,-20.53 -48.508,-41.6 -61.418,-63.25 -12.918,-21.64 -18.641,-43.87 -18.625,-66.21 v 0 c 0.027,-38.78 16.949,-77.62 41.777,-116.52 37.285,-58.34 92.707,-117.17 138.629,-175.71 46.004,-58.5 82.067,-116.63 81.945,-172.08 -0.039,-31.08 -10.992,-61.63 -38.308,-92.36 -45.477,-51 -64.199,-99.54 -64.172,-145.87 0.004,-39.95 13.816,-77.91 35.238,-114.35 32.153,-54.67 81.477,-106.25 128.731,-157.09 47.269,-50.8 92.437,-100.88 116.429,-151.511 l 9.516,-20.059 v 22.2 h -5"
         style="fill:#bfc8d2;fill-opacity:1;fill-rule:nonzero;stroke:none"
         id="path44"
         inkscape:connector-curvature="0" /><path
         d="m 651.039,1080.76 c 0.016,61.43 17.176,110.15 42.899,149.02 38.574,58.28 96.757,94.38 145.433,115.8 24.324,10.72 46.238,17.76 62.039,22.12 7.899,2.18 14.27,3.69 18.649,4.65 2.191,0.48 3.882,0.82 5.019,1.04 1.137,0.22 1.68,0.32 1.684,0.32 l -1.707,9.85 c -0.356,-0.08 -70.825,-12.24 -141.711,-56.07 -35.434,-21.92 -70.996,-51.81 -97.742,-92.19 -26.75,-40.36 -44.579,-91.24 -44.563,-154.54 h 10"
         style="fill:#bfc8d2;fill-opacity:1;fill-rule:nonzero;stroke:none"
         id="path46"
         inkscape:connector-curvature="0" /><path
         d="m 651.039,1622.51 c -0.016,129.82 61.508,245.16 144.621,328.08 83.051,82.95 187.727,133.09 272.27,133 5.92,0 11.75,-0.25 17.46,-0.74 l 0.87,9.96 c -6.02,0.52 -12.13,0.78 -18.33,0.78 -88.41,-0.09 -194.676,-51.54 -279.332,-135.92 -84.594,-84.39 -147.543,-202.09 -147.559,-335.16 h 10"
         style="fill:#bfc8d2;fill-opacity:1;fill-rule:nonzero;stroke:none"
         id="path48"
         inkscape:connector-curvature="0" /><path
         d="m 651.039,2138.58 c 0.004,139.91 34.906,244.46 69.738,314.03 17.418,34.79 34.821,60.82 47.832,78.12 6.508,8.65 11.918,15.12 15.684,19.41 1.879,2.14 3.352,3.74 4.344,4.79 l 1.117,1.17 0.348,0.36 -7.055,7.08 c -0.563,-0.53 -142.004,-141.71 -142.008,-424.96 h 10"
         style="fill:#bfc8d2;fill-opacity:1;fill-rule:nonzero;stroke:none"
         id="path50"
         inkscape:connector-curvature="0" /><path
         d="m 651.039,1080.76 c 0.016,63.3 -17.809,114.18 -44.559,154.54 -40.14,60.58 -100.023,97.53 -149.742,119.43 -49.742,21.91 -89.445,28.78 -89.715,28.83 l -1.703,-9.85 c 0.004,0 1,-0.18 3,-0.58 15.004,-3.03 83.653,-18.79 148.082,-62.51 32.227,-21.85 63.379,-50.64 86.461,-88.24 23.078,-37.61 38.164,-84.03 38.176,-141.62 h 10"
         style="fill:#bfc8d2;fill-opacity:1;fill-rule:nonzero;stroke:none"
         id="path52"
         inkscape:connector-curvature="0" /><path
         d="m 651.039,1622.51 c -0.016,133.07 -62.965,250.77 -147.555,335.16 -84.66,84.38 -190.925,135.83 -279.336,135.92 -6.203,0 -12.316,-0.26 -18.328,-0.78 l 0.86,-9.96 c 5.715,0.49 11.543,0.74 17.468,0.74 84.543,0.09 189.219,-50.05 272.274,-133 83.113,-82.92 144.633,-198.26 144.617,-328.08 h 10"
         style="fill:#bfc8d2;fill-opacity:1;fill-rule:nonzero;stroke:none"
         id="path54"
         inkscape:connector-curvature="0" /><path
         d="m 651.039,2138.58 c 0,283.25 -141.441,424.43 -142.004,424.96 l -7.055,-7.08 0.348,-0.36 c 7.684,-7.93 138.711,-146.51 138.711,-417.52 h 10"
         style="fill:#bfc8d2;fill-opacity:1;fill-rule:nonzero;stroke:none"
         id="path56"
         inkscape:connector-curvature="0" /><path
         d="m 999.363,3120.43 c -108.914,-13.72 -200.508,77.87 -186.781,186.79 9.352,74.21 69.281,134.14 143.492,143.49 108.926,13.73 200.516,-77.87 186.786,-186.79 -9.35,-74.21 -69.28,-134.13 -143.497,-143.49 z m 287.297,165.14 c 0,18.74 -1.71,37.07 -4.93,54.87 -1.98,10.97 3.25,21.96 12.9,27.53 l 42.97,24.81 c 12.76,7.36 17.13,23.68 9.76,36.43 l -60.42,104.66 c -7.36,12.76 -23.68,17.13 -36.43,9.76 l -43.03,-24.84 c -9.66,-5.58 -21.8,-4.61 -30.3,2.59 -27.87,23.61 -59.97,42.35 -95.02,54.94 -10.47,3.76 -17.34,13.8 -17.34,24.92 v 49.6 c 0,14.73 -11.94,26.67 -26.67,26.67 H 917.301 c -14.735,0 -26.672,-11.94 -26.672,-26.67 v -49.6 c 0,-11.12 -6.879,-21.16 -17.348,-24.92 -35.043,-12.59 -67.144,-31.33 -95.019,-54.94 -8.5,-7.2 -20.641,-8.17 -30.289,-2.59 l -43.035,24.84 c -12.754,7.37 -29.063,3 -36.43,-9.76 l -60.426,-104.66 c -7.363,-12.75 -2.992,-29.06 9.762,-36.43 l 42.972,-24.81 c 9.653,-5.57 14.875,-16.56 12.895,-27.53 -3.215,-17.8 -4.922,-36.13 -4.922,-54.87 0,-18.73 1.707,-37.06 4.922,-54.87 1.98,-10.97 -3.246,-21.95 -12.895,-27.53 l -42.972,-24.81 c -12.754,-7.36 -17.125,-23.67 -9.762,-36.43 l 60.426,-104.65 c 7.367,-12.76 23.676,-17.13 36.43,-9.77 l 43.031,24.85 c 9.652,5.57 21.793,4.6 30.293,-2.6 27.871,-23.6 59.968,-42.34 95.019,-54.94 10.469,-3.76 17.344,-13.79 17.344,-24.91 v -49.61 c 0,-14.72 11.941,-26.67 26.672,-26.67 h 120.843 c 14.74,0 26.68,11.95 26.68,26.67 v 49.61 c 0,11.12 6.87,21.15 17.34,24.91 35.05,12.6 67.15,31.34 95.02,54.94 8.5,7.2 20.64,8.17 30.29,2.6 l 43.04,-24.85 c 12.75,-7.36 29.07,-2.99 36.43,9.77 l 60.42,104.65 c 7.37,12.76 3,29.07 -9.76,36.43 l -42.97,24.81 c -9.65,5.58 -14.88,16.56 -12.9,27.53 3.22,17.81 4.93,36.14 4.93,54.87"
         style="fill:#ffffff;fill-opacity:1;fill-rule:nonzero;stroke:none"
         id="path58"
         inkscape:connector-curvature="0" /><path
         d="m 999.363,3120.43 -0.625,4.96 c -7.09,-0.89 -14.101,-1.33 -21.011,-1.33 -44.618,0.01 -84.961,18.07 -114.207,47.31 -29.235,29.24 -47.301,69.59 -47.305,114.2 0,6.91 0.433,13.93 1.328,21.02 9.027,71.9 67.258,130.13 139.156,139.16 7.094,0.9 14.11,1.33 21.02,1.33 44.621,0 84.961,-18.07 114.201,-47.3 29.24,-29.25 47.31,-69.59 47.31,-114.21 0,-6.91 -0.43,-13.93 -1.33,-21.02 -9.03,-71.9 -67.26,-130.13 -139.162,-139.16 l 0.625,-4.96 0.629,-4.96 c 76.518,9.68 138.148,71.31 147.828,147.83 0.95,7.51 1.41,14.94 1.41,22.27 0,94.73 -76.79,171.51 -171.511,171.51 -7.328,0 -14.762,-0.46 -22.27,-1.41 -76.519,-9.68 -138.152,-71.3 -147.828,-147.83 -0.945,-7.51 -1.406,-14.94 -1.406,-22.27 0.004,-94.72 76.789,-171.5 171.512,-171.51 7.328,0 14.757,0.46 22.261,1.41 z m 287.297,165.14 h 5 c 0,19.04 -1.74,37.67 -5.01,55.76 -0.22,1.26 -0.33,2.51 -0.33,3.75 -0.01,7.53 4.07,14.67 10.81,18.56 l 42.97,24.81 c 10.15,5.86 15.85,16.52 15.84,27.45 0,5.37 -1.37,10.84 -4.25,15.81 l -60.42,104.66 c -5.87,10.15 -16.52,15.85 -27.45,15.84 -5.37,0 -10.84,-1.37 -15.81,-4.25 l -43.03,-24.84 c -3.39,-1.95 -7.13,-2.92 -10.86,-2.92 -4.94,0 -9.79,1.69 -13.71,5 -28.32,23.98 -60.94,43.03 -96.56,55.82 -8.43,3.02 -14.03,11.16 -14.03,20.22 v 49.6 c 0,17.5 -14.18,31.67 -31.67,31.67 H 917.301 c -17.496,0 -31.668,-14.18 -31.672,-31.67 v -49.6 c 0,-9.06 -5.606,-17.2 -14.039,-20.22 -35.613,-12.79 -68.235,-31.84 -96.559,-55.82 -3.914,-3.31 -8.773,-5 -13.707,-5 -3.722,0 -7.469,0.97 -10.847,2.92 h -0.004 l -43.035,24.84 c -4.973,2.87 -10.438,4.25 -15.809,4.25 -10.93,0.01 -21.586,-5.69 -27.453,-15.84 L 603.75,3431.71 c -2.871,-4.97 -4.246,-10.44 -4.246,-15.81 -0.008,-10.93 5.687,-21.58 15.836,-27.45 l 42.976,-24.81 c 6.747,-3.89 10.813,-11.03 10.813,-18.56 0,-1.24 -0.113,-2.49 -0.34,-3.75 -3.262,-18.09 -5,-36.72 -5,-55.76 0,-19.04 1.738,-37.67 5,-55.76 0.227,-1.26 0.34,-2.51 0.34,-3.75 0,-7.52 -4.07,-14.67 -10.813,-18.56 l -42.972,-24.81 c -10.153,-5.86 -15.848,-16.52 -15.84,-27.45 0,-5.37 1.375,-10.83 4.246,-15.81 l 60.426,-104.65 c 5.863,-10.16 16.519,-15.85 27.449,-15.84 5.371,-0.01 10.84,1.37 15.813,4.25 l 43.031,24.84 c 3.383,1.95 7.129,2.91 10.855,2.91 4.938,0 9.793,-1.68 13.707,-4.99 28.321,-23.99 60.938,-43.03 96.559,-55.83 8.433,-3.02 14.035,-11.16 14.035,-20.21 v -49.61 c 0.004,-17.49 14.18,-31.66 31.672,-31.67 h 120.843 c 17.5,0.01 31.68,14.18 31.68,31.67 v 49.61 c 0,9.05 5.6,17.19 14.03,20.21 35.62,12.8 68.24,31.84 96.56,55.82 3.92,3.32 8.77,5 13.71,5 3.72,0 7.47,-0.96 10.85,-2.91 l 43.04,-24.85 c 4.97,-2.87 10.43,-4.25 15.81,-4.25 10.93,0 21.59,5.69 27.45,15.85 l 60.42,104.65 c 2.88,4.98 4.25,10.44 4.25,15.81 0.01,10.93 -5.69,21.59 -15.84,27.45 l -42.97,24.81 c -6.75,3.9 -10.82,11.03 -10.81,18.56 0,1.24 0.11,2.49 0.33,3.75 3.27,18.09 5.01,36.72 5.01,55.76 h -5 -5 c 0,-18.43 -1.69,-36.46 -4.85,-53.98 -0.33,-1.85 -0.49,-3.7 -0.49,-5.53 0,-11.13 5.98,-21.54 15.81,-27.22 l 42.97,-24.81 c 6.96,-4.01 10.83,-11.28 10.84,-18.79 0,-3.68 -0.93,-7.38 -2.91,-10.81 l -60.42,-104.65 c -4.02,-6.97 -11.29,-10.84 -18.79,-10.85 -3.68,0.01 -7.39,0.93 -10.81,2.91 l -43.04,24.85 c -4.92,2.84 -10.4,4.25 -15.85,4.25 -7.21,0.01 -14.4,-2.47 -20.17,-7.36 -27.43,-23.23 -59,-41.66 -93.48,-54.05 -12.5,-4.5 -20.65,-16.44 -20.65,-29.62 v -49.61 c -0.02,-11.96 -9.71,-21.65 -21.68,-21.67 H 917.297 c -11.965,0.02 -21.649,9.71 -21.672,21.67 v 49.61 c 0,13.18 -8.148,25.12 -20.652,29.62 -34.477,12.39 -66.055,30.82 -93.481,54.05 -5.769,4.89 -12.961,7.37 -20.168,7.36 -5.445,0 -10.929,-1.41 -15.855,-4.25 l -43.031,-24.85 c -3.43,-1.97 -7.133,-2.9 -10.813,-2.91 -7.5,0.01 -14.77,3.88 -18.789,10.85 l -60.426,104.65 c -1.976,3.43 -2.902,7.13 -2.906,10.81 0.008,7.51 3.883,14.78 10.84,18.79 l 42.972,24.81 c 9.825,5.68 15.809,16.09 15.813,27.22 0,1.83 -0.164,3.68 -0.496,5.53 -3.164,17.52 -4.844,35.55 -4.844,53.98 0,18.43 1.68,36.46 4.844,53.99 0.332,1.84 0.496,3.69 0.496,5.52 -0.004,11.13 -5.984,21.54 -15.813,27.22 l -42.972,24.81 c -6.961,4.02 -10.832,11.29 -10.84,18.79 0.004,3.68 0.93,7.39 2.906,10.81 l 60.426,104.66 c 4.016,6.96 11.293,10.83 18.793,10.84 3.676,0 7.383,-0.93 10.809,-2.91 l 43.035,-24.84 v 0 c 4.922,-2.85 10.406,-4.26 15.851,-4.26 7.207,0 14.399,2.48 20.168,7.37 27.43,23.22 59.008,41.66 93.481,54.04 12.504,4.5 20.656,16.44 20.656,29.63 v 49.6 c 0.023,11.97 9.703,21.65 21.672,21.67 h 120.849 c 11.96,-0.02 21.65,-9.7 21.67,-21.67 v -49.6 c 0,-13.19 8.15,-25.13 20.65,-29.63 34.48,-12.38 66.06,-30.82 93.48,-54.04 5.77,-4.89 12.96,-7.37 20.17,-7.37 5.45,0 10.93,1.41 15.86,4.26 l 43.03,24.84 c 3.42,1.98 7.13,2.91 10.81,2.91 7.5,-0.01 14.77,-3.88 18.79,-10.84 l 60.42,-104.66 c 1.98,-3.43 2.91,-7.13 2.91,-10.81 -0.01,-7.5 -3.88,-14.78 -10.84,-18.79 l -42.97,-24.81 c -9.83,-5.68 -15.81,-16.09 -15.81,-27.22 0,-1.83 0.16,-3.68 0.49,-5.53 3.17,-17.52 4.85,-35.55 4.85,-53.98 h 5"
         style="fill:#bfc8d2;fill-opacity:1;fill-rule:nonzero;stroke:none"
         id="path60"
         inkscape:connector-curvature="0" /><path
         d="m 1329.35,3842.88 c -120.06,52.44 -158.05,202.29 -77.46,305.59 54.91,70.38 152.95,95.23 234.76,59.5 120.06,-52.43 158.05,-202.29 77.46,-305.59 -54.91,-70.38 -152.96,-95.23 -234.76,-59.5 z m 395.42,-6.11 c 11.45,19.21 20.88,39.05 28.46,59.27 4.67,12.46 16.74,20.53 30.03,20.35 l 59.22,-0.8 c 17.57,-0.24 32.01,13.81 32.25,31.39 l 1.95,144.22 c 0.24,17.57 -13.81,32.01 -31.39,32.25 l -59.29,0.8 c -13.3,0.18 -25.16,8.59 -29.48,21.16 -14.17,41.23 -35.64,80.04 -63.88,114.36 -8.44,10.25 -9.36,24.74 -2.57,36.14 l 30.29,50.86 c 9,15.11 4.04,34.64 -11.06,43.64 l -123.91,73.79 c -15.11,9 -34.64,4.05 -43.64,-11.06 l -30.29,-50.85 c -6.79,-11.41 -19.97,-17.5 -33,-14.97 -43.63,8.5 -87.98,8.88 -130.97,1.7 -13.12,-2.19 -26.16,4.23 -32.65,15.84 l -28.96,51.75 c -8.58,15.34 -27.97,20.82 -43.31,12.24 l -125.87,-70.42 c -15.34,-8.57 -20.82,-27.97 -12.24,-43.31 l 28.91,-51.68 c 6.5,-11.61 5.15,-26.06 -3.58,-36.1 -14.17,-16.29 -27.12,-34.05 -38.56,-53.26 -11.44,-19.21 -20.88,-39.05 -28.46,-59.28 -4.66,-12.44 -16.73,-20.52 -30.03,-20.34 l -59.217,0.81 c -17.57,0.23 -32.015,-13.82 -32.253,-31.4 l -1.954,-144.21 c -0.238,-17.58 13.821,-32.02 31.399,-32.26 l 59.285,-0.8 c 13.31,-0.18 25.16,-8.59 29.48,-21.17 14.17,-41.22 35.64,-80.03 63.88,-114.35 8.44,-10.25 9.36,-24.74 2.57,-36.14 l -30.29,-50.86 c -8.99,-15.11 -4.04,-34.64 11.06,-43.64 l 123.92,-73.79 c 15.1,-9 34.63,-4.05 43.63,11.06 l 30.29,50.85 c 6.79,11.41 19.97,17.5 33,14.97 43.63,-8.5 87.99,-8.88 130.98,-1.7 13.12,2.19 26.15,-4.23 32.64,-15.83 l 28.96,-51.76 c 8.58,-15.34 27.97,-20.82 43.31,-12.24 l 125.87,70.42 c 15.34,8.58 20.82,27.97 12.24,43.31 l -28.91,51.68 c -6.5,11.61 -5.14,26.07 3.58,36.1 14.18,16.3 27.12,34.05 38.56,53.26"
         style="fill:#ffffff;fill-opacity:1;fill-rule:nonzero;stroke:none"
         id="path62"
         inkscape:connector-curvature="0" /><path
         d="m 1329.35,3842.88 2,4.58 c -74.99,32.76 -117.08,104.38 -117.1,178.15 0.01,41.45 13.29,83.51 41.58,119.78 37.07,47.53 94.45,73.8 152.72,73.79 25.76,0 51.67,-5.12 76.1,-15.79 74.99,-32.76 117.08,-104.38 117.1,-178.16 -0.01,-41.44 -13.29,-83.5 -41.58,-119.77 -37.07,-47.53 -94.44,-73.8 -152.72,-73.79 -25.75,0 -51.67,5.12 -76.1,15.79 l -2,-4.58 -2,-4.58 c 25.73,-11.24 53.02,-16.63 80.1,-16.63 61.25,0 121.52,27.56 160.6,77.64 29.69,38.04 43.7,82.35 43.7,125.92 0.02,77.54 -44.35,152.94 -123.1,187.32 -25.73,11.24 -53.02,16.64 -80.1,16.63 -61.25,0 -121.52,-27.56 -160.6,-77.64 -29.69,-38.04 -43.7,-82.35 -43.7,-125.93 -0.02,-77.53 44.35,-152.92 123.1,-187.31 z m 395.42,-6.11 4.3,-2.56 c 11.6,19.47 21.16,39.58 28.84,60.08 3.86,10.32 13.84,17.1 24.91,17.1 h 0.37 l 59.22,-0.8 0.51,-0.01 c 20.11,0.01 36.53,16.17 36.81,36.33 l 1.95,144.22 0.01,0.51 c -0.01,20.11 -16.16,36.53 -36.33,36.81 l -59.3,0.8 c -11.23,0.16 -21.19,7.25 -24.81,17.79 v 0 c -14.36,41.78 -36.12,81.12 -64.75,115.9 -3.94,4.79 -5.93,10.68 -5.93,16.65 0,4.73 1.26,9.5 3.8,13.77 l 30.29,50.85 c 3.51,5.9 5.19,12.41 5.19,18.82 0.01,12.54 -6.43,24.78 -17.99,31.67 l -123.92,73.8 v 0 c -5.89,3.51 -12.4,5.19 -18.81,5.19 -12.54,0.01 -24.79,-6.42 -31.67,-17.99 v 0 l -30.29,-50.86 c -4.86,-8.17 -13.62,-13.09 -22.81,-13.09 -1.63,0 -3.29,0.16 -4.94,0.48 -23.58,4.59 -47.37,6.84 -71.05,6.84 -20.73,0 -41.37,-1.72 -61.71,-5.12 -1.44,-0.24 -2.87,-0.36 -4.29,-0.36 -9.46,0 -18.4,5.19 -23.17,13.71 l -29.12,52.04 0.17,-0.29 c -6.75,12.06 -19.28,18.86 -32.17,18.86 -6.09,0 -12.28,-1.52 -17.95,-4.7 v 0 l -125.87,-70.41 c -12.05,-6.75 -18.86,-19.28 -18.85,-32.17 -0.01,-6.09 1.51,-12.28 4.69,-17.95 l 28.91,-51.68 c 2.3,-4.11 3.43,-8.63 3.43,-13.12 0,-6.24 -2.17,-12.37 -6.42,-17.26 v 0 c -14.36,-16.51 -27.49,-34.51 -39.09,-53.98 -11.59,-19.48 -21.16,-39.59 -28.84,-60.08 -3.86,-10.32 -13.84,-17.1 -24.91,-17.1 h -0.37 l -59.216,0.8 -0.512,0.01 c -20.109,-0.01 -36.531,-16.16 -36.812,-36.34 l -1.954,-144.2 v 0 l -0.003,-0.51 c 0.003,-20.12 16.16,-36.54 36.332,-36.82 l 59.295,-0.8 c 11.23,-0.16 21.2,-7.25 24.81,-17.79 14.36,-41.78 36.12,-81.12 64.75,-115.9 3.94,-4.79 5.93,-10.67 5.93,-16.64 0,-4.74 -1.26,-9.51 -3.8,-13.78 l -30.29,-50.85 c -3.51,-5.9 -5.19,-12.41 -5.19,-18.82 0,-12.54 6.43,-24.78 17.99,-31.67 l 123.92,-73.8 c 5.89,-3.51 12.4,-5.19 18.81,-5.19 12.54,-0.01 24.79,6.43 31.67,17.99 l 30.29,50.86 c 4.86,8.17 13.62,13.09 22.81,13.09 1.64,0 3.29,-0.16 4.95,-0.48 23.57,-4.59 47.36,-6.84 71.04,-6.84 20.73,0 41.37,1.72 61.71,5.12 1.44,0.24 2.87,0.36 4.29,0.36 9.47,0 18.41,-5.19 23.17,-13.71 l 28.95,-51.75 c 6.75,-12.06 19.28,-18.86 32.17,-18.86 6.09,0 12.28,1.52 17.95,4.7 l 125.87,70.41 c 12.06,6.75 18.86,19.28 18.86,32.17 0,6.09 -1.52,12.28 -4.7,17.95 l -28.91,51.68 c -2.3,4.11 -3.43,8.63 -3.43,13.12 0,6.23 2.17,12.37 6.42,17.26 14.37,16.52 27.49,34.51 39.09,53.98 l -4.3,2.56 -4.3,2.56 c -11.28,-18.95 -24.05,-36.46 -38.03,-52.54 -5.89,-6.76 -8.88,-15.27 -8.88,-23.82 0,-6.17 1.56,-12.38 4.7,-18 l 28.91,-51.68 c 2.33,-4.16 3.42,-8.64 3.43,-13.07 -0.01,-9.41 -4.95,-18.52 -13.74,-23.44 l -125.87,-70.41 c -4.16,-2.33 -8.63,-3.42 -13.07,-3.43 -9.41,0.01 -18.52,4.95 -23.44,13.74 l -28.95,51.76 c -6.53,11.66 -18.78,18.81 -31.9,18.82 -1.96,0 -3.95,-0.17 -5.94,-0.5 -19.8,-3.3 -39.89,-4.98 -60.06,-4.98 -23.04,0 -46.19,2.19 -69.13,6.65 -2.29,0.45 -4.59,0.67 -6.86,0.67 -12.76,-0.01 -24.73,-6.79 -31.4,-17.98 l -30.29,-50.86 c -5.02,-8.43 -13.92,-13.09 -23.08,-13.1 -4.67,0 -9.38,1.21 -13.7,3.78 l -123.91,73.8 c -8.44,5.02 -13.1,13.92 -13.11,23.08 0,4.67 1.22,9.38 3.79,13.7 l 30.28,50.86 c 3.48,5.84 5.21,12.38 5.21,18.89 0,8.18 -2.75,16.36 -8.2,22.99 -27.87,33.84 -49.04,72.13 -63.02,112.8 -5.03,14.61 -18.77,24.33 -34.14,24.54 l -59.289,0.8 c -14.691,0.19 -26.472,12.17 -26.468,26.82 l 0.003,0.37 1.954,144.21 c 0.195,14.69 12.175,26.47 26.812,26.47 h 0.375 l 59.213,-0.81 h 0.51 c 15.16,0 28.91,9.29 34.27,23.59 7.48,19.95 16.79,39.52 28.08,58.47 11.28,18.95 24.05,36.46 38.03,52.54 5.89,6.76 8.88,15.27 8.88,23.82 0,6.16 -1.56,12.38 -4.7,18 l -28.91,51.68 c -2.33,4.16 -3.42,8.63 -3.42,13.07 0,9.41 4.94,18.53 13.73,23.44 l 126.27,70.64 -0.4,-0.23 c 4.16,2.33 8.64,3.42 13.07,3.43 9.41,-0.01 18.53,-4.95 23.44,-13.74 v 0 l 29.23,-52.24 -0.27,0.49 c 6.53,-11.67 18.77,-18.82 31.89,-18.83 1.97,0 3.95,0.17 5.94,0.5 19.8,3.3 39.89,4.98 60.06,4.98 23.04,0 46.19,-2.19 69.14,-6.65 2.29,-0.45 4.58,-0.67 6.85,-0.67 12.76,0.01 24.73,6.79 31.4,17.98 l 30.29,50.86 c 5.02,8.43 13.92,13.09 23.08,13.1 4.67,0 9.38,-1.21 13.7,-3.78 l 123.91,-73.8 c 8.44,-5.02 13.1,-13.92 13.11,-23.08 0,-4.67 -1.21,-9.38 -3.78,-13.7 l -30.29,-50.86 c -3.48,-5.83 -5.21,-12.38 -5.21,-18.88 0,-8.2 2.75,-16.37 8.21,-23 27.86,-33.84 49.04,-72.13 63.01,-112.8 v 0 c 5.03,-14.61 18.77,-24.33 34.14,-24.54 l 59.3,-0.8 c 14.68,-0.19 26.46,-12.18 26.46,-26.81 l -0.01,-0.37 -1.95,-144.22 c -0.19,-14.69 -12.17,-26.47 -26.81,-26.47 l -0.38,0.01 -59.21,0.8 h -0.51 c -15.16,0 -28.91,-9.28 -34.27,-23.59 -7.48,-19.95 -16.79,-39.52 -28.08,-58.47 l 4.3,-2.56"
         style="fill:#bfc8d2;fill-opacity:1;fill-rule:nonzero;stroke:none"
         id="path64"
         inkscape:connector-curvature="0" /><path
         d="m 4051.87,3317.7 c -148.9,-18.76 -274.11,106.45 -255.35,255.34 12.79,101.46 94.71,183.38 196.17,196.16 148.89,18.77 274.11,-106.45 255.34,-255.34 -12.79,-101.45 -94.71,-183.38 -196.16,-196.16 z m 392.74,225.75 c 0,25.62 -2.34,50.67 -6.74,75.02 -2.7,14.99 4.44,30.01 17.63,37.62 l 58.75,33.92 c 17.43,10.07 23.41,32.36 13.34,49.8 l -82.6,143.08 c -10.07,17.43 -32.37,23.41 -49.8,13.34 l -58.83,-33.96 c -13.2,-7.62 -29.79,-6.3 -41.42,3.55 -38.09,32.26 -81.98,57.88 -129.89,75.09 -14.31,5.14 -23.71,18.87 -23.71,34.07 v 67.81 c 0,20.14 -16.32,36.46 -36.46,36.46 h -165.2 c -20.14,0 -36.47,-16.32 -36.47,-36.46 v -67.81 c 0,-15.2 -9.4,-28.93 -23.71,-34.07 -47.91,-17.21 -91.79,-42.83 -129.89,-75.09 -11.62,-9.85 -28.21,-11.17 -41.41,-3.55 l -58.82,33.96 c -17.45,10.07 -39.74,4.09 -49.81,-13.34 l -82.61,-143.08 c -10.07,-17.44 -4.09,-39.73 13.35,-49.8 l 58.74,-33.92 c 13.2,-7.61 20.34,-22.63 17.63,-37.62 -4.39,-24.35 -6.73,-49.4 -6.73,-75.02 0,-25.61 2.34,-50.67 6.73,-75.01 2.71,-14.99 -4.43,-30.01 -17.63,-37.63 l -58.74,-33.92 c -17.44,-10.06 -23.42,-32.36 -13.35,-49.8 l 82.61,-143.07 c 10.07,-17.44 32.36,-23.41 49.81,-13.35 l 58.81,33.97 c 13.2,7.62 29.79,6.29 41.42,-3.55 38.1,-32.27 81.98,-57.89 129.89,-75.1 14.31,-5.14 23.71,-18.87 23.71,-34.07 v -67.8 c 0,-20.14 16.33,-36.46 36.47,-36.46 h 165.2 c 20.14,0 36.46,16.32 36.46,36.46 v 67.8 c 0,15.2 9.4,28.93 23.71,34.07 47.91,17.21 91.8,42.83 129.89,75.1 11.63,9.84 28.22,11.17 41.42,3.55 l 58.83,-33.97 c 17.43,-10.06 39.73,-4.09 49.8,13.35 l 82.6,143.07 c 10.07,17.44 4.09,39.74 -13.34,49.8 l -58.75,33.92 c -13.2,7.62 -20.33,22.64 -17.63,37.63 4.4,24.34 6.74,49.4 6.74,75.01"
         style="fill:#ffffff;fill-opacity:1;fill-rule:nonzero;stroke:none"
         id="path66"
         inkscape:connector-curvature="0" /><path
         d="m 4051.87,3317.7 -0.63,4.96 c -9.78,-1.23 -19.44,-1.83 -28.97,-1.83 -61.49,0 -117.11,24.91 -157.41,65.21 -40.3,40.3 -65.2,95.93 -65.21,157.42 0,9.52 0.6,19.18 1.83,28.96 12.46,99.14 92.69,179.36 191.83,191.82 9.78,1.24 19.44,1.83 28.97,1.83 61.49,0 117.11,-24.91 157.41,-65.2 40.3,-40.3 65.2,-95.92 65.21,-157.41 0,-9.53 -0.6,-19.2 -1.83,-28.98 -12.46,-99.14 -92.69,-179.36 -191.83,-191.82 l 0.63,-4.96 0.62,-4.96 c 103.77,13.11 187.39,96.73 200.5,200.49 1.28,10.19 1.91,20.28 1.91,30.23 -0.01,128.47 -104.15,232.61 -232.62,232.61 -9.95,0 -20.03,-0.62 -30.22,-1.91 -103.77,-13.11 -187.39,-96.73 -200.5,-200.49 -1.28,-10.19 -1.91,-20.27 -1.91,-30.21 0.01,-128.48 104.14,-232.63 232.62,-232.63 9.95,0 20.03,0.63 30.22,1.91 z m 392.74,225.75 h 5 c 0,25.92 -2.37,51.28 -6.82,75.91 -0.33,1.82 -0.49,3.63 -0.49,5.43 0,10.96 5.92,21.33 15.7,26.97 l 58.75,33.92 c 13.29,7.68 20.74,21.62 20.73,35.94 0,7.03 -1.8,14.18 -5.56,20.69 l -82.6,143.08 c -7.68,13.29 -21.63,20.74 -35.94,20.73 -7.04,0 -14.18,-1.8 -20.7,-5.56 l -58.82,-33.96 c -4.91,-2.84 -10.35,-4.23 -15.76,-4.23 -7.16,0 -14.23,2.44 -19.93,7.26 -38.54,32.65 -82.95,58.57 -131.43,75.99 -12.27,4.4 -20.4,16.23 -20.4,29.36 v 67.81 c -0.01,22.9 -18.56,41.46 -41.46,41.46 h -165.2 c -22.9,0 -41.46,-18.56 -41.47,-41.46 v -67.81 c 0,-13.13 -8.13,-24.96 -20.4,-29.36 -48.48,-17.42 -92.88,-43.34 -131.43,-75.99 -5.69,-4.82 -12.76,-7.26 -19.92,-7.26 -5.41,0 -10.85,1.39 -15.76,4.23 l -58.82,33.96 c -6.52,3.76 -13.67,5.56 -20.7,5.56 -14.32,0.01 -28.26,-7.44 -35.94,-20.73 l -82.61,-143.08 c -3.76,-6.51 -5.56,-13.66 -5.56,-20.69 -0.01,-14.32 7.45,-28.26 20.74,-35.94 l 58.74,-33.92 c 9.79,-5.64 15.7,-16 15.7,-26.95 0,-1.8 -0.16,-3.63 -0.49,-5.45 -4.45,-24.64 -6.81,-49.99 -6.81,-75.91 0,-25.91 2.36,-51.27 6.81,-75.9 0.33,-1.83 0.49,-3.65 0.49,-5.46 0,-10.94 -5.91,-21.3 -15.7,-26.95 l -58.74,-33.92 c -13.29,-7.67 -20.75,-21.62 -20.74,-35.93 0,-7.04 1.8,-14.19 5.56,-20.7 l 82.61,-143.07 c 7.68,-13.29 21.62,-20.74 35.94,-20.74 7.03,0 14.18,1.8 20.69,5.56 l 58.82,33.97 c 4.91,2.83 10.35,4.23 15.76,4.23 7.16,0 14.23,-2.45 19.93,-7.27 38.55,-32.64 82.95,-58.57 131.43,-75.99 12.27,-4.4 20.4,-16.22 20.4,-29.36 v -67.8 c 0.01,-22.9 18.57,-41.46 41.47,-41.46 h 165.2 c 22.9,0 41.45,18.56 41.46,41.46 v 67.8 c 0,13.14 8.13,24.96 20.4,29.36 48.48,17.42 92.89,43.35 131.43,75.99 5.7,4.82 12.77,7.27 19.93,7.27 5.41,0 10.85,-1.4 15.76,-4.23 l 58.83,-33.97 c 6.51,-3.76 13.65,-5.56 20.69,-5.56 14.31,0 28.26,7.45 35.94,20.74 l 82.6,143.07 c 3.76,6.52 5.56,13.66 5.56,20.7 0.01,14.31 -7.44,28.26 -20.73,35.93 l -58.75,33.92 c -9.79,5.65 -15.7,16.01 -15.7,26.97 0,1.8 0.16,3.62 0.49,5.44 4.45,24.63 6.82,49.99 6.82,75.9 h -5 -5 c 0,-25.3 -2.32,-50.06 -6.66,-74.12 -0.44,-2.42 -0.65,-4.83 -0.65,-7.22 0.01,-14.56 7.83,-28.19 20.7,-35.63 l 58.75,-33.92 c 10.09,-5.82 15.72,-16.39 15.73,-27.27 0,-5.34 -1.36,-10.73 -4.22,-15.7 l -82.6,-143.07 c -5.83,-10.1 -16.4,-15.73 -27.28,-15.74 -5.34,0.01 -10.73,1.36 -15.69,4.22 l -58.83,33.97 c -6.45,3.72 -13.63,5.57 -20.76,5.57 -9.43,0 -18.83,-3.24 -26.39,-9.63 -37.65,-31.89 -81.01,-57.21 -128.35,-74.22 -16.34,-5.87 -27.02,-21.5 -27.02,-38.77 v -67.8 c -0.03,-17.38 -14.08,-31.43 -31.46,-31.46 h -165.2 c -17.38,0.03 -31.44,14.08 -31.47,31.46 v 67.8 c 0,17.27 -10.67,32.9 -27.02,38.77 -47.34,17.01 -90.69,42.33 -128.35,74.21 -7.56,6.4 -16.96,9.64 -26.39,9.64 -7.13,0 -14.31,-1.85 -20.76,-5.57 L 3646.87,3195 c -4.97,-2.86 -10.35,-4.21 -15.69,-4.22 -10.89,0.01 -21.45,5.64 -27.28,15.74 l -82.61,143.07 c -2.87,4.97 -4.22,10.36 -4.22,15.7 0.01,10.88 5.64,21.44 15.74,27.27 l 58.74,33.92 c 12.87,7.43 20.7,21.06 20.7,35.61 0,2.4 -0.21,4.82 -0.65,7.24 -4.34,24.06 -6.65,48.82 -6.65,74.12 0,25.31 2.31,50.07 6.65,74.13 0.44,2.41 0.65,4.83 0.65,7.23 0,14.56 -7.83,28.18 -20.7,35.61 l -58.74,33.92 c -10.1,5.83 -15.73,16.39 -15.74,27.28 0,5.34 1.36,10.72 4.22,15.69 l 82.61,143.08 c 5.83,10.09 16.39,15.72 27.28,15.73 5.34,0 10.72,-1.35 15.7,-4.22 l 58.82,-33.96 c 6.45,-3.73 13.63,-5.58 20.76,-5.57 9.43,-0.01 18.83,3.23 26.38,9.63 37.66,31.89 81.01,57.2 128.35,74.21 16.35,5.88 27.02,21.51 27.02,38.77 v 67.81 c 0.03,17.37 14.09,31.43 31.47,31.46 h 165.2 c 17.38,-0.03 31.43,-14.09 31.46,-31.46 v -67.81 c 0,-17.26 10.68,-32.89 27.02,-38.77 47.34,-17.01 90.7,-42.32 128.35,-74.21 7.55,-6.4 16.95,-9.64 26.39,-9.63 7.13,-0.01 14.31,1.84 20.76,5.57 l 58.83,33.96 c 4.96,2.87 10.35,4.22 15.69,4.22 10.88,-0.01 21.45,-5.64 27.28,-15.73 l 82.6,-143.08 c 2.86,-4.97 4.22,-10.36 4.22,-15.69 -0.01,-10.89 -5.64,-21.45 -15.73,-27.28 L 4453,3660.42 c -12.87,-7.43 -20.69,-21.07 -20.7,-35.63 0,-2.39 0.22,-4.8 0.65,-7.21 4.34,-24.06 6.66,-48.82 6.66,-74.13 h 5"
         style="fill:#bfc8d2;fill-opacity:1;fill-rule:nonzero;stroke:none"
         id="path68"
         inkscape:connector-curvature="0" /><path
         d="m 977.719,1334.18 h 3044.56 V 3285.82 H 977.719 Z"
         style="fill:#e8ecef;fill-opacity:1;fill-rule:nonzero;stroke:none"
         id="path70"
         inkscape:connector-curvature="0" /><path
         d="M 4022.28,3036.49 H 977.719 v 171.15 H 4022.28 v -171.15"
         style="fill:#bfc8d2;fill-opacity:1;fill-rule:nonzero;stroke:none"
         id="path72"
         inkscape:connector-curvature="0" /><path
         d="m 1158.89,3154.17 c -1.47,0 -2.94,-0.62 -4.13,-1.87 l -20.75,-21.83 c -1.4,-1.49 -2.22,-3.65 -2.22,-5.94 v -26.77 c 0,-4.31 2.84,-7.81 6.35,-7.81 h 41.49 c 3.51,0 6.35,3.5 6.35,7.81 v 26.77 c 0,2.29 -0.81,4.45 -2.22,5.94 l -20.75,21.83 c -1.18,1.25 -2.65,1.87 -4.12,1.87 z m 0,-12.05 17.09,-17.98 v -24.19 h -34.19 v 24.19 l 17.1,17.98"
         style="fill:#203d57;fill-opacity:1;fill-rule:nonzero;stroke:none"
         id="path74"
         inkscape:connector-curvature="0" /><path
         d="m 1242.11,3099.38 23.94,15.42 c 2.26,1.4 4.34,3.95 4.35,7.26 -0.01,3.32 -2.09,5.86 -4.34,7.27 l -23.95,15.43 c -2.33,1.49 -5.42,0.82 -6.91,-1.5 -1.5,-2.32 -0.83,-5.42 1.49,-6.91 l 23.95,-15.42 0.16,-0.12 0.69,0.72 -0.88,-0.42 0.19,-0.3 0.69,0.72 -0.88,-0.42 1.98,0.95 h -2.19 l 0.21,-0.95 1.98,0.95 h -2.19 2.04 l -1.73,1.14 -0.31,-1.14 h 2.04 l -1.73,1.14 0.56,-0.36 -0.47,0.49 -0.09,-0.13 0.56,-0.36 -0.47,0.49 -0.16,-0.13 -23.95,-15.42 c -2.32,-1.49 -2.99,-4.59 -1.49,-6.91 1.49,-2.32 4.58,-2.99 6.91,-1.49"
         style="fill:#203d57;fill-opacity:1;fill-rule:nonzero;stroke:none"
         id="path76"
         inkscape:connector-curvature="0" /><path
         d="m 1081.09,3107.78 -23.95,15.42 -0.17,0.13 -0.69,-0.74 0.89,0.43 -0.2,0.31 -0.69,-0.74 0.89,0.43 -1.99,-0.96 h 2.2 l -0.21,0.96 -1.99,-0.96 h 2.2 -2.04 l 1.73,-1.13 0.31,1.13 h -2.04 l 1.73,-1.13 -0.55,0.36 0.46,-0.48 0.09,0.12 -0.55,0.36 0.46,-0.48 0.16,0.12 23.95,15.42 c 2.32,1.49 2.99,4.59 1.49,6.91 -1.49,2.32 -4.59,2.99 -6.91,1.5 l -23.94,-15.42 c -2.26,-1.42 -4.34,-3.96 -4.35,-7.28 0.01,-3.31 2.09,-5.86 4.35,-7.27 l 23.94,-15.41 c 2.32,-1.5 5.42,-0.83 6.91,1.49 1.5,2.32 0.83,5.42 -1.49,6.91"
         style="fill:#203d57;fill-opacity:1;fill-rule:nonzero;stroke:none"
         id="path78"
         inkscape:connector-curvature="0" /><path
         d="M 3670.11,3068.9 H 1367.33 c -14.38,0 -26.04,11.65 -26.04,26.03 v 54.26 c 0,14.38 11.66,26.04 26.04,26.04 h 2302.78 c 14.37,0 26.03,-11.66 26.03,-26.04 v -54.26 c 0,-14.38 -11.66,-26.03 -26.03,-26.03"
         style="fill:#f5f6f5;fill-opacity:1;fill-rule:nonzero;stroke:none"
         id="path80"
         inkscape:connector-curvature="0" /><path
         d="m 2906.64,3106.01 h -775.85 v 32.11 h 775.85 v -32.11"
         style="fill:#bfc8d2;fill-opacity:1;fill-rule:nonzero;stroke:none"
         id="path82"
         inkscape:connector-curvature="0" /><path
         d="m 1424.06,3138.12 -3.54,-3.54 c 3.47,-3.47 5.18,-7.97 5.19,-12.52 -0.01,-4.54 -1.72,-9.05 -5.19,-12.52 -3.47,-3.47 -7.97,-5.18 -12.52,-5.18 -4.55,0 -9.05,1.72 -12.52,5.18 -3.47,3.47 -5.18,7.98 -5.19,12.52 0.01,4.55 1.72,9.05 5.19,12.52 3.47,3.47 7.97,5.18 12.52,5.19 4.55,0 9.05,-1.72 12.52,-5.19 l 3.54,3.54 3.53,3.54 c -5.39,5.4 -12.52,8.12 -19.59,8.11 -7.07,0.01 -14.19,-2.71 -19.59,-8.11 -5.4,-5.4 -8.12,-12.52 -8.12,-19.6 0,-7.07 2.72,-14.19 8.12,-19.59 5.39,-5.4 12.52,-8.12 19.59,-8.11 7.07,-0.01 14.2,2.71 19.59,8.11 5.4,5.4 8.12,12.52 8.12,19.59 0,7.08 -2.72,14.2 -8.12,19.6 l -3.53,-3.54"
         style="fill:#bfc8d2;fill-opacity:1;fill-rule:nonzero;stroke:none"
         id="path84"
         inkscape:connector-curvature="0" /><path
         d="m 1420.52,3102.47 13.65,-13.64 c 1.95,-1.95 5.11,-1.95 7.07,0 1.95,1.96 1.95,5.12 0,7.07 l -13.65,13.64 c -1.95,1.95 -5.12,1.95 -7.07,0 -1.95,-1.95 -1.95,-5.12 0,-7.07"
         style="fill:#bfc8d2;fill-opacity:1;fill-rule:nonzero;stroke:none"
         id="path86"
         inkscape:connector-curvature="0" /><path
         d="m 3655.85,3122.07 c -0.02,-9.78 -7.93,-17.69 -17.71,-17.71 -9.78,0.02 -17.69,7.93 -17.71,17.71 0.02,9.77 7.93,17.68 17.71,17.7 2.77,0 5,2.24 5,5 0,2.76 -2.23,5 -5,5 -15.31,0 -27.71,-12.4 -27.71,-27.7 0,-15.31 12.4,-27.71 27.71,-27.71 15.31,0 27.71,12.4 27.71,27.71 0,2.76 -2.24,5 -5,5 -2.76,0 -5,-2.24 -5,-5"
         style="fill:#bfc8d2;fill-opacity:1;fill-rule:nonzero;stroke:none"
         id="path88"
         inkscape:connector-curvature="0" /><path
         d="m 3638.14,3151.12 -2.79,-4.15 5.94,-4.01 -5.95,-4.02 2.8,-4.15 h 5 v 16.33 h -5 l -2.79,-4.15 2.79,4.15 h -5 v -16.33 c 0,-1.85 1.03,-3.54 2.66,-4.41 1.63,-0.87 3.61,-0.76 5.14,0.27 l 12.08,8.17 c 1.38,0.92 2.2,2.48 2.2,4.14 0,1.65 -0.83,3.22 -2.2,4.14 l -12.08,8.16 c -1.53,1.04 -3.51,1.14 -5.14,0.27 -1.64,-0.86 -2.66,-2.56 -2.66,-4.41 h 5"
         style="fill:#bfc8d2;fill-opacity:1;fill-rule:nonzero;stroke:none"
         id="path90"
         inkscape:connector-curvature="0" /><path
         d="m 3793.92,3154.27 -4.76,-1.55 7.99,-24.6 c 0.67,-2.05 2.59,-3.45 4.75,-3.45 h 10.49 l -8.48,-6.16 c -1.75,-1.27 -2.49,-3.54 -1.82,-5.59 l 3.24,-9.97 -8.48,6.16 c -1.74,1.27 -4.13,1.27 -5.87,0 l -8.49,-6.16 3.24,9.97 c 0.67,2.05 -0.07,4.32 -1.81,5.59 l -8.48,6.16 h 10.48 c 2.16,0 4.09,1.4 4.75,3.45 l 8,24.6 -4.75,1.55 -4.76,-1.55 4.76,1.55 -4.76,1.54 -6.87,-21.14 h -22.24 c -2.16,0 -4.09,-1.4 -4.76,-3.46 -0.66,-2.05 0.07,-4.32 1.82,-5.59 l 17.99,-13.07 -6.88,-21.15 c -0.66,-2.05 0.07,-4.32 1.82,-5.59 1.75,-1.27 4.13,-1.27 5.88,0 l 18,13.07 17.98,-13.07 c 1.75,-1.27 4.14,-1.27 5.88,0 1.75,1.27 2.49,3.54 1.82,5.59 l -6.88,21.15 17.99,13.07 c 1.75,1.27 2.49,3.54 1.82,5.59 -0.67,2.06 -2.6,3.46 -4.76,3.46 h -22.23 l -6.87,21.14 c -0.67,2.06 -2.59,3.46 -4.75,3.46 -2.16,0 -4.09,-1.4 -4.76,-3.46 l 4.76,-1.54"
         style="fill:#203d57;fill-opacity:1;fill-rule:nonzero;stroke:none"
         id="path92"
         inkscape:connector-curvature="0" /><path
         d="m 3882.46,3144.05 h 84.5 c 2.76,0 5,2.24 5,5 0,2.76 -2.24,5 -5,5 h -84.5 c -2.76,0 -5,-2.24 -5,-5 0,-2.76 2.24,-5 5,-5"
         style="fill:#203d57;fill-opacity:1;fill-rule:nonzero;stroke:none"
         id="path94"
         inkscape:connector-curvature="0" /><path
         d="m 3882.46,3117.07 h 84.5 c 2.76,0 5,2.23 5,5 0,2.76 -2.24,5 -5,5 h -84.5 c -2.76,0 -5,-2.24 -5,-5 0,-2.77 2.24,-5 5,-5"
         style="fill:#203d57;fill-opacity:1;fill-rule:nonzero;stroke:none"
         id="path96"
         inkscape:connector-curvature="0" /><path
         d="m 3882.46,3090.08 h 84.5 c 2.76,0 5,2.24 5,5 0,2.76 -2.24,5 -5,5 h -84.5 c -2.76,0 -5,-2.24 -5,-5 0,-2.76 2.24,-5 5,-5"
         style="fill:#203d57;fill-opacity:1;fill-rule:nonzero;stroke:none"
         id="path98"
         inkscape:connector-curvature="0" /><path
         d="M 4018.53,3285.82 V 1337.93 H 977.719 v -7.5 H 4026.02 v 1955.39 h -7.49"
         style="fill:#203d57;fill-opacity:1;fill-rule:nonzero;stroke:none"
         id="path100"
         inkscape:connector-curvature="0" /><path
         d="M 4022.28,3207.64 H 977.719 v 78.18 H 4022.28 v -78.18"
         style="fill:#203d57;fill-opacity:1;fill-rule:nonzero;stroke:none"
         id="path102"
         inkscape:connector-curvature="0" /><path
         d="m 1057.04,3246.73 c 0,-10.11 -8.2,-18.31 -18.31,-18.31 -10.11,0 -18.31,8.2 -18.31,18.31 0,10.11 8.2,18.31 18.31,18.31 10.11,0 18.31,-8.2 18.31,-18.31"
         style="fill:#f5e831;fill-opacity:1;fill-rule:nonzero;stroke:none"
         id="path104"
         inkscape:connector-curvature="0" /><path
         d="m 1107.31,3246.73 c 0,-10.11 -8.2,-18.31 -18.31,-18.31 -10.11,0 -18.31,8.2 -18.31,18.31 0,10.11 8.2,18.31 18.31,18.31 10.11,0 18.31,-8.2 18.31,-18.31"
         style="fill:#4d75c3;fill-opacity:1;fill-rule:nonzero;stroke:none"
         id="path106"
         inkscape:connector-curvature="0" /><path
         d="m 1157.58,3246.73 c 0,-10.11 -8.2,-18.31 -18.31,-18.31 -10.11,0 -18.31,8.2 -18.31,18.31 0,10.11 8.2,18.31 18.31,18.31 10.11,0 18.31,-8.2 18.31,-18.31"
         style="fill:#ca36a3;fill-opacity:1;fill-rule:nonzero;stroke:none"
         id="path108"
         inkscape:connector-curvature="0" /><path
         d="m 2735.3,1449.63 h 1052.51 v 118.98 H 2735.3 Z"
         style="fill:#5142a2;fill-opacity:1;fill-rule:nonzero;stroke:none"
         id="path110"
         inkscape:connector-curvature="0" /><path
         d="m 1486.86,2815 c 0,-76.62 -62.1,-138.73 -138.72,-138.73 -76.62,0 -138.73,62.11 -138.73,138.73 0,76.61 62.11,138.72 138.73,138.72 76.62,0 138.72,-62.11 138.72,-138.72"
         style="fill:#5142a2;fill-opacity:1;fill-rule:nonzero;stroke:none"
         id="path112"
         inkscape:connector-curvature="0" /><path
         d="m 2098.3,2826.15 h -542.38 v 47.07 h 542.38 v -47.07"
         style="fill:#ba9dd5;fill-opacity:1;fill-rule:nonzero;stroke:none"
         id="path114"
         inkscape:connector-curvature="0" /><path
         d="m 1954.62,2803.84 h -398.7 v -47.08 h 398.7 v 47.08"
         style="fill:#ba9dd5;fill-opacity:1;fill-rule:nonzero;stroke:none"
         id="path116"
         inkscape:connector-curvature="0" /><path
         d="m 3110.73,2826.15 h -271.19 v 47.07 h 271.19 v -47.07"
         style="fill:#bfc8d2;fill-opacity:1;fill-rule:nonzero;stroke:none"
         id="path118"
         inkscape:connector-curvature="0" /><path
         d="m 3449.27,2826.15 h -271.18 v 47.07 h 271.18 v -47.07"
         style="fill:#bfc8d2;fill-opacity:1;fill-rule:nonzero;stroke:none"
         id="path120"
         inkscape:connector-curvature="0" /><path
         d="m 1214.75,2619.13 h 2570.5 v 10 h -2570.5 z"
         style="fill:#203d57;fill-opacity:1;fill-rule:nonzero;stroke:none"
         id="path122"
         inkscape:connector-curvature="0" /><path
         d="m 2098.3,1956.58 h -883.55 v 71.08 h 883.55 v -71.08"
         style="fill:#ba9dd5;fill-opacity:1;fill-rule:nonzero;stroke:none"
         id="path124"
         inkscape:connector-curvature="0" /><path
         d="m 1214.75,1856.96 h 1229.54 v 31.4805 H 1214.75 Z"
         style="fill:#bfc8d2;fill-opacity:1;fill-rule:nonzero;stroke:none"
         id="path126"
         inkscape:connector-curvature="0" /><path
         d="M 2336.89,1796.04 H 1214.75 v 31.47 h 1122.14 v -31.47"
         style="fill:#bfc8d2;fill-opacity:1;fill-rule:nonzero;stroke:none"
         id="path128"
         inkscape:connector-curvature="0" /><path
         d="M 2246.11,1735.12 H 1214.75 v 31.47 h 1031.36 v -31.47"
         style="fill:#bfc8d2;fill-opacity:1;fill-rule:nonzero;stroke:none"
         id="path130"
         inkscape:connector-curvature="0" /><path
         d="m 1214.75,1674.2 h 1229.54 v 31.4727 H 1214.75 Z"
         style="fill:#bfc8d2;fill-opacity:1;fill-rule:nonzero;stroke:none"
         id="path132"
         inkscape:connector-curvature="0" /><path
         d="m 1591,1439.63 h -306.76 c -32.86,0 -59.49,26.64 -59.49,59.49 0,32.86 26.63,59.49 59.49,59.49 H 1591 c 32.86,0 59.49,-26.63 59.49,-59.49 0,-32.85 -26.63,-59.49 -59.49,-59.49"
         style="fill:#b6b8bb;fill-opacity:1;fill-rule:nonzero;stroke:none"
         id="path134"
         inkscape:connector-curvature="0" /><path
         d="m 1581,1449.63 h -306.76 c -32.86,0 -59.49,26.64 -59.49,59.49 0,32.86 26.63,59.49 59.49,59.49 H 1581 c 32.86,0 59.49,-26.63 59.49,-59.49 0,-32.85 -26.63,-59.49 -59.49,-59.49"
         style="fill:#f5e831;fill-opacity:1;fill-rule:nonzero;stroke:none"
         id="path136"
         inkscape:connector-curvature="0" /><path
         d="m 2081.3,1439.63 h -306.76 c -32.86,0 -59.5,26.64 -59.5,59.49 0,32.86 26.64,59.49 59.5,59.49 h 306.76 c 32.86,0 59.49,-26.63 59.49,-59.49 0,-32.85 -26.63,-59.49 -59.49,-59.49"
         style="fill:#b6b8bb;fill-opacity:1;fill-rule:nonzero;stroke:none"
         id="path138"
         inkscape:connector-curvature="0" /><path
         d="m 2071.3,1449.63 h -306.76 c -32.86,0 -59.5,26.64 -59.5,59.49 0,32.86 26.64,59.49 59.5,59.49 h 306.76 c 32.86,0 59.49,-26.63 59.49,-59.49 0,-32.85 -26.63,-59.49 -59.49,-59.49"
         style="fill:#203d57;fill-opacity:1;fill-rule:nonzero;stroke:none"
         id="path140"
         inkscape:connector-curvature="0" /><path
         d="m 1394.26,2506.19 h -179.51 v -179.52 h 179.51 v 179.52"
         style="fill:#5142a2;fill-opacity:1;fill-rule:nonzero;stroke:none"
         id="path142"
         inkscape:connector-curvature="0" /><path
         d="m 1212.98,2504.42 179.51,-179.52 3.54,3.54 -179.52,179.51"
         style="fill:#f5f6f5;fill-opacity:1;fill-rule:nonzero;stroke:none"
         id="path144"
         inkscape:connector-curvature="0" /><path
         d="m 1392.49,2507.95 -179.51,-179.51 3.53,-3.54 179.52,179.52"
         style="fill:#f5f6f5;fill-opacity:1;fill-rule:nonzero;stroke:none"
         id="path146"
         inkscape:connector-curvature="0" /><path
         d="m 1645.68,2506.19 h -179.52 v -179.52 h 179.52 v 179.52"
         style="fill:#5142a2;fill-opacity:1;fill-rule:nonzero;stroke:none"
         id="path148"
         inkscape:connector-curvature="0" /><path
         d="m 1464.39,2504.42 179.52,-179.52 3.54,3.54 -179.53,179.51"
         style="fill:#f5f6f5;fill-opacity:1;fill-rule:nonzero;stroke:none"
         id="path150"
         inkscape:connector-curvature="0" /><path
         d="m 1643.91,2507.95 -179.52,-179.51 3.53,-3.54 179.53,179.52"
         style="fill:#f5f6f5;fill-opacity:1;fill-rule:nonzero;stroke:none"
         id="path152"
         inkscape:connector-curvature="0" /><path
         d="m 1897.09,2506.19 h -179.52 v -179.52 h 179.52 v 179.52"
         style="fill:#5142a2;fill-opacity:1;fill-rule:nonzero;stroke:none"
         id="path154"
         inkscape:connector-curvature="0" /><path
         d="m 1715.81,2504.42 179.51,-179.52 3.54,3.54 -179.52,179.51"
         style="fill:#f5f6f5;fill-opacity:1;fill-rule:nonzero;stroke:none"
         id="path156"
         inkscape:connector-curvature="0" /><path
         d="m 1895.32,2507.95 -179.51,-179.51 3.53,-3.54 179.52,179.52"
         style="fill:#f5f6f5;fill-opacity:1;fill-rule:nonzero;stroke:none"
         id="path158"
         inkscape:connector-curvature="0" /><path
         d="m 2194.91,2097.88 -933.48,14.85 2.52,158.44 933.48,-14.86 -2.52,-158.43"
         style="fill:#b6b8bb;fill-opacity:1;fill-rule:nonzero;stroke:none"
         id="path160"
         inkscape:connector-curvature="0" /><path
         d="m 1243.95,2281.17 933.48,-14.86 -2.52,-158.43 -933.48,14.85 2.52,158.44"
         style="fill:#5142a2;fill-opacity:1;fill-rule:nonzero;stroke:none"
         id="path162"
         inkscape:connector-curvature="0" /><path
         d="m 3169.52,4358.52 v -781.06 c 0,-2.76 2.24,-5 5,-5 2.76,0 5,2.24 5,5 v 781.06 c 0,2.76 -2.24,5 -5,5 -2.76,0 -5,-2.24 -5,-5"
         style="fill:#bfc8d2;fill-opacity:1;fill-rule:nonzero;stroke:none"
         id="path164"
         inkscape:connector-curvature="0" /><path
         d="m 3174.52,3594.61 c 15.53,0 28.16,-12.63 28.16,-28.15 0,-9.52 -4.77,-17.91 -12.02,-23.01 -4.8,4.47 -11.35,7.01 -18.4,6.36 -5.44,-0.5 -10.22,-2.86 -13.95,-6.3 -7.21,5.1 -11.95,13.46 -11.95,22.95 0,15.52 12.63,28.15 28.16,28.15 z m 47.09,-190.49 c -7.21,-0.24 -12.85,-6.27 -12.61,-13.48 0.55,-16.36 -12.45,-31.91 -28.76,-34.52 -4.04,-0.56 -8.23,-0.87 -12.53,0.02 -4.1,0.56 -7.79,2 -11.38,4.08 -7.16,4.08 -12.96,11.1 -15.55,18.74 -2.72,7.76 -3.36,17.43 0.29,24.78 18.53,37.25 55.47,60.98 55.47,98.28 26.79,9.18 46.14,34.57 46.14,64.44 0,37.58 -30.58,68.15 -68.16,68.15 -37.59,0 -68.16,-30.57 -68.16,-68.15 0,-28.88 18.07,-53.55 43.47,-63.47 -2.37,-26.13 -32.84,-49.59 -45.64,-84.78 -6.11,-16.8 -4.76,-35.16 1.59,-51.02 6.37,-15.95 18.43,-28.86 32.96,-36.33 14.58,-7.73 31.46,-9.23 46.61,-5.86 15.25,3.52 28.85,12.42 37.62,24.54 9.03,11.96 13.07,26.91 12.18,41.1 l -0.08,1.27 c -0.45,7.02 -6.39,12.45 -13.46,12.21"
         style="fill:#bfc8d2;fill-opacity:1;fill-rule:nonzero;stroke:none"
         id="path166"
         inkscape:connector-curvature="0" /><path
         d="m 4026.02,2237.27 v 459.31 l 4.75,0.66 55.11,-400.98 c -17.29,-20.03 -37.09,-39.77 -59.86,-58.99"
         style="fill:#ccccc9;fill-opacity:1;fill-rule:nonzero;stroke:none"
         id="path168"
         inkscape:connector-curvature="0" /><path
         d="m 4127.92,1990.41 -98.01,74.32 c 31.45,-11.42 63.46,-27.8 94.45,-48.47 l 3.56,-25.85 m -5.36,38.99 c -31.7,20.37 -64.37,36.38 -96.54,47.3 v 147.54 c 23.36,19.16 43.76,38.86 61.66,58.91 l 34.88,-253.75"
         style="fill:#ccccc9;fill-opacity:1;fill-rule:nonzero;stroke:none"
         id="path170"
         inkscape:connector-curvature="0" /><path
         d="m 4026.02,2224.24 v 13.03 c 22.77,19.22 42.57,38.96 59.86,58.99 l 1.8,-13.11 c -17.9,-20.05 -38.3,-39.75 -61.66,-58.91"
         style="fill:#949da6;fill-opacity:1;fill-rule:nonzero;stroke:none"
         id="path172"
         inkscape:connector-curvature="0" /><path
         d="m 4124.36,2016.26 c -30.99,20.67 -63,37.05 -94.45,48.47 l -3.89,2.95 v 9.02 c 32.17,-10.92 64.84,-26.93 96.54,-47.3 l 1.8,-13.14"
         style="fill:#949da6;fill-opacity:1;fill-rule:nonzero;stroke:none"
         id="path174"
         inkscape:connector-curvature="0" /><path
         d="m 2507.66,1563.91 -124.64,906.86 1079.45,148.36 h 322.78 v 10 h -250.02 l 483.3,66.42 v -622.19 l -333.95,253.24 -439.47,-579.53 -380.01,288.18 -357.44,-471.34 m 660.69,888.04 c -6.57,0 -13.24,-0.44 -19.93,-1.36 -79.39,-10.91 -134.89,-84.11 -123.98,-163.49 9.99,-72.68 72.19,-125.34 143.55,-125.34 6.57,0 13.23,0.44 19.93,1.36 79.38,10.91 134.88,84.11 123.97,163.49 -9.98,72.68 -72.18,125.34 -143.54,125.34"
         style="fill:#b6b8bb;fill-opacity:1;fill-rule:nonzero;stroke:none"
         id="path176"
         inkscape:connector-curvature="0" /><path
         d="m 4026.02,2067.68 -7.49,5.68 v 622.19 l 7.49,1.03 v -459.31 -13.03 -147.54 -9.02"
         style="fill:#1b3043;fill-opacity:1;fill-rule:nonzero;stroke:none"
         id="path178"
         inkscape:connector-curvature="0" /><path
         d="m 3785.25,2619.13 h -322.78 l 72.76,10 h 250.02 v -10"
         style="fill:#1b3043;fill-opacity:1;fill-rule:nonzero;stroke:none"
         id="path180"
         inkscape:connector-curvature="0" /><path
         d="m 4026.02,1698.9 v 0.01 l 113.74,15.63 c 0.01,0 0.01,0 0.01,0 l -113.75,-15.64"
         style="fill:#ccccc9;fill-opacity:1;fill-rule:nonzero;stroke:none"
         id="path182"
         inkscape:connector-curvature="0" /><path
         d="m 4150.45,1716 c 0,0.01 -0.01,0.01 -0.01,0.01 l 54.53,7.5 v -0.01 l -54.52,-7.5"
         style="fill:#ccccc9;fill-opacity:1;fill-rule:nonzero;stroke:none"
         id="path184"
         inkscape:connector-curvature="0" /><path
         d="m 4139.77,1714.54 c 0,0 0,0 -0.01,0 l 10.68,1.47 c 0,0 0.01,0 0.01,-0.01 l -10.68,-1.46"
         style="fill:#949da6;fill-opacity:1;fill-rule:nonzero;stroke:none"
         id="path186"
         inkscape:connector-curvature="0" /><path
         d="m 2477.97,1486.15 257.33,35.37 v 0 l -257.33,-35.37 m 600.02,82.46 h -0.03 l 940.57,129.27 v -0.01 l -940.54,-129.26"
         style="fill:#b6b8bb;fill-opacity:1;fill-rule:nonzero;stroke:none"
         id="path188"
         inkscape:connector-curvature="0" /><path
         d="m 4018.53,1697.87 v 0.01 l 7.49,1.03 v -0.01 l -7.49,-1.03"
         style="fill:#1b3043;fill-opacity:1;fill-rule:nonzero;stroke:none"
         id="path190"
         inkscape:connector-curvature="0" /><path
         d="m 2735.3,1521.52 v 0 l 342.66,47.09 h 0.03 l -342.69,-47.09"
         style="fill:#453498;fill-opacity:1;fill-rule:nonzero;stroke:none"
         id="path192"
         inkscape:connector-curvature="0" /><path
         d="M 4026.02,1739.29 V 1864 c 21.46,-25.71 43.42,-51.44 63.56,-77.1 9.26,-11.78 18.11,-23.53 26.35,-35.26 l -89.91,-12.35"
         style="fill:#ccccc9;fill-opacity:1;fill-rule:nonzero;stroke:none"
         id="path194"
         inkscape:connector-curvature="0" /><path
         d="m 4127.04,1753.17 c -29.29,42.38 -66.35,84.63 -101.02,126.47 v 186.48 c 1.29,-0.45 2.6,-0.92 3.89,-1.39 l 98.01,-74.32 31.98,-232.72 -32.86,-4.52"
         style="fill:#ccccc9;fill-opacity:1;fill-rule:nonzero;stroke:none"
         id="path196"
         inkscape:connector-curvature="0" /><path
         d="m 4115.93,1751.64 c -8.24,11.73 -17.09,23.48 -26.35,35.26 -20.14,25.66 -42.1,51.39 -63.56,77.1 v 15.64 c 34.67,-41.84 71.73,-84.09 101.02,-126.47 l -11.11,-1.53"
         style="fill:#949da6;fill-opacity:1;fill-rule:nonzero;stroke:none"
         id="path198"
         inkscape:connector-curvature="0" /><path
         d="m 4029.91,2064.73 c -1.29,0.47 -2.6,0.94 -3.89,1.39 v 1.56 l 3.89,-2.95"
         style="fill:#949da6;fill-opacity:1;fill-rule:nonzero;stroke:none"
         id="path200"
         inkscape:connector-curvature="0" /><path
         d="m 2512.15,1531.22 -4.49,32.69 357.44,471.34 380.01,-288.18 439.47,579.53 333.95,-253.24 V 1738.25 L 2784.22,1568.61 h -48.92 v -6.72 l -223.15,-30.67"
         style="fill:#b6b8bb;fill-opacity:1;fill-rule:nonzero;stroke:none"
         id="path202"
         inkscape:connector-curvature="0" /><path
         d="m 4018.53,1738.25 v 335.11 l 7.49,-5.68 v -328.39 l -7.49,-1.04"
         style="fill:#1b3043;fill-opacity:1;fill-rule:nonzero;stroke:none"
         id="path204"
         inkscape:connector-curvature="0" /><path
         d="m 2735.3,1561.89 v 6.72 h 48.92 l -48.92,-6.72"
         style="fill:#453498;fill-opacity:1;fill-rule:nonzero;stroke:none"
         id="path206"
         inkscape:connector-curvature="0" /><path
         d="m 4191.15,1824.07 -18.16,132.16 v 0 l 18.16,-132.16"
         style="fill:#ccccc9;fill-opacity:1;fill-rule:nonzero;stroke:none"
         id="path208"
         inkscape:connector-curvature="0" /><path
         d="m 4026.02,1698.91 v 40.38 l 89.91,12.35 c 8.72,-12.41 16.75,-24.78 23.83,-37.1 l -113.74,-15.63 m 59.86,597.35 -55.11,400.98 -4.75,-0.66 v 40.38 l 38.93,5.35 55.18,-401.51 c -10.19,-14.96 -21.54,-29.83 -34.25,-44.54"
         style="fill:#ccccc9;fill-opacity:1;fill-rule:nonzero;stroke:none"
         id="path210"
         inkscape:connector-curvature="0" /><path
         d="m 4150.44,1716.01 c -3.36,5.98 -6.93,11.95 -10.68,17.92 -4.04,6.41 -8.29,12.83 -12.72,19.24 l 32.86,4.52 -31.98,232.72 -3.56,25.85 c 15.32,-10.21 30.38,-21.47 45.01,-33.69 l 3.62,-26.34 18.16,-132.16 13.82,-100.56 -54.53,-7.5 m 16.93,281.09 c -14.61,11.73 -29.59,22.51 -44.81,32.3 l -34.88,253.75 c 12.7,14.21 24.13,28.59 34.46,43.06 l 45.23,-329.11"
         style="fill:#ccccc9;fill-opacity:1;fill-rule:nonzero;stroke:none"
         id="path212"
         inkscape:connector-curvature="0" /><path
         d="m 4139.76,1714.54 c -7.08,12.32 -15.11,24.69 -23.83,37.1 l 11.11,1.53 c 4.43,-6.41 8.68,-12.83 12.72,-19.24 3.75,-5.97 7.32,-11.94 10.68,-17.92 l -10.68,-1.47 m -52.08,568.61 -1.8,13.11 c 12.71,14.71 24.06,29.58 34.25,44.54 l 2.01,-14.59 c -10.33,-14.47 -21.76,-28.85 -34.46,-43.06"
         style="fill:#949da6;fill-opacity:1;fill-rule:nonzero;stroke:none"
         id="path214"
         inkscape:connector-curvature="0" /><path
         d="m 4169.37,1982.57 c -14.63,12.22 -29.69,23.48 -45.01,33.69 l -1.8,13.14 c 15.22,-9.79 30.2,-20.57 44.81,-32.3 l 2,-14.53"
         style="fill:#949da6;fill-opacity:1;fill-rule:nonzero;stroke:none"
         id="path216"
         inkscape:connector-curvature="0" /><path
         d="m 2477.97,1486.15 -50.96,370.81 h 17.28 v 31.48 h -21.61 l -84.73,616.52 830.74,114.17 h 293.78 l -1079.45,-148.36 124.64,-906.86 4.49,-32.69 223.15,30.67 v -40.37 l -257.33,-35.37 m 599.99,82.46 h -293.74 l 1234.31,169.64 v -40.37 l -940.57,-129.27 m 457.27,1060.52 h -293.78 l 777.08,106.8 v -40.38 l -483.3,-66.42"
         style="fill:#b6b8bb;fill-opacity:1;fill-rule:nonzero;stroke:none"
         id="path218"
         inkscape:connector-curvature="0" /><path
         d="m 4018.53,1697.88 v 40.37 l 7.49,1.04 v -40.38 l -7.49,-1.03 m 0,997.67 v 40.38 l 7.49,1.03 v -40.38 l -7.49,-1.03"
         style="fill:#1b3043;fill-opacity:1;fill-rule:nonzero;stroke:none"
         id="path220"
         inkscape:connector-curvature="0" /><path
         d="m 2735.3,1521.52 v 40.37 l 48.92,6.72 h 293.74 l -342.66,-47.09"
         style="fill:#453498;fill-opacity:1;fill-rule:nonzero;stroke:none"
         id="path222"
         inkscape:connector-curvature="0" /><path
         d="m 3462.47,2619.13 h -293.78 l 72.76,10 h 293.78 l -72.76,-10"
         style="fill:#1b3043;fill-opacity:1;fill-rule:nonzero;stroke:none"
         id="path224"
         inkscape:connector-curvature="0" /><path
         d="m 2444.29,1856.96 h -17.28 l -4.33,31.48 h 21.61 v -31.48"
         style="fill:#949da6;fill-opacity:1;fill-rule:nonzero;stroke:none"
         id="path226"
         inkscape:connector-curvature="0" /><path
         d="m 3167.99,2161.76 c -71.36,0 -133.56,52.66 -143.55,125.34 -10.91,79.38 44.59,152.58 123.98,163.49 6.69,0.92 13.36,1.36 19.93,1.36 71.36,0 133.56,-52.66 143.54,-125.34 10.91,-79.38 -44.59,-152.58 -123.97,-163.49 -6.7,-0.92 -13.36,-1.36 -19.93,-1.36"
         style="fill:#b6b8bb;fill-opacity:1;fill-rule:nonzero;stroke:none"
         id="path228"
         inkscape:connector-curvature="0" /><path
         d="m 4104.97,1893.51 -1727,-237.36 -140.02,1018.81 1727,237.35 140.02,-1018.8"
         style="fill:#ba9dd5;fill-opacity:1;fill-rule:nonzero;stroke:none"
         id="path230"
         inkscape:connector-curvature="0" /><path
         d="m 3584.58,2496.61 -439.47,-579.54 -380.01,288.18 -391.62,-516.41 4.49,-32.69 1727,237.35 -31.98,232.73 -488.41,370.38"
         style="fill:#5142a2;fill-opacity:1;fill-rule:nonzero;stroke:none"
         id="path232"
         inkscape:connector-curvature="0" /><path
         d="m 3964.95,2912.31 -1727,-237.35 140.02,-1018.81 1727,237.36 z m -34.18,-45.07 129.13,-939.55 -1647.75,-226.47 -129.13,939.56 1647.75,226.46"
         style="fill:#5142a2;fill-opacity:1;fill-rule:nonzero;stroke:none"
         id="path234"
         inkscape:connector-curvature="0" /><path
         d="m 3211.89,2496.61 c 10.91,-79.38 -44.59,-152.58 -123.97,-163.49 -79.38,-10.9 -152.57,44.6 -163.48,123.98 -10.91,79.38 44.59,152.57 123.98,163.49 79.37,10.9 152.57,-44.6 163.47,-123.98"
         style="fill:#f5f6f5;fill-opacity:1;fill-rule:nonzero;stroke:none"
         id="path236"
         inkscape:connector-curvature="0" /><path
         d="m 2345.49,2691.81 -78.15,-264.21 c -0.76,-2.59 0.68,-5.33 3.24,-6.17 2.57,-0.84 5.35,0.52 6.26,3.06 l 95.72,266.63 c 0.93,2.6 -0.42,5.46 -3.02,6.39 -2.6,0.94 -5.46,-0.41 -6.39,-3.01 l -36.53,-101.75 28.46,96.23 c 0.79,2.65 -0.73,5.43 -3.37,6.21 -2.65,0.78 -5.43,-0.73 -6.22,-3.38"
         style="fill:#bfc8d2;fill-opacity:1;fill-rule:nonzero;stroke:none"
         id="path238"
         inkscape:connector-curvature="0" /><path
         d="m 3793.28,2889.93 26.47,-31.82 -36.46,40.76 c -1.84,2.06 -5.01,2.23 -7.06,0.39 -2.06,-1.84 -2.24,-5 -0.4,-7.06 l 221.77,-247.9 c 1.82,-2.03 4.93,-2.23 6.99,-0.45 2.07,1.78 2.33,4.88 0.58,6.98 l -204.2,245.49 c -1.76,2.13 -4.92,2.41 -7.04,0.65 -2.12,-1.77 -2.41,-4.92 -0.64,-7.04"
         style="fill:#bfc8d2;fill-opacity:1;fill-rule:nonzero;stroke:none"
         id="path240"
         inkscape:connector-curvature="0" /><path
         d="m 3782.62,2899.49 -577.36,447.26 -3.06,-3.96 4.08,2.89 c -7.96,11.28 -20.45,17.01 -32.84,17 -11.91,0.01 -23.94,-5.28 -31.97,-15.84 l 3.98,-3.03 -3.21,3.83 -777.6,-651 c -2.12,-1.77 -2.4,-4.92 -0.62,-7.04 1.77,-2.12 4.92,-2.4 7.04,-0.63 l 777.6,651 0.77,0.81 c 6.08,7.98 15,11.88 24.01,11.9 9.38,-0.02 18.64,-4.25 24.67,-12.77 l 1.03,-1.07 577.36,-447.26 c 2.18,-1.69 5.32,-1.29 7.01,0.89 1.69,2.19 1.3,5.33 -0.89,7.02"
         style="fill:#bfc8d2;fill-opacity:1;fill-rule:nonzero;stroke:none"
         id="path242"
         inkscape:connector-curvature="0" /><path
         d="m 3004.1,4358.52 h -5 c 0,-49.82 40.38,-90.21 90.21,-90.21 49.82,0 90.21,40.39 90.21,90.21 0,49.82 -40.39,90.21 -90.21,90.21 -49.83,0 -90.21,-40.39 -90.21,-90.21 h 5 5 c 0,22.17 8.97,42.19 23.49,56.72 14.53,14.52 34.55,23.49 56.72,23.49 22.16,0 42.18,-8.97 56.72,-23.49 14.52,-14.53 23.49,-34.55 23.49,-56.72 0,-22.16 -8.97,-42.18 -23.49,-56.72 -14.54,-14.52 -34.56,-23.49 -56.72,-23.49 -22.17,0 -42.19,8.97 -56.72,23.49 -14.52,14.54 -23.49,34.56 -23.49,56.72 h -5"
         style="fill:#bfc8d2;fill-opacity:1;fill-rule:nonzero;stroke:none"
         id="path244"
         inkscape:connector-curvature="0" /><path
         d="m 3057.85,4358.52 h -5 c 0,-20.14 16.32,-36.45 36.46,-36.45 20.13,0 36.45,16.31 36.45,36.45 0,20.14 -16.32,36.46 -36.45,36.46 -20.14,0 -36.46,-16.32 -36.46,-36.46 h 5 5 c 0.03,14.62 11.85,26.43 26.46,26.46 14.61,-0.03 26.43,-11.84 26.45,-26.46 -0.02,-14.61 -11.84,-26.43 -26.45,-26.45 -14.61,0.02 -26.43,11.84 -26.46,26.45 h -5"
         style="fill:#bfc8d2;fill-opacity:1;fill-rule:nonzero;stroke:none"
         id="path246"
         inkscape:connector-curvature="0" /><path
         d="m 3731.83,1708.34 c -32.68,-148.59 -20.06,-339.57 52.18,-451.11 57.01,-88.01 158.45,-115.19 248.84,-184.78 l -4.19,-43.52 39.83,47.53 c 0,0 -50.12,49.81 -195.73,200.16 -35.62,36.79 -10.16,182.25 -0.88,218.59 45.26,60.39 -0.15,123.49 -30.11,213.13 h -109.94"
         style="fill:#203d57;fill-opacity:1;fill-rule:nonzero;stroke:none"
         id="path248"
         inkscape:connector-curvature="0" /><path
         d="m 4032.85,1072.45 -4.19,-43.52 39.83,47.53 -16.85,16.93 c 0,0 2.12,-18.09 -18.79,-20.94"
         style="fill:#4d75c3;fill-opacity:1;fill-rule:nonzero;stroke:none"
         id="path250"
         inkscape:connector-curvature="0" /><path
         d="m 3690.06,1708.34 c -95.47,-188.36 -91.53,-309.12 46.63,-748.899 l -44.12,-27.339 h 67.28 c 0,0 -2.87,464.838 24.16,570.798 45.28,60.37 45.95,115.8 15.99,205.44 h -109.94"
         style="fill:#304f68;fill-opacity:1;fill-rule:nonzero;stroke:none"
         id="path252"
         inkscape:connector-curvature="0" /><path
         d="m 3692.57,932.102 h 67.28 v 27.339 c 0,0 -14.47,-8.492 -23.16,0 l -44.12,-27.339"
         style="fill:#4d75c3;fill-opacity:1;fill-rule:nonzero;stroke:none"
         id="path254"
         inkscape:connector-curvature="0" /><path
         d="m 3793.52,2142.24 c -16.78,-51.38 -64.09,-76.44 -88.74,-71.81 -24.65,4.63 -37.46,46.64 -28.6,93.83 8.87,47.2 35.79,73.98 60.69,77.07 35.65,4.41 79.94,-27.78 56.65,-99.09"
         style="fill:#f5f6f5;fill-opacity:1;fill-rule:nonzero;stroke:none"
         id="path256"
         inkscape:connector-curvature="0" /><path
         d="m 3783.02,2011.75 h -46.33 v 116.29 h 46.33 v -116.29"
         style="fill:#f5f6f5;fill-opacity:1;fill-rule:nonzero;stroke:none"
         id="path258"
         inkscape:connector-curvature="0" /><path
         d="m 3745.82,2039.21 c -60.81,-11.07 -101.71,-110.84 -107.72,-146.55 -3.57,-21.19 -1.22,-41.79 22.28,-82.98 32.74,-57.38 29.68,-101.34 29.68,-101.34 h 152.38 c 0,45.58 29.3,96.7 46.58,167.75 17.29,71.06 -40.04,181.91 -143.2,163.12"
         style="fill:#4d75c3;fill-opacity:1;fill-rule:nonzero;stroke:none"
         id="path260"
         inkscape:connector-curvature="0" /><path
         d="m 3797.94,2036.88 c -0.21,0.01 88.39,-10.65 124.79,2.33 85.79,30.58 123.01,104.33 125.94,180.31 h 23.21 c 0,0 31.09,-224.4 -181.22,-304.53 l -92.72,121.89"
         style="fill:#5a83cb;fill-opacity:1;fill-rule:nonzero;stroke:none"
         id="path262"
         inkscape:connector-curvature="0" /><path
         d="m 4048.67,2219.52 c -15.49,17.07 -5.7,31.13 -11.81,44.58 -6.12,13.46 1.35,28.81 18.19,-7.88 l -6.99,51.42 c 0,0 20.09,-10.06 23.82,-88.12 h -23.21"
         style="fill:#f5f6f5;fill-opacity:1;fill-rule:nonzero;stroke:none"
         id="path264"
         inkscape:connector-curvature="0" /><path
         d="m 3741.92,2027.33 c 45.52,-8.93 39.95,-91.33 -12.1,-139.04 -49.11,-45.02 -187.71,-84.42 -374.23,-108.53 l -6.06,20.45 c 0,0 104.3,19.12 195.12,74.28 90.82,55.18 131.6,165.72 197.27,152.84"
         style="fill:#5a83cb;fill-opacity:1;fill-rule:nonzero;stroke:none"
         id="path266"
         inkscape:connector-curvature="0" /><path
         d="m 3349.53,1800.21 c -19.99,9.45 -30.58,-2.63 -44.75,-0.55 -14.17,2.08 -21.16,-7.54 17.53,-13.35 l -53.21,-7.69 c 0,0 12.55,-14.76 86.49,1.14 l -6.06,20.45"
         style="fill:#f5f6f5;fill-opacity:1;fill-rule:nonzero;stroke:none"
         id="path268"
         inkscape:connector-curvature="0" /><path
         d="m 3683.22,2235.14 c -23.41,-41 53.47,-30.94 53.47,-71.15 0,-40.19 -84.25,-47.65 -99.93,-100.09 -17.91,-59.9 104.28,-43.94 85.89,-106.1 -27.03,-91.33 -205.87,-98.96 -137.78,-195.75 49.59,-70.48 170.54,-30.36 156.88,-145.49 -13.25,-111.75 190.8,-89.23 208.36,2.41 11.67,60.95 -102.09,97.98 -38.4,143.99 77.97,56.31 176.56,131.76 92.21,195.61 -42.64,32.28 -157.99,52.3 -169.7,104.14 -11.7,51.85 56.43,131.48 -24.58,184.49 -83.06,54.34 -126.42,-12.06 -126.42,-12.06"
         style="fill:#f5e831;fill-opacity:1;fill-rule:nonzero;stroke:none"
         id="path270"
         inkscape:connector-curvature="0" /><path
         d="m 1637.31,3448.05 c 0,0 39.83,-162.1 124.52,-162.1 194.04,0 249.51,74.28 327.16,69.16 41.19,-2.72 144.41,-69.16 144.41,-69.16 h 58.26 l -40.91,25.47 c 0,0 -111.7,146.31 -186.54,155.37 -94.79,11.48 -220.34,-82.56 -287.66,-18.74 h -139.24"
         style="fill:#203d57;fill-opacity:1;fill-rule:nonzero;stroke:none"
         id="path272"
         inkscape:connector-curvature="0" /><path
         d="m 2233.4,3285.95 -13,8.13 c 0,0 22.79,-1.36 30.35,17.34 l 40.91,-25.47 h -58.26"
         style="fill:#4d75c3;fill-opacity:1;fill-rule:nonzero;stroke:none"
         id="path274"
         inkscape:connector-curvature="0" /><path
         d="M 3042.66,4435.64 2141.25,3867.08 2009.8,3741.82 v -430.4 c 0,-2.77 2.24,-5 5,-5 2.77,0 5,2.23 5,5 v 426.12 l 127.63,121.61 900.57,568.03 c 2.33,1.48 3.03,4.56 1.56,6.9 -1.47,2.33 -4.56,3.03 -6.9,1.56"
         style="fill:#bfc8d2;fill-opacity:1;fill-rule:nonzero;stroke:none"
         id="path276"
         inkscape:connector-curvature="0" /><path
         d="m 1991.96,3722.71 c 8.04,13.62 26.59,40.33 35.88,22.62 5.86,-11.2 3.49,-30.98 -1.85,-32.95 -5.34,-1.97 -19.2,-3.21 -19.2,-3.21 l -14.83,13.54"
         style="fill:#bfc8d2;fill-opacity:1;fill-rule:nonzero;stroke:none"
         id="path278"
         inkscape:connector-curvature="0" /><path
         d="m 1612.88,3749.39 c 73.81,41.65 193.36,-91.64 229.58,-98.52 58.58,-11.11 142.09,65.82 149.5,71.84 l 14.83,-13.54 c 0,0 -91.43,-131.2 -177.92,-133.67 -86.5,-2.47 -310.17,120.76 -215.99,173.89"
         style="fill:#4d75c3;fill-opacity:1;fill-rule:nonzero;stroke:none"
         id="path280"
         inkscape:connector-curvature="0" /><path
         d="m 1991.96,3722.71 c 2.96,13.76 7.94,19.09 17.56,24.24 14.02,7.52 11.06,14.84 15.75,14.84 4.7,0 9.64,-13.6 -2.22,-18.4 0,0 0.5,-24.23 -20.46,-30.39 l -10.63,9.71"
         style="fill:#f5f6f5;fill-opacity:1;fill-rule:nonzero;stroke:none"
         id="path282"
         inkscape:connector-curvature="0" /><path
         d="m 2027.84,3745.33 c 0.6,-5.13 -5.04,-4.35 -10.52,-4.12 -7.39,0.32 -14.92,1.42 -13.67,-8.26 1.97,-15.18 -0.3,-23.77 7.03,-24.14 7.33,-0.37 12.38,-2 17.16,0.53 4.78,2.53 7.31,24.46 0,35.99"
         style="fill:#f5f6f5;fill-opacity:1;fill-rule:nonzero;stroke:none"
         id="path284"
         inkscape:connector-curvature="0" /><path
         d="m 1783.69,3489.89 c 95.33,-188.06 169.01,-380.9 345.55,-547.79 l 49.77,14.47 -44.96,-49.93 c 0,0 -369.2,216.02 -469.39,348.47 -45.2,60.29 -56.53,103.57 -26.62,193.07 l 145.65,41.71"
         style="fill:#304f68;fill-opacity:1;fill-rule:nonzero;stroke:none"
         id="path286"
         inkscape:connector-curvature="0" /><path
         d="m 2134.05,2906.64 44.96,49.93 -49.77,-14.47 c 0,0 2.54,-16.93 -15.56,-23.33 l 20.37,-12.13"
         style="fill:#4d75c3;fill-opacity:1;fill-rule:nonzero;stroke:none"
         id="path288"
         inkscape:connector-curvature="0" /><path
         d="m 1572.69,3841.76 c 27.5,-41.01 75.32,-51.31 95.85,-41.13 20.53,10.19 21.37,50.31 1.87,89.61 -19.5,39.3 -49.83,56.19 -72.49,52.72 -32.45,-4.96 -63.41,-44.26 -25.23,-101.2"
         style="fill:#f5f6f5;fill-opacity:1;fill-rule:nonzero;stroke:none"
         id="path290"
         inkscape:connector-curvature="0" /><path
         d="m 1589.8,3722.71 65.24,18.4 -28.85,102.26 -70.66,40.75 34.27,-161.41"
         style="fill:#f5f6f5;fill-opacity:1;fill-rule:nonzero;stroke:none"
         id="path292"
         inkscape:connector-curvature="0" /><path
         d="m 1639.32,3763 c -69.1,-8.72 -128.57,-28.37 -99.23,-260.29 27.52,-217.51 99.23,-216.76 99.23,-216.76 0,0 217.69,-15.36 261.72,148.9 0,0 -93.62,65.1 -122.61,182.91 -28.98,117.81 -85.72,151.98 -139.11,145.24"
         style="fill:#5a83cb;fill-opacity:1;fill-rule:nonzero;stroke:none"
         id="path294"
         inkscape:connector-curvature="0" /><path
         d="m 1639.32,3763 478.49,100.39 11.3,-25.94 c 0,0 -329.51,-213.76 -444.61,-221.17 -115.11,-7.41 -128.46,121.7 -45.18,146.72"
         style="fill:#5a83cb;fill-opacity:1;fill-rule:nonzero;stroke:none"
         id="path296"
         inkscape:connector-curvature="0" /><path
         d="m 2117.81,3863.39 c 0,0 19.92,27.14 31.37,25.31 11.45,-1.83 26.58,-27.95 20.16,-38.03 -6.42,-10.07 -40.23,-13.22 -40.23,-13.22 l -11.3,25.94"
         style="fill:#f5f6f5;fill-opacity:1;fill-rule:nonzero;stroke:none"
         id="path298"
         inkscape:connector-curvature="0" /><path
         d="m 1578.88,3774.17 c 0,0 35.57,13.01 33.9,54.13 0,0 -16.8,-8.77 -21.67,27.72 -2.22,16.68 14.17,20.02 21.72,1.66 10.55,-3.89 24.79,3.31 22.6,22.65 -3.52,31.31 35.52,26.05 36.93,63.07 1.82,47.97 -93.87,111.05 -112.05,67.29 -14.84,-35.75 -10.47,-57.23 -55.79,-57.68 -83.42,-0.81 1.98,-195.57 74.36,-178.84"
         style="fill:#203d57;fill-opacity:1;fill-rule:nonzero;stroke:none"
         id="path300"
         inkscape:connector-curvature="0" /><path
         d="m 1300.93,1708.34 c 32.67,-148.59 20.06,-339.57 -52.19,-451.11 -57.01,-88.01 -158.45,-115.19 -248.842,-184.78 l 4.192,-43.52 -39.828,47.53 c 0,0 50.118,49.81 195.728,200.16 35.63,36.79 10.16,182.25 0.88,218.59 -45.26,60.39 0.16,123.49 30.12,213.13 h 109.94"
         style="fill:#203d57;fill-opacity:1;fill-rule:nonzero;stroke:none"
         id="path302"
         inkscape:connector-curvature="0" /><path
         d="m 999.898,1072.45 4.192,-43.52 -39.828,47.53 16.851,16.93 c 0,0 -2.125,-18.09 18.785,-20.94"
         style="fill:#4d75c3;fill-opacity:1;fill-rule:nonzero;stroke:none"
         id="path304"
         inkscape:connector-curvature="0" /><path
         d="m 1342.7,1708.34 c 95.46,-188.36 91.53,-309.12 -46.64,-748.899 l 44.13,-27.339 h -67.29 c 0,0 2.87,464.838 -24.16,570.798 -45.27,60.37 -45.95,115.8 -15.99,205.44 h 109.95"
         style="fill:#304f68;fill-opacity:1;fill-rule:nonzero;stroke:none"
         id="path306"
         inkscape:connector-curvature="0" /><path
         d="m 1340.19,932.102 h -67.29 v 27.339 c 0,0 14.47,-8.492 23.16,0 l 44.13,-27.339"
         style="fill:#4d75c3;fill-opacity:1;fill-rule:nonzero;stroke:none"
         id="path308"
         inkscape:connector-curvature="0" /><path
         d="m 1239.24,2142.24 c 16.78,-51.38 64.08,-76.44 88.73,-71.81 24.65,4.63 37.45,46.64 28.6,93.83 -8.86,47.2 -35.79,73.98 -60.68,77.07 -35.66,4.41 -79.95,-27.78 -56.65,-99.09"
         style="fill:#f5f6f5;fill-opacity:1;fill-rule:nonzero;stroke:none"
         id="path310"
         inkscape:connector-curvature="0" /><path
         d="m 1214.75,2011.75 h 81.31 v 116.29 h -81.31 v -116.29"
         style="fill:#f5f6f5;fill-opacity:1;fill-rule:nonzero;stroke:none"
         id="path312"
         inkscape:connector-curvature="0" /><path
         d="m 1234.81,2036.88 c 0.21,0.01 -88.38,-10.65 -124.79,2.33 -85.79,30.58 -123.008,104.33 -125.938,180.31 h -23.215 c 0,0 -31.086,-224.4 181.223,-304.53 l 92.72,121.89"
         style="fill:#5a83cb;fill-opacity:1;fill-rule:nonzero;stroke:none"
         id="path314"
         inkscape:connector-curvature="0" /><path
         d="m 984.082,2219.52 c 15.484,17.07 5.703,31.13 11.816,44.58 6.112,13.46 -1.363,28.81 -18.195,-7.88 l 0.016,51.42 c 0,0 -13.117,-10.06 -16.852,-88.12 h 23.215"
         style="fill:#f5f6f5;fill-opacity:1;fill-rule:nonzero;stroke:none"
         id="path316"
         inkscape:connector-curvature="0" /><path
         d="m 1329.86,2020.61 c -56.51,28.03 -80.11,16.34 -174.56,12.31 -94.45,-4.02 -14.18,-231.91 -14.18,-488.42 0,0 82.11,-47.67 286.5,0 0,0 -8.02,431.58 -97.76,476.11"
         style="fill:#5a83cb;fill-opacity:1;fill-rule:nonzero;stroke:none"
         id="path318"
         inkscape:connector-curvature="0" /><path
         d="m 1290.27,2110.27 c 14.04,-24.69 -66.57,-46.26 -88.01,-21.43 -21.44,24.82 -93.73,44.26 -40.62,141.04 23.12,42.13 31.9,103.91 66.17,109.86 82.3,14.26 121.86,-48.93 120.01,-86.17 -2.57,-51.42 -22.59,-82.34 -43.32,-92.52 -14.07,-6.91 -36.04,-12.41 -14.23,-50.78"
         style="fill:#ca36a3;fill-opacity:1;fill-rule:nonzero;stroke:none"
         id="path320"
         inkscape:connector-curvature="0" /><path
         d="m 1283.24,2036.72 c 98.01,0.46 170.55,-53.39 242.09,-60.14 83.25,-7.86 166.12,48.7 182.8,93.31 l 37.42,6.49 c 0,0 -56.73,-119.8 -216.59,-172.32 -80.34,-26.39 -178.59,-30.48 -238.13,-3.06 -59.53,27.41 -76.32,135.39 -7.59,135.72"
         style="fill:#5a83cb;fill-opacity:1;fill-rule:nonzero;stroke:none"
         id="path322"
         inkscape:connector-curvature="0" /><path
         d="m 1708.13,2069.89 c -11.79,17.53 6.13,35.53 8.61,48.66 2.48,13.13 9.25,22.84 15.77,24.21 11.12,2.36 7.79,-13.14 4.21,-27.97 -0.38,-1.58 1.16,-2.92 2.64,-2.25 8.61,3.93 30.96,13.13 48.04,11.42 5.86,-0.59 9.47,-6.98 -14.19,-18.8 -23,-11.51 -27.66,-28.78 -27.66,-28.78 l -37.42,-6.49"
         style="fill:#f5f6f5;fill-opacity:1;fill-rule:nonzero;stroke:none"
         id="path324"
         inkscape:connector-curvature="0" /><path
         d="m 2821.31,1079.68 h -186.76 v 10 h 176.76 v 240.75 h 10 v -250.75"
         style="fill:#ccccc9;fill-opacity:1;fill-rule:nonzero;stroke:none"
         id="path326"
         inkscape:connector-curvature="0" /><path
         d="m 2811.31,1337.93 h 10 v 38.0313 h -10 z"
         style="fill:#b6b8bb;fill-opacity:1;fill-rule:nonzero;stroke:none"
         id="path328"
         inkscape:connector-curvature="0" /><path
         d="m 2811.31,1330.43 h 10 v 7.5 h -10 z"
         style="fill:#1b3043;fill-opacity:1;fill-rule:nonzero;stroke:none"
         id="path330"
         inkscape:connector-curvature="0" /><path
         d="m 1698.78,1089.68 h 1112.53 v 296.281 H 1698.78 Z"
         style="fill:#5142a2;fill-opacity:1;fill-rule:nonzero;stroke:none"
         id="path332"
         inkscape:connector-curvature="0" /><path
         d="m 1773.52,1148.06 h 179.52 v 179.523 h -179.52 z"
         style="fill:#664daa;fill-opacity:1;fill-rule:nonzero;stroke:none"
         id="path334"
         inkscape:connector-curvature="0" /><path
         d="m 1771.75,1325.81 179.52,-179.52 3.54,3.53 -179.52,179.53 -3.54,-3.54"
         style="fill:#5142a2;fill-opacity:1;fill-rule:nonzero;stroke:none"
         id="path336"
         inkscape:connector-curvature="0" /><path
         d="m 1951.27,1329.35 -179.52,-179.53 3.54,-3.53 179.52,179.52 -3.54,3.54"
         style="fill:#5142a2;fill-opacity:1;fill-rule:nonzero;stroke:none"
         id="path338"
         inkscape:connector-curvature="0" /><path
         d="m 2686.03,1266.74 h -670.48 v 21.11 h 670.48 v -21.11"
         style="fill:#6993d3;fill-opacity:1;fill-rule:nonzero;stroke:none"
         id="path340"
         inkscape:connector-curvature="0" /><path
         d="m 2015.55,1187.78 h 670.48 v 21.1172 h -670.48 z"
         style="fill:#6993d3;fill-opacity:1;fill-rule:nonzero;stroke:none"
         id="path342"
         inkscape:connector-curvature="0" /><path
         d="m 2015.55,1227.26 h 598.168 v 21.1172 H 2015.55 Z"
         style="fill:#6993d3;fill-opacity:1;fill-rule:nonzero;stroke:none"
         id="path344"
         inkscape:connector-curvature="0" /><path
         d="m 1522.03,982.121 v 266.259 h 176.75 V 1190 h -98.48 l -1.77,1.77 -3.53,-3.54 1.76,-1.77 v -172.45 l -1.76,-1.76 3.53,-3.54 1.77,1.77 h 172.44 l 1.77,-1.77 3.54,3.54 -1.77,1.76 v 65.67 h 858.27 v -91.629 c -44.44,0.07 -89.32,0.097 -134.55,0.097 -357.65,0 -692.26,-2.199 -977.97,-6.027 m 316.75,89.199 v -21.12 h 670.49 v 21.12 h -670.49"
         style="fill:#ccccc9;fill-opacity:1;fill-rule:nonzero;stroke:none"
         id="path346"
         inkscape:connector-curvature="0" /><path
         d="M 2634.55,952.102 H 1522.03 v 30.019 c 285.71,3.828 620.32,6.027 977.97,6.027 45.23,0 90.11,-0.027 134.55,-0.097 v -35.949"
         style="fill:#b6b8bb;fill-opacity:1;fill-rule:nonzero;stroke:none"
         id="path348"
         inkscape:connector-curvature="0" /><path
         d="m 2634.55,1079.68 h -858.27 v 10 h 858.27 v -10"
         style="fill:#9f9f9e;fill-opacity:1;fill-rule:nonzero;stroke:none"
         id="path350"
         inkscape:connector-curvature="0" /><path
         d="m 2634.55,1089.68 h -197.59 v 21.12 h -598.18 v -21.12 h -62.5 v 57.6 l 0.78,0.78 h 61.72 v -18.9 h 670.49 v 21.11 h -554.91 l -1.32,1.32 v 96.79 h 62.51 v -21.12 h 598.17 v 21.12 h 20.83 v -39.48 h -619 v -21.12 h 619 v -98.1 M 1772.74,1190 h -73.96 v 58.38 h 74.74 v -57.6 l -0.78,-0.78"
         style="fill:#453498;fill-opacity:1;fill-rule:nonzero;stroke:none"
         id="path352"
         inkscape:connector-curvature="0" /><path
         d="m 1838.78,1148.06 h -61.72 l 86.22,86.22 84,-84.01 h -108.5 v -2.21 m 114.26,3.53 -86.23,86.23 10.56,10.56 h 75.67 v -96.79 m -176.76,2.76 v 32.11 l 1.77,1.77 -3.54,3.54 -0.99,-0.99 v 57.6 h 75.66 l 10.56,-10.56 -83.46,-83.47 m 87,87 -7.03,7.03 h 14.05 l -7.02,-7.03"
         style="fill:#593ea1;fill-opacity:1;fill-rule:nonzero;stroke:none"
         id="path354"
         inkscape:connector-curvature="0" /><path
         d="m 1954.36,1150.27 h -7.08 l -84,84.01 3.53,3.54 86.23,-86.23 1.32,-1.32 m -94.62,87.55 -10.56,10.56 h 7.07 l 7.03,-7.03 -3.54,-3.53"
         style="fill:#453498;fill-opacity:1;fill-rule:nonzero;stroke:none"
         id="path356"
         inkscape:connector-curvature="0" /><path
         d="m 1776.28,1147.28 v 7.07 l 83.46,83.47 3.54,3.53 7.02,7.03 h 7.07 l -10.56,-10.56 -3.53,-3.54 -86.22,-86.22 -0.78,-0.78"
         style="fill:#453498;fill-opacity:1;fill-rule:nonzero;stroke:none"
         id="path358"
         inkscape:connector-curvature="0" /><path
         d="m 2015.55,1187.78 h 619 v 21.1172 h -619 z"
         style="fill:#4d75c3;fill-opacity:1;fill-rule:nonzero;stroke:none"
         id="path360"
         inkscape:connector-curvature="0" /><path
         d="m 2015.55,1227.26 h 598.168 v 21.1172 H 2015.55 Z"
         style="fill:#4d75c3;fill-opacity:1;fill-rule:nonzero;stroke:none"
         id="path362"
         inkscape:connector-curvature="0" /><path
         d="M 1772.74,1010.48 H 1600.3 l 86.22,86.22 86.22,-86.22 m 3.54,3.53 -65.66,65.67 h 65.66 v -65.67 m -67.5,67.5 -8.16,8.17 h 8.16 v -8.17"
         style="fill:#ccccc9;fill-opacity:1;fill-rule:nonzero;stroke:none"
         id="path364"
         inkscape:connector-curvature="0" /><path
         d="m 1776.28,1079.68 h -65.66 l -1.84,1.83 v 8.17 h 67.5 v -10"
         style="fill:#9f9f9e;fill-opacity:1;fill-rule:nonzero;stroke:none"
         id="path366"
         inkscape:connector-curvature="0" /><path
         d="m 1698.78,1091.51 -8.72,8.73 8.72,8.73 v -17.46"
         style="fill:#ccccc9;fill-opacity:1;fill-rule:nonzero;stroke:none"
         id="path368"
         inkscape:connector-curvature="0" /><path
         d="m 1776.28,1089.68 h -75.66 l -1.84,1.83 v 17.46 l 74.74,74.74 v -32.12 l -1.77,-1.77 3.54,-3.53 0.99,0.99 v -57.6"
         style="fill:#453498;fill-opacity:1;fill-rule:nonzero;stroke:none"
         id="path370"
         inkscape:connector-curvature="0" /><path
         d="m 1773.52,1151.59 v 32.12 l 2.76,2.75 v -32.11 l -2.76,-2.76"
         style="fill:#593ea1;fill-opacity:1;fill-rule:nonzero;stroke:none"
         id="path372"
         inkscape:connector-curvature="0" /><path
         d="m 1775.29,1146.29 -3.54,3.53 1.77,1.77 2.76,2.76 v -7.07 l -0.99,-0.99"
         style="fill:#453498;fill-opacity:1;fill-rule:nonzero;stroke:none"
         id="path374"
         inkscape:connector-curvature="0" /><path
         d="m 1596.76,1014.01 v 172.45 l 86.23,-86.22 -86.23,-86.23 m 89.76,89.77 -86.22,86.22 h 98.48 v -73.96 l -12.26,-12.26"
         style="fill:#ccccc9;fill-opacity:1;fill-rule:nonzero;stroke:none"
         id="path376"
         inkscape:connector-curvature="0" /><path
         d="M 1698.78,1116.04 V 1190 h 73.96 l -73.96,-73.96"
         style="fill:#453498;fill-opacity:1;fill-rule:nonzero;stroke:none"
         id="path378"
         inkscape:connector-curvature="0" /><path
         d="m 1774.51,1008.71 -1.77,1.77 -86.22,86.22 3.54,3.54 8.72,-8.73 v -1.83 h 1.84 l 8.16,-8.17 v -1.83 h 1.84 l 65.66,-65.67 1.77,-1.76 -3.54,-3.54"
         style="fill:#ccccc9;fill-opacity:1;fill-rule:nonzero;stroke:none"
         id="path380"
         inkscape:connector-curvature="0" /><path
         d="m 1710.62,1079.68 h -1.84 v 1.83 l 1.84,-1.83"
         style="fill:#9f9f9e;fill-opacity:1;fill-rule:nonzero;stroke:none"
         id="path382"
         inkscape:connector-curvature="0" /><path
         d="m 1700.62,1089.68 h -1.84 v 1.83 l 1.84,-1.83"
         style="fill:#453498;fill-opacity:1;fill-rule:nonzero;stroke:none"
         id="path384"
         inkscape:connector-curvature="0" /><path
         d="m 1682.99,1100.24 -86.23,86.22 -1.76,1.77 3.53,3.54 1.77,-1.77 86.22,-86.22 -3.53,-3.54"
         style="fill:#ccccc9;fill-opacity:1;fill-rule:nonzero;stroke:none"
         id="path386"
         inkscape:connector-curvature="0" /><path
         d="m 1598.53,1008.71 -3.53,3.54 1.76,1.76 86.23,86.23 3.53,3.54 12.26,12.26 v -7.07 l -8.72,-8.73 -3.54,-3.54 -86.22,-86.22 -1.77,-1.77"
         style="fill:#ccccc9;fill-opacity:1;fill-rule:nonzero;stroke:none"
         id="path388"
         inkscape:connector-curvature="0" /><path
         d="m 1698.78,1108.97 v 7.07 l 73.96,73.96 0.78,0.78 v -7.07 l -74.74,-74.74"
         style="fill:#453498;fill-opacity:1;fill-rule:nonzero;stroke:none"
         id="path390"
         inkscape:connector-curvature="0" /><path
         d="m 1773.52,1183.71 v 7.07 l 0.99,0.99 3.54,-3.54 -1.77,-1.77 -2.76,-2.75"
         style="fill:#593ea1;fill-opacity:1;fill-rule:nonzero;stroke:none"
         id="path392"
         inkscape:connector-curvature="0" /><path
         d="m 2509.27,1129.16 h -670.49 v 18.9 h 110.72 l 1.77,-1.77 1.77,1.77 v 0 l 1.77,1.76 -0.45,0.45 h 554.91 v -21.11"
         style="fill:#453498;fill-opacity:1;fill-rule:nonzero;stroke:none"
         id="path394"
         inkscape:connector-curvature="0" /><path
         d="m 1953.04,1148.06 v 0 0 0 m -3.54,0 h -110.72 v 2.21 h 108.5 l 2.22,-2.21"
         style="fill:#593ea1;fill-opacity:1;fill-rule:nonzero;stroke:none"
         id="path396"
         inkscape:connector-curvature="0" /><path
         d="m 1951.27,1146.29 -1.77,1.77 -2.22,2.21 h 7.08 l 0.45,-0.45 -1.77,-1.76 v 0 l -1.77,-1.77"
         style="fill:#453498;fill-opacity:1;fill-rule:nonzero;stroke:none"
         id="path398"
         inkscape:connector-curvature="0" /><path
         d="m 1838.78,1050.2 h 670.488 v 21.1211 H 1838.78 Z"
         style="fill:#ccccc9;fill-opacity:1;fill-rule:nonzero;stroke:none"
         id="path400"
         inkscape:connector-curvature="0" /><path
         d="m 1838.78,1089.68 h 598.18 v 21.1211 h -598.18 z"
         style="fill:#453498;fill-opacity:1;fill-rule:nonzero;stroke:none"
         id="path402"
         inkscape:connector-curvature="0" /><path
         d="M 2624.55,1258.38 H 1512.03 V 962.102 h 1112.52 v 296.278"
         style="fill:#4d75c3;fill-opacity:1;fill-rule:nonzero;stroke:none"
         id="path404"
         inkscape:connector-curvature="0" /><path
         d="m 1766.28,1200 h -179.52 v -179.52 h 179.52 V 1200"
         style="fill:#5142a2;fill-opacity:1;fill-rule:nonzero;stroke:none"
         id="path406"
         inkscape:connector-curvature="0" /><path
         d="m 1584.99,1198.23 179.52,-179.52 3.54,3.54 -179.52,179.52"
         style="fill:#4d75c3;fill-opacity:1;fill-rule:nonzero;stroke:none"
         id="path408"
         inkscape:connector-curvature="0" /><path
         d="m 1764.51,1201.77 -179.52,-179.52 3.54,-3.54 179.52,179.52"
         style="fill:#4d75c3;fill-opacity:1;fill-rule:nonzero;stroke:none"
         id="path410"
         inkscape:connector-curvature="0" /><path
         d="m 2499.27,1139.16 h -670.49 v 21.11 h 670.49 v -21.11"
         style="fill:#6993d3;fill-opacity:1;fill-rule:nonzero;stroke:none"
         id="path412"
         inkscape:connector-curvature="0" /><path
         d="m 2499.27,1081.32 h -670.49 v -21.11 h 670.49 v 21.11"
         style="fill:#6993d3;fill-opacity:1;fill-rule:nonzero;stroke:none"
         id="path414"
         inkscape:connector-curvature="0" /><path
         d="m 2426.96,1099.68 h -598.18 v 21.12 h 598.18 v -21.12"
         style="fill:#6993d3;fill-opacity:1;fill-rule:nonzero;stroke:none"
         id="path416"
         inkscape:connector-curvature="0" /><path
         d="m 2565.52,3459.39 c 0,-16.11 -13.07,-29.18 -29.19,-29.18 -16.12,0 -29.19,13.07 -29.19,29.18 0,16.12 13.07,29.19 29.19,29.19 16.12,0 29.19,-13.07 29.19,-29.19"
         style="fill:#ffffff;fill-opacity:1;fill-rule:nonzero;stroke:none"
         id="path418"
         inkscape:connector-curvature="0" /><path
         d="m 2565.52,3459.39 h -5 c -0.03,-13.35 -10.83,-24.16 -24.19,-24.18 -13.36,0.02 -24.17,10.83 -24.19,24.18 0.02,13.36 10.83,24.17 24.19,24.19 13.36,-0.02 24.16,-10.83 24.19,-24.19 h 5 5 c -0.01,18.89 -15.31,34.19 -34.19,34.19 -18.89,0 -34.19,-15.3 -34.19,-34.19 0,-18.88 15.3,-34.18 34.19,-34.18 18.88,0 34.18,15.3 34.19,34.18 h -5"
         style="fill:#bfc8d2;fill-opacity:1;fill-rule:nonzero;stroke:none"
         id="path420"
         inkscape:connector-curvature="0" /><path
         d="m 2488.04,3650.58 c 0,-31.63 -25.65,-57.27 -57.28,-57.27 -31.64,0 -57.28,25.64 -57.28,57.27 0,31.64 25.64,57.28 57.28,57.28 31.63,0 57.28,-25.64 57.28,-57.28"
         style="fill:#ffffff;fill-opacity:1;fill-rule:nonzero;stroke:none"
         id="path422"
         inkscape:connector-curvature="0" /><path
         d="m 2488.04,3650.58 h -5 c -0.01,-14.45 -5.85,-27.49 -15.32,-36.96 -9.47,-9.47 -22.51,-15.31 -36.96,-15.31 -14.46,0 -27.49,5.84 -36.97,15.31 -9.47,9.47 -15.31,22.51 -15.31,36.96 0,14.45 5.84,27.49 15.31,36.97 9.48,9.47 22.51,15.31 36.97,15.31 14.45,0 27.49,-5.84 36.96,-15.31 9.47,-9.48 15.31,-22.52 15.32,-36.97 h 5 5 c -0.01,34.4 -27.89,62.28 -62.28,62.28 -34.4,0 -62.28,-27.88 -62.28,-62.28 0,-34.39 27.88,-62.27 62.28,-62.27 34.39,0 62.27,27.88 62.28,62.27 h -5"
         style="fill:#bfc8d2;fill-opacity:1;fill-rule:nonzero;stroke:none"
         id="path424"
         inkscape:connector-curvature="0" /><path
         d="m 2751.68,3600.51 c 0,-18.11 -14.68,-32.79 -32.79,-32.79 -18.11,0 -32.79,14.68 -32.79,32.79 0,18.11 14.68,32.8 32.79,32.8 18.11,0 32.79,-14.69 32.79,-32.8"
         style="fill:#ffffff;fill-opacity:1;fill-rule:nonzero;stroke:none"
         id="path426"
         inkscape:connector-curvature="0" /><path
         d="m 2751.68,3600.51 h -5 c -0.03,-15.35 -12.44,-27.76 -27.79,-27.79 -15.34,0.03 -27.76,12.44 -27.79,27.79 0.03,15.35 12.45,27.77 27.79,27.8 15.35,-0.03 27.76,-12.45 27.79,-27.8 h 5 5 c 0,20.88 -16.91,37.79 -37.79,37.8 -20.87,-0.01 -37.78,-16.92 -37.79,-37.8 0.01,-20.87 16.92,-37.79 37.79,-37.79 20.88,0 37.79,16.92 37.79,37.79 h -5"
         style="fill:#bfc8d2;fill-opacity:1;fill-rule:nonzero;stroke:none"
         id="path428"
         inkscape:connector-curvature="0" /><path
         d="m 638.406,3794.01 c 0,-25.51 -20.676,-46.19 -46.183,-46.19 -25.508,0 -46.184,20.68 -46.184,46.19 0,25.5 20.676,46.18 46.184,46.18 25.507,0 46.183,-20.68 46.183,-46.18"
         style="fill:#ffffff;fill-opacity:1;fill-rule:nonzero;stroke:none"
         id="path430"
         inkscape:connector-curvature="0" /><path
         d="m 638.406,3794.01 h -5 c 0,-11.39 -4.601,-21.66 -12.062,-29.12 -7.469,-7.47 -17.735,-12.07 -29.121,-12.07 -11.391,0 -21.653,4.6 -29.121,12.07 -7.461,7.46 -12.059,17.73 -12.063,29.12 0.004,11.39 4.602,21.65 12.063,29.12 7.468,7.46 17.73,12.06 29.121,12.06 11.386,0 21.652,-4.6 29.121,-12.06 7.461,-7.47 12.062,-17.73 12.062,-29.12 h 5 5 c 0,28.27 -22.914,51.18 -51.183,51.18 -28.274,0 -51.18,-22.92 -51.184,-51.18 0.004,-28.27 22.91,-51.18 51.184,-51.19 28.269,0.01 51.183,22.92 51.183,51.19 h -5"
         style="fill:#bfc8d2;fill-opacity:1;fill-rule:nonzero;stroke:none"
         id="path432"
         inkscape:connector-curvature="0" /><path
         d="m 745.934,3937.99 c 0,-21.91 -17.77,-39.68 -39.684,-39.68 -21.914,0 -39.68,17.77 -39.68,39.68 0,21.92 17.766,39.68 39.68,39.68 21.914,0 39.684,-17.76 39.684,-39.68"
         style="fill:#ffffff;fill-opacity:1;fill-rule:nonzero;stroke:none"
         id="path434"
         inkscape:connector-curvature="0" /><path
         d="m 745.934,3937.99 h -5 c -0.036,-19.15 -15.536,-34.64 -34.684,-34.68 -19.148,0.04 -34.645,15.53 -34.68,34.68 0.035,19.15 15.528,34.65 34.68,34.68 19.152,-0.03 34.648,-15.53 34.684,-34.68 h 5 5 c -0.004,24.68 -20.008,44.68 -44.684,44.68 -24.676,0 -44.676,-20 -44.68,-44.68 0.004,-24.67 20,-44.68 44.68,-44.68 24.68,0 44.68,20.01 44.684,44.68 h -5"
         style="fill:#bfc8d2;fill-opacity:1;fill-rule:nonzero;stroke:none"
         id="path436"
         inkscape:connector-curvature="0" /><path
         d="m 4353.96,3001.36 c 0,-19.4 -15.73,-35.13 -35.13,-35.13 -19.41,0 -35.14,15.73 -35.14,35.13 0,19.4 15.73,35.13 35.14,35.13 19.4,0 35.13,-15.73 35.13,-35.13"
         style="fill:#ffffff;fill-opacity:1;fill-rule:nonzero;stroke:none"
         id="path438"
         inkscape:connector-curvature="0" /><path
         d="m 4353.96,3001.36 h -5 c -0.03,-16.64 -13.49,-30.1 -30.13,-30.13 -16.64,0.03 -30.11,13.49 -30.14,30.13 0.03,16.64 13.5,30.1 30.14,30.13 16.64,-0.03 30.1,-13.49 30.13,-30.13 h 5 5 c 0,22.17 -17.96,40.13 -40.13,40.13 -22.17,0 -40.14,-17.96 -40.14,-40.13 0.01,-22.17 17.97,-40.13 40.14,-40.13 22.17,0 40.13,17.96 40.13,40.13 h -5"
         style="fill:#bfc8d2;fill-opacity:1;fill-rule:nonzero;stroke:none"
         id="path440"
         inkscape:connector-curvature="0" /><path
         d="m 4492.16,3042.65 c 0,-42.21 34.22,-76.42 76.41,-76.42 42.21,0 76.43,34.21 76.43,76.42 0,42.2 -34.22,76.42 -76.43,76.42 -42.19,0 -76.41,-34.22 -76.41,-76.42"
         style="fill:#ffffff;fill-opacity:1;fill-rule:nonzero;stroke:none"
         id="path442"
         inkscape:connector-curvature="0" /><path
         d="m 4492.16,3042.65 h -5 c 0,-44.97 36.45,-81.42 81.41,-81.42 44.97,0 81.43,36.45 81.43,81.42 0,44.96 -36.46,81.41 -81.43,81.42 -44.96,-0.01 -81.41,-36.46 -81.41,-81.42 h 5 5 c 0,19.73 7.99,37.56 20.92,50.5 12.94,12.93 30.76,20.91 50.49,20.92 19.74,-0.01 37.57,-7.99 50.51,-20.92 12.93,-12.94 20.92,-30.77 20.92,-50.5 0,-19.74 -7.99,-37.57 -20.92,-50.51 -12.94,-12.93 -30.77,-20.91 -50.51,-20.91 -19.73,0 -37.55,7.98 -50.49,20.91 -12.93,12.94 -20.92,30.77 -20.92,50.51 h -5"
         style="fill:#bfc8d2;fill-opacity:1;fill-rule:nonzero;stroke:none"
         id="path444"
         inkscape:connector-curvature="0" /></g></g></svg>